<svg width="617" height="406" viewBox="0 0 617 406" fill="none" xmlns="http://www.w3.org/2000/svg">
<g clip-path="url(#clip0_222_100)">
<g opacity="0.6">
<path d="M497.312 126.661C497.312 126.661 496.626 127.853 495.311 129.973" stroke="#E16168" stroke-width="10" stroke-miterlimit="10"/>
<path d="M491.2 136.593C473.391 163.411 419.291 235.298 354.93 230.117C275.918 223.81 271.932 131.327 315.943 122.497C359.953 113.667 404.916 194.28 393.159 255.994C381.402 317.708 316.802 373.822 209.435 365.489C122.166 358.725 33.6457 275.366 10.9663 252.578" stroke="#E16168" stroke-width="10" stroke-miterlimit="10" stroke-dasharray="20.13 20.13"/>
<path d="M8.26909 249.65C6.45538 247.79 5.52734 246.76 5.52734 246.76" stroke="#E16168" stroke-width="10" stroke-miterlimit="10"/>
<path fill-rule="evenodd" clip-rule="evenodd" d="M499.223 122.725C498.918 118.707 500.894 114.6 504.268 109.912L481.698 97.9983C480.296 97.5163 480.262 96.6865 480.973 95.6478L485.224 91.4028C486.012 90.8295 486.872 90.5415 487.839 90.7265L514.729 93.1336L534.966 67.4546L480.608 36.5759C479.242 35.9105 479.064 35.0518 480.331 33.9394L487.313 27.4142L556.088 41.0542L574.302 18.2419C580.519 11.9471 586.797 8.85728 591.868 9.69378C594.663 10.1569 595.694 10.8986 596.743 13.4044C598.783 18.32 596.762 25.2992 591.277 32.7504L571.58 54.2947L595.764 120.107L590.405 128.019C589.503 129.434 588.627 129.393 587.758 128.157L548.781 79.2816L526.566 103.26L533.132 129.447C533.464 130.364 533.324 131.258 532.871 132.136L529.34 136.996C528.435 137.86 527.599 137.955 526.905 136.646L511.622 116.207C507.498 120.281 503.749 122.872 499.711 123.188C499.341 123.207 499.251 123.084 499.223 122.725Z" fill="#E16168"/>
</g>
<path d="M500.312 149.661C500.312 149.661 499.626 150.853 498.311 152.973" stroke="#E16168" stroke-width="10" stroke-miterlimit="10"/>
<path d="M494.2 159.593C476.391 186.411 422.291 258.298 357.93 253.117C278.918 246.81 274.932 154.327 318.943 145.497C362.953 136.667 407.916 217.28 396.159 278.994C384.402 340.708 319.802 396.822 212.435 388.489C125.166 381.725 36.6457 298.366 13.9663 275.578" stroke="#E16168" stroke-width="10" stroke-miterlimit="10" stroke-dasharray="20.13 20.13"/>
<path d="M11.2691 272.65C9.45538 270.79 8.52734 269.76 8.52734 269.76" stroke="#E16168" stroke-width="10" stroke-miterlimit="10"/>
<path fill-rule="evenodd" clip-rule="evenodd" d="M502.223 145.725C501.918 141.707 503.894 137.6 507.268 132.912L484.698 120.998C483.296 120.516 483.262 119.687 483.973 118.648L488.224 114.403C489.012 113.83 489.872 113.541 490.839 113.726L517.729 116.134L537.966 90.4546L483.608 59.5759C482.242 58.9105 482.064 58.0518 483.331 56.9394L490.313 50.4142L559.088 64.0542L577.302 41.2419C583.519 34.9471 589.797 31.8573 594.868 32.6938C597.663 33.1569 598.694 33.8986 599.743 36.4044C601.783 41.32 599.762 48.2992 594.277 55.7504L574.58 77.2947L598.764 143.107L593.405 151.019C592.503 152.434 591.627 152.393 590.758 151.157L551.781 102.282L529.566 126.26L536.132 152.447C536.464 153.364 536.324 154.258 535.871 155.136L532.34 159.996C531.435 160.86 530.599 160.955 529.905 159.646L514.622 139.207C510.498 143.281 506.749 145.872 502.711 146.188C502.341 146.207 502.251 146.084 502.223 145.725Z" fill="#E16168"/>
</g>
<defs>
<clipPath id="clip0_222_100">
<rect width="617" height="406" fill="white"/>
</clipPath>
</defs>
</svg>
