<svg width="300" height="195" viewBox="0 0 300 195" fill="none" xmlns="http://www.w3.org/2000/svg">
<g clip-path="url(#clip0_222_100)">
<g opacity="0.6">
<path d="M242.07 62.9957C242.07 62.9957 241.741 63.5661 241.112 64.5805" stroke="#E16168" stroke-width="10" stroke-miterlimit="10"/>
<path d="M239.145 67.7483C230.624 80.5801 204.739 114.976 173.944 112.497C136.14 109.479 134.232 65.229 155.29 61.0039C176.348 56.7788 197.861 95.3498 192.235 124.878C186.61 154.406 155.701 181.255 104.329 177.268C62.5737 174.032 20.2197 134.147 9.36829 123.243" stroke="#E16168" stroke-width="10" stroke-miterlimit="10" stroke-dasharray="20.13 20.13"/>
<path d="M8.07771 121.842C7.2099 120.953 6.76587 120.459 6.76587 120.459" stroke="#E16168" stroke-width="10" stroke-miterlimit="10"/>
<path fill-rule="evenodd" clip-rule="evenodd" d="M242.984 61.1125C242.838 59.1898 243.783 57.2248 245.398 54.9818L234.599 49.2815C233.928 49.0509 233.912 48.6539 234.252 48.1569L236.286 46.1258C236.663 45.8515 237.074 45.7136 237.537 45.8022L250.403 46.9539L260.086 34.6673L234.077 19.8928C233.423 19.5744 233.338 19.1636 233.945 18.6313L237.285 15.5092L270.192 22.0355L278.907 11.1205C281.882 8.10865 284.885 6.6303 287.312 7.03053C288.649 7.25213 289.142 7.60703 289.644 8.80594C290.62 11.1579 289.653 14.4973 287.029 18.0624L277.604 28.3707L289.176 59.8597L286.612 63.6457C286.18 64.3226 285.761 64.3027 285.345 63.7113L266.696 40.3262L256.067 51.7991L259.208 64.3288C259.367 64.7675 259.3 65.1951 259.084 65.6152L257.394 67.9409C256.961 68.354 256.561 68.3997 256.229 67.773L248.917 57.9937C246.943 59.9432 245.149 61.1828 243.217 61.3342C243.041 61.3432 242.998 61.2842 242.984 61.1125Z" fill="#E16168"/>
</g>
<path d="M239.384 71.608C239.384 71.608 239.056 72.1784 238.426 73.1928" stroke="#E16168" stroke-width="10" stroke-miterlimit="10"/>
<path d="M236.459 76.3606C227.939 89.1924 202.053 123.588 171.258 121.109C133.454 118.092 131.547 73.8413 152.604 69.6162C173.662 65.3911 195.175 103.962 189.55 133.49C183.924 163.019 153.015 189.868 101.644 185.88C59.8879 182.644 17.5339 142.759 6.6825 131.856" stroke="#E16168" stroke-width="10" stroke-miterlimit="10" stroke-dasharray="20.13 20.13"/>
<path d="M5.39192 130.455C4.52411 129.565 4.08008 129.072 4.08008 129.072" stroke="#E16168" stroke-width="10" stroke-miterlimit="10"/>
<path fill-rule="evenodd" clip-rule="evenodd" d="M240.298 69.7248C240.152 67.8021 241.098 65.8371 242.712 63.5941L231.913 57.8938C231.242 57.6632 231.226 57.2662 231.566 56.7692L233.6 54.7381C233.977 54.4638 234.389 54.3259 234.851 54.4145L247.717 55.5662L257.4 43.2796L231.391 28.5051C230.738 28.1867 230.653 27.7759 231.259 27.2436L234.599 24.1215L267.506 30.6478L276.221 19.7328C279.196 16.721 282.2 15.2426 284.626 15.6428C285.963 15.8644 286.456 16.2193 286.958 17.4182C287.934 19.7702 286.967 23.1096 284.343 26.6747L274.919 36.983L286.49 68.472L283.926 72.258C283.494 72.9349 283.075 72.915 282.659 72.3237L264.01 48.9385L253.381 60.4114L256.523 72.9411C256.682 73.3798 256.614 73.8074 256.398 74.2275L254.708 76.5532C254.275 76.9663 253.875 77.012 253.543 76.3853L246.231 66.606C244.257 68.5555 242.464 69.7951 240.532 69.9465C240.355 69.9555 240.312 69.8965 240.298 69.7248Z" fill="#E16168"/>
</g>
<defs>
<clipPath id="clip0_222_100">
<rect width="300" height="194.258" fill="white"/>
</clipPath>
</defs>
</svg>
