<svg width="300" height="318" viewBox="0 0 300 318" fill="none" xmlns="http://www.w3.org/2000/svg">
<path fill-rule="evenodd" clip-rule="evenodd" d="M232.5 254.205H219.514V274.626C219.52 276.543 219.148 278.441 218.42 280.214C217.692 281.987 216.621 283.598 215.27 284.958C213.919 286.317 212.314 287.396 210.545 288.135C208.777 288.873 206.881 289.256 204.964 289.262H196.393C192.539 289.245 188.848 287.707 186.123 284.982C183.398 282.257 181.86 278.566 181.843 274.712V254.291H93.8999V274.712C93.8829 278.577 92.3357 282.277 89.5968 285.004C86.8579 287.731 83.1505 289.262 79.2856 289.262H70.7142C66.8625 289.245 63.1737 287.706 60.4521 284.98C57.7305 282.255 56.1969 278.564 56.1856 274.712V254.291H45.2142C37.6285 254.162 33.9856 250.005 33.4285 242.955V76.0905C29.1428 76.5191 27.107 77.5048 26.0785 79.6905V127.369H16.8642C14.0982 127.363 11.4471 126.262 9.49127 124.306C7.53542 122.35 6.43413 119.699 6.42847 116.933L6.42847 88.7762C6.43811 86.063 7.49984 83.4592 9.39025 81.5128C11.2807 79.5665 13.8523 78.4293 16.5642 78.3405C17.4428 70.1548 20.9785 67.7762 33.707 67.1762C35.5213 52.8905 45.257 42.3262 62.9142 35.4834C100.907 28.5191 172.993 27.8334 213.257 35.4834C231 42.3191 240.686 52.8834 242.443 67.1762C255.3 67.8191 258.75 70.2191 259.586 78.3405C262.297 78.4293 264.869 79.5665 266.76 81.5128C268.65 83.4592 269.712 86.063 269.721 88.7762V116.933C269.716 119.699 268.614 122.35 266.659 124.306C264.703 126.262 262.052 127.363 259.286 127.369H250.071V79.5619C249.043 77.4191 246.921 76.4762 242.721 76.0691V241.241C242.721 250.798 239.636 254.098 232.478 254.098L232.5 254.205ZM40.9928 211.841L41.5928 197.505C41.9356 194.998 43.2642 193.883 45.6428 194.291C57.6531 200.702 69.1769 207.986 80.1213 216.083C82.457 217.626 81.5356 220.605 78.4499 220.048L46.0285 217.691C44.6239 217.489 43.34 216.785 42.4142 215.709C41.4884 214.634 40.9835 213.26 40.9928 211.841V211.841ZM117.857 230.226H159.214C159.748 230.226 160.261 230.438 160.639 230.816C161.016 231.194 161.228 231.706 161.228 232.241V239.183C161.228 239.718 161.016 240.23 160.639 240.608C160.261 240.985 159.748 241.198 159.214 241.198H117.857C117.323 241.198 116.81 240.985 116.433 240.608C116.055 240.23 115.843 239.718 115.843 239.183V232.241C115.843 231.706 116.055 231.194 116.433 230.816C116.81 230.438 117.323 230.226 117.857 230.226V230.226ZM225.75 230.226C226.808 230.235 227.84 230.555 228.717 231.148C229.594 231.74 230.277 232.578 230.68 233.557C231.083 234.535 231.188 235.611 230.983 236.649C230.777 237.687 230.27 238.642 229.525 239.393C228.779 240.144 227.829 240.659 226.792 240.872C225.756 241.086 224.679 240.989 223.698 240.594C222.716 240.199 221.873 239.523 221.273 238.651C220.674 237.778 220.345 236.749 220.328 235.691C220.328 234.268 220.892 232.903 221.896 231.895C222.9 230.887 224.263 230.318 225.686 230.312L225.75 230.226ZM48.6428 230.226C49.7 230.239 50.7301 230.563 51.6042 231.158C52.4783 231.753 53.1576 232.592 53.5573 233.571C53.957 234.55 54.0593 235.625 53.8514 236.662C53.6435 237.699 53.1347 238.651 52.3885 239.4C51.6423 240.149 50.6918 240.662 49.656 240.874C48.6201 241.086 47.5447 240.988 46.5642 240.592C45.5838 240.196 44.7417 239.52 44.1434 238.648C43.545 237.776 43.2168 236.748 43.1999 235.691C43.1999 234.264 43.7666 232.896 44.7752 231.887C45.7839 230.879 47.152 230.312 48.5785 230.312L48.6428 230.226ZM235.243 211.733L234.643 197.398C234.3 194.891 232.971 193.776 230.614 194.183C218.594 200.59 207.063 207.874 196.114 215.976C193.778 217.519 194.7 220.498 197.786 219.941L230.207 217.583C231.614 217.386 232.9 216.683 233.827 215.607C234.753 214.53 235.257 213.154 235.243 211.733ZM109.693 43.0691H166.478C167.397 43.0747 168.277 43.4422 168.927 44.0921C169.577 44.7419 169.944 45.6216 169.95 46.5405V55.6905C169.944 56.6095 169.577 57.4892 168.927 58.139C168.277 58.7888 167.397 59.1563 166.478 59.1619H109.693C108.774 59.1563 107.894 58.7888 107.244 58.139C106.594 57.4892 106.227 56.6095 106.221 55.6905V46.5405C106.227 45.6216 106.594 44.7419 107.244 44.0921C107.894 43.4422 108.774 43.0747 109.693 43.0691V43.0691ZM49.9713 70.4977H225.428C226.565 70.4977 227.655 70.9492 228.459 71.7529C229.263 72.5566 229.714 73.6467 229.714 74.7834V167.312C229.714 169.626 227.807 170.933 225.428 171.598C165.236 189.876 110.143 189.126 49.9713 171.598C47.5928 170.955 45.6856 169.669 45.6856 167.312V74.7405C45.6856 73.6039 46.1371 72.5138 46.9409 71.7101C47.7446 70.9063 48.8347 70.4548 49.9713 70.4548V70.4977Z" fill="#EBD23A"/>
<path opacity="0.6" fill-rule="evenodd" clip-rule="evenodd" d="M226.071 249.943H213.086V270.364C213.091 272.281 212.719 274.18 211.991 275.952C211.263 277.725 210.193 279.337 208.842 280.696C207.491 282.055 205.885 283.134 204.117 283.873C202.349 284.612 200.452 284.995 198.536 285H189.964C186.111 284.983 182.42 283.445 179.695 280.72C176.97 277.995 175.431 274.304 175.414 270.45V250.029H87.4714V270.45C87.4544 274.315 85.9072 278.016 83.1683 280.743C80.4295 283.469 76.722 285 72.8571 285H64.2857C60.434 284.983 56.7452 283.444 54.0236 280.719C51.302 277.993 49.7684 274.302 49.7571 270.45V250.029H38.7857C31.2 249.9 27.5571 245.743 27 238.693V71.8288C22.7143 72.2574 20.6786 73.2431 19.65 75.4288V123.107H10.4357C7.66973 123.102 5.01865 122 3.0628 120.045C1.10695 118.089 0.00566222 115.438 0 112.672L0 84.5145C0.00964507 81.8012 1.07137 79.1975 2.96178 77.2511C4.85219 75.3048 7.42387 74.1676 10.1357 74.0788C11.0143 65.8931 14.55 63.5145 27.2786 62.9145C29.0929 48.6288 38.8286 38.0645 56.4857 31.2217C94.4786 24.2574 166.564 23.5717 206.829 31.2217C224.571 38.0574 234.257 48.6217 236.014 62.9145C248.871 63.5574 252.321 65.9574 253.157 74.0788C255.869 74.1676 258.441 75.3048 260.331 77.2511C262.222 79.1975 263.283 81.8012 263.293 84.5145V112.672C263.287 115.438 262.186 118.089 260.23 120.045C258.274 122 255.623 123.102 252.857 123.107H243.643V75.3002C242.614 73.1574 240.493 72.2145 236.293 71.8074V236.979C236.293 246.536 233.207 249.836 226.05 249.836L226.071 249.943ZM34.5643 207.579L35.1643 193.243C35.5071 190.736 36.8357 189.622 39.2143 190.029C51.2246 196.44 62.7484 203.724 73.6929 211.822C76.0286 213.365 75.1072 216.343 72.0214 215.786L39.6 213.429C38.1954 213.227 36.9115 212.523 35.9857 211.448C35.06 210.372 34.555 208.998 34.5643 207.579V207.579ZM111.429 225.964H152.786C153.32 225.964 153.832 226.177 154.21 226.554C154.588 226.932 154.8 227.445 154.8 227.979V234.922C154.8 235.456 154.588 235.968 154.21 236.346C153.832 236.724 153.32 236.936 152.786 236.936H111.429C110.894 236.936 110.382 236.724 110.004 236.346C109.627 235.968 109.414 235.456 109.414 234.922V227.979C109.414 227.445 109.627 226.932 110.004 226.554C110.382 226.177 110.894 225.964 111.429 225.964V225.964ZM219.321 225.964C220.38 225.973 221.412 226.294 222.289 226.886C223.166 227.478 223.848 228.316 224.251 229.295C224.654 230.273 224.76 231.349 224.554 232.387C224.349 233.425 223.841 234.38 223.096 235.131C222.351 235.882 221.4 236.397 220.364 236.611C219.327 236.824 218.251 236.728 217.269 236.332C216.287 235.937 215.444 235.261 214.845 234.389C214.246 233.517 213.917 232.487 213.9 231.429C213.9 230.006 214.464 228.641 215.468 227.633C216.472 226.625 217.834 226.056 219.257 226.05L219.321 225.964ZM42.2143 225.964C43.2716 225.977 44.3016 226.301 45.1757 226.896C46.0498 227.491 46.7291 228.331 47.1288 229.31C47.5285 230.288 47.6308 231.363 47.4229 232.4C47.215 233.437 46.7062 234.389 45.96 235.138C45.2138 235.888 44.2634 236.4 43.2275 236.612C42.1916 236.824 41.1162 236.726 40.1358 236.33C39.1553 235.934 38.3133 235.258 37.7149 234.387C37.1165 233.515 36.7884 232.486 36.7714 231.429C36.7714 230.002 37.3381 228.634 38.3468 227.626C39.3555 226.617 40.7235 226.05 42.15 226.05L42.2143 225.964ZM228.814 207.472L228.214 193.136C227.871 190.629 226.543 189.514 224.186 189.922C212.166 196.328 200.634 203.612 189.686 211.715C187.35 213.257 188.271 216.236 191.357 215.679L223.779 213.322C225.185 213.124 226.472 212.421 227.398 211.345C228.325 210.269 228.828 208.892 228.814 207.472ZM103.264 38.8074H160.05C160.969 38.813 161.849 39.1805 162.498 39.8303C163.148 40.4801 163.516 41.3598 163.521 42.2788V51.4288C163.516 52.3477 163.148 53.2274 162.498 53.8773C161.849 54.5271 160.969 54.8946 160.05 54.9002H103.264C102.345 54.8946 101.466 54.5271 100.816 53.8773C100.166 53.2274 99.7985 52.3477 99.7929 51.4288V42.2788C99.7985 41.3598 100.166 40.4801 100.816 39.8303C101.466 39.1805 102.345 38.813 103.264 38.8074V38.8074ZM43.5429 66.2359H219C220.137 66.2359 221.227 66.6875 222.03 67.4912C222.834 68.2949 223.286 69.385 223.286 70.5217V163.05C223.286 165.364 221.379 166.672 219 167.336C158.807 185.614 103.714 184.864 43.5429 167.336C41.1643 166.693 39.2571 165.407 39.2571 163.05V70.4788C39.2571 69.3422 39.7087 68.2521 40.5124 67.4483C41.3161 66.6446 42.4062 66.1931 43.5429 66.1931V66.2359Z" fill="#EBD23A"/>
</svg>
