<svg width="300" height="198" viewBox="0 0 300 198" fill="none" xmlns="http://www.w3.org/2000/svg">
<path d="M50.3494 88.1057C44.6641 88.1057 40.0186 83.3685 40.0186 77.5227C40.0186 71.6769 44.6641 66.9397 50.3494 66.9397C56.0347 66.9397 60.6797 71.6768 60.6797 77.5227C60.6797 83.3685 56.0342 88.1057 50.3494 88.1057ZM50.3494 71.0985C46.8705 71.0985 44.0609 73.9904 44.0609 77.5221C44.0609 81.0538 46.871 83.9457 50.3494 83.9457C53.8284 83.9457 56.6379 81.0532 56.6379 77.5221C56.6379 73.991 53.8284 71.0985 50.3494 71.0985Z" fill="#4CA7D1" stroke="#4CA7D1"/>
<path d="M254.537 88.1057C248.852 88.1057 244.206 83.3685 244.206 77.5227C244.206 71.6769 248.852 66.9397 254.537 66.9397C260.222 66.9397 264.868 71.6769 264.868 77.5227C264.868 83.3685 260.222 88.1057 254.537 88.1057ZM254.537 71.0985C251.058 71.0985 248.248 73.9904 248.248 77.5221C248.248 81.0539 251.058 83.9457 254.537 83.9457C258.016 83.9457 260.826 81.0533 260.826 77.5221C260.826 73.991 258.016 71.0985 254.537 71.0985Z" fill="#4CA7D1" stroke="#4CA7D1"/>
<mask id="path-3-inside-1_206_11135" fill="white">
<path d="M278.502 77.5222C278.502 63.9993 267.751 52.9977 254.537 52.9977C252.476 52.9977 250.475 53.2655 248.566 53.7688C246.914 36.7204 232.839 23.3546 215.752 23.3546H89.1348C72.0476 23.3546 57.9559 36.7164 56.3044 53.7648C54.3997 53.2643 52.4049 52.9977 50.3501 52.9977C37.135 52.9983 26.3843 63.9993 26.3843 77.5222C26.3843 89.0924 34.3071 99.0065 45.1481 101.46V141.791C45.1475 141.811 45.1425 141.829 45.1425 141.85C45.1425 147.501 48.5233 152.359 53.323 154.42C52.5393 155.725 52.0788 157.253 52.0788 158.894C52.0788 162.262 54.6333 164.893 56.2137 166.199V172.066C56.2137 173.49 57.3425 174.645 58.7345 174.645H69.497C70.8891 174.645 72.0179 173.49 72.0179 172.066V166.199C73.5983 164.893 76.1528 162.262 76.1528 158.894C76.1528 157.678 75.9012 156.523 75.4536 155.475H229.433C228.986 156.523 228.734 157.678 228.734 158.894C228.734 162.262 231.289 164.893 232.869 166.199V172.066C232.869 173.49 233.998 174.645 235.39 174.645H246.153C247.545 174.645 248.674 173.49 248.674 172.066V166.199C250.254 164.893 252.809 162.262 252.809 158.894C252.809 157.253 252.349 155.724 251.564 154.42C256.364 152.359 259.744 147.501 259.744 141.85C259.744 141.831 259.739 141.813 259.739 141.794V101.46C270.579 99.0071 278.502 89.0924 278.502 77.5222ZM89.1348 28.5146H215.752C230.693 28.5146 242.932 40.5704 243.67 55.6755C235.905 59.7371 230.572 68.0019 230.572 77.5227C230.572 77.548 230.573 77.5738 230.573 77.5967C230.573 77.6185 230.572 77.6408 230.572 77.6626V102.021C228.387 101.094 225.469 100.296 221.737 99.5953C213.976 98.1375 203.687 97.3349 192.768 97.3349C181.849 97.3349 171.562 98.1375 163.799 99.5953C158.38 100.613 154.658 101.832 152.443 103.359C150.228 101.832 146.506 100.613 141.087 99.5953C133.326 98.1375 123.038 97.3349 112.119 97.3349C101.2 97.3349 90.9117 98.1375 83.1502 99.5953C79.4181 100.296 76.5001 101.094 74.3153 102.021V77.6626C74.3153 77.6408 74.3153 77.6191 74.3142 77.5978C74.3147 77.5732 74.3153 77.548 74.3153 77.5227C74.3153 68.0019 68.9828 59.7371 61.2168 55.6755C61.9546 40.5704 74.1943 28.5146 89.1348 28.5146ZM230.572 107.85V119.513C230.572 121.003 229.388 122.215 227.932 122.215H154.964V107.846C156.84 105.951 169.654 102.494 192.767 102.494C215.899 102.494 228.711 105.955 230.572 107.85ZM149.922 107.85V122.215H76.9544C75.4984 122.215 74.3142 121.003 74.3142 119.513V107.85C76.1752 105.955 88.9869 102.494 112.118 102.494C135.249 102.494 148.061 105.955 149.922 107.85ZM71.111 158.894C71.111 160.165 69.3374 161.928 68.1459 162.714C67.4176 163.188 66.9762 164.009 66.9762 164.892V169.486H61.2554V164.892C61.2554 164.016 60.8129 163.194 60.093 162.719C58.8942 161.928 57.1206 160.165 57.1206 158.893C57.1206 157.008 58.6197 155.474 60.4622 155.474H67.77C69.6124 155.475 71.111 157.008 71.111 158.894ZM244.802 162.714C244.073 163.188 243.632 164.009 243.632 164.892V169.486H237.91V164.892C237.91 164.016 237.468 163.194 236.748 162.719C235.549 161.928 233.775 160.165 233.775 158.893C233.775 157.008 235.274 155.474 237.117 155.474H244.426C246.268 155.474 247.766 157.008 247.766 158.893C247.766 160.165 245.993 161.928 244.802 162.714ZM257.917 96.5696C257.917 96.569 257.916 96.5679 257.916 96.5673C257.653 96.616 255.386 96.8866 254.537 96.8866C251.422 96.8866 248.456 96.1385 245.723 94.664C244.493 93.9991 242.967 94.4829 242.318 95.7429C241.669 97.003 242.141 98.5634 243.372 99.2278C246.789 101.071 250.65 102.046 254.537 102.046C254.591 102.046 254.643 102.043 254.697 102.043V141.85C254.697 141.862 254.7 141.874 254.701 141.886C254.681 146.537 250.979 150.315 246.43 150.315H58.4561C53.9073 150.315 50.2061 146.539 50.1854 141.888C50.1854 141.875 50.1893 141.863 50.1893 141.85V102.043C50.2425 102.044 50.2957 102.047 50.3495 102.047C54.2373 102.047 58.0976 101.072 61.5137 99.2284C62.745 98.5634 63.2172 97.0035 62.5674 95.7429C61.9181 94.4829 60.3938 93.999 59.162 94.6646C56.468 96.119 53.4205 96.8872 50.3495 96.8872C49.2437 96.8872 48.1468 96.7783 47.0679 96.5845C47.0679 96.5862 47.0679 96.5879 47.0679 96.5896C38.0879 94.9856 31.4261 86.9507 31.4261 77.5222C31.4261 66.8439 39.9147 58.1572 50.3495 58.1572C60.7837 58.1572 69.2724 66.8439 69.2724 77.4975L69.269 77.6466C69.269 77.697 69.2696 77.748 69.2724 77.7985V119.512C69.2724 123.847 72.7182 127.374 76.9544 127.374H227.932C232.168 127.374 235.614 123.847 235.614 119.512V77.7945C235.616 77.7503 235.617 77.7062 235.617 77.662C235.617 77.607 235.616 77.5531 235.614 77.5222C235.614 66.8439 244.103 58.1572 254.537 58.1572C264.971 58.1572 273.46 66.8439 273.46 77.5222C273.46 86.9157 266.847 94.9243 257.917 96.5696Z"/>
</mask>
<path d="M278.502 77.5222C278.502 63.9993 267.751 52.9977 254.537 52.9977C252.476 52.9977 250.475 53.2655 248.566 53.7688C246.914 36.7204 232.839 23.3546 215.752 23.3546H89.1348C72.0476 23.3546 57.9559 36.7164 56.3044 53.7648C54.3997 53.2643 52.4049 52.9977 50.3501 52.9977C37.135 52.9983 26.3843 63.9993 26.3843 77.5222C26.3843 89.0924 34.3071 99.0065 45.1481 101.46V141.791C45.1475 141.811 45.1425 141.829 45.1425 141.85C45.1425 147.501 48.5233 152.359 53.323 154.42C52.5393 155.725 52.0788 157.253 52.0788 158.894C52.0788 162.262 54.6333 164.893 56.2137 166.199V172.066C56.2137 173.49 57.3425 174.645 58.7345 174.645H69.497C70.8891 174.645 72.0179 173.49 72.0179 172.066V166.199C73.5983 164.893 76.1528 162.262 76.1528 158.894C76.1528 157.678 75.9012 156.523 75.4536 155.475H229.433C228.986 156.523 228.734 157.678 228.734 158.894C228.734 162.262 231.289 164.893 232.869 166.199V172.066C232.869 173.49 233.998 174.645 235.39 174.645H246.153C247.545 174.645 248.674 173.49 248.674 172.066V166.199C250.254 164.893 252.809 162.262 252.809 158.894C252.809 157.253 252.349 155.724 251.564 154.42C256.364 152.359 259.744 147.501 259.744 141.85C259.744 141.831 259.739 141.813 259.739 141.794V101.46C270.579 99.0071 278.502 89.0924 278.502 77.5222ZM89.1348 28.5146H215.752C230.693 28.5146 242.932 40.5704 243.67 55.6755C235.905 59.7371 230.572 68.0019 230.572 77.5227C230.572 77.548 230.573 77.5738 230.573 77.5967C230.573 77.6185 230.572 77.6408 230.572 77.6626V102.021C228.387 101.094 225.469 100.296 221.737 99.5953C213.976 98.1375 203.687 97.3349 192.768 97.3349C181.849 97.3349 171.562 98.1375 163.799 99.5953C158.38 100.613 154.658 101.832 152.443 103.359C150.228 101.832 146.506 100.613 141.087 99.5953C133.326 98.1375 123.038 97.3349 112.119 97.3349C101.2 97.3349 90.9117 98.1375 83.1502 99.5953C79.4181 100.296 76.5001 101.094 74.3153 102.021V77.6626C74.3153 77.6408 74.3153 77.6191 74.3142 77.5978C74.3147 77.5732 74.3153 77.548 74.3153 77.5227C74.3153 68.0019 68.9828 59.7371 61.2168 55.6755C61.9546 40.5704 74.1943 28.5146 89.1348 28.5146ZM230.572 107.85V119.513C230.572 121.003 229.388 122.215 227.932 122.215H154.964V107.846C156.84 105.951 169.654 102.494 192.767 102.494C215.899 102.494 228.711 105.955 230.572 107.85ZM149.922 107.85V122.215H76.9544C75.4984 122.215 74.3142 121.003 74.3142 119.513V107.85C76.1752 105.955 88.9869 102.494 112.118 102.494C135.249 102.494 148.061 105.955 149.922 107.85ZM71.111 158.894C71.111 160.165 69.3374 161.928 68.1459 162.714C67.4176 163.188 66.9762 164.009 66.9762 164.892V169.486H61.2554V164.892C61.2554 164.016 60.8129 163.194 60.093 162.719C58.8942 161.928 57.1206 160.165 57.1206 158.893C57.1206 157.008 58.6197 155.474 60.4622 155.474H67.77C69.6124 155.475 71.111 157.008 71.111 158.894ZM244.802 162.714C244.073 163.188 243.632 164.009 243.632 164.892V169.486H237.91V164.892C237.91 164.016 237.468 163.194 236.748 162.719C235.549 161.928 233.775 160.165 233.775 158.893C233.775 157.008 235.274 155.474 237.117 155.474H244.426C246.268 155.474 247.766 157.008 247.766 158.893C247.766 160.165 245.993 161.928 244.802 162.714ZM257.917 96.5696C257.917 96.569 257.916 96.5679 257.916 96.5673C257.653 96.616 255.386 96.8866 254.537 96.8866C251.422 96.8866 248.456 96.1385 245.723 94.664C244.493 93.9991 242.967 94.4829 242.318 95.7429C241.669 97.003 242.141 98.5634 243.372 99.2278C246.789 101.071 250.65 102.046 254.537 102.046C254.591 102.046 254.643 102.043 254.697 102.043V141.85C254.697 141.862 254.7 141.874 254.701 141.886C254.681 146.537 250.979 150.315 246.43 150.315H58.4561C53.9073 150.315 50.2061 146.539 50.1854 141.888C50.1854 141.875 50.1893 141.863 50.1893 141.85V102.043C50.2425 102.044 50.2957 102.047 50.3495 102.047C54.2373 102.047 58.0976 101.072 61.5137 99.2284C62.745 98.5634 63.2172 97.0035 62.5674 95.7429C61.9181 94.4829 60.3938 93.999 59.162 94.6646C56.468 96.119 53.4205 96.8872 50.3495 96.8872C49.2437 96.8872 48.1468 96.7783 47.0679 96.5845C47.0679 96.5862 47.0679 96.5879 47.0679 96.5896C38.0879 94.9856 31.4261 86.9507 31.4261 77.5222C31.4261 66.8439 39.9147 58.1572 50.3495 58.1572C60.7837 58.1572 69.2724 66.8439 69.2724 77.4975L69.269 77.6466C69.269 77.697 69.2696 77.748 69.2724 77.7985V119.512C69.2724 123.847 72.7182 127.374 76.9544 127.374H227.932C232.168 127.374 235.614 123.847 235.614 119.512V77.7945C235.616 77.7503 235.617 77.7062 235.617 77.662C235.617 77.607 235.616 77.5531 235.614 77.5222C235.614 66.8439 244.103 58.1572 254.537 58.1572C264.971 58.1572 273.46 66.8439 273.46 77.5222C273.46 86.9157 266.847 94.9243 257.917 96.5696Z" fill="#4CA7D1" stroke="#4CA7D1" stroke-width="2" mask="url(#path-3-inside-1_206_11135)"/>
<path d="M104.624 48.915L104.267 48.5491L102.404 46.6431C102.404 46.643 102.404 46.643 102.404 46.643C101.615 45.8364 100.343 45.8365 99.554 46.6431C98.7596 47.4567 98.7598 48.7795 99.554 49.5923C99.554 49.5923 99.554 49.5923 99.5541 49.5923L101.417 51.4978L101.758 51.8473L101.417 52.1968L99.5541 54.1029L99.1996 53.7565L99.5541 54.1029C98.7597 54.9158 98.7596 56.2391 99.5539 57.0521C99.9499 57.4569 100.465 57.6573 100.979 57.6573C101.493 57.6573 102.008 57.4572 102.404 57.0523L104.267 55.1462L104.624 54.7802L104.982 55.1462L106.844 57.0521C107.24 57.4569 107.755 57.6573 108.269 57.6573C108.784 57.6573 109.299 57.4573 109.694 57.0523C110.489 56.2387 110.489 54.9158 109.694 54.1029L107.832 52.1968L107.49 51.8473L107.832 51.4978L109.694 49.5923L109.694 49.5922C110.489 48.7794 110.489 47.4566 109.694 46.6431L104.624 48.915ZM104.624 48.915L104.982 48.5491M104.624 48.915L104.982 48.5491M104.982 48.5491L106.844 46.6431M104.982 48.5491L106.844 46.6431M106.844 46.6431C107.633 45.8365 108.906 45.8369 109.694 46.643L106.844 46.6431Z" fill="#4CA7D1" stroke="#4CA7D1"/>
<path d="M104.624 77.279L104.267 76.9131L102.404 75.0071C102.404 75.007 102.404 75.007 102.404 75.007C101.615 74.2004 100.343 74.2005 99.554 75.0071C98.7596 75.8207 98.7598 77.1435 99.554 77.9563C99.554 77.9563 99.554 77.9563 99.5541 77.9563L101.417 79.8618L101.758 80.2113L101.417 80.5608L99.5541 82.4669C98.7597 83.2798 98.7596 84.6027 99.5541 85.4163L104.624 77.279ZM104.624 77.279L104.982 76.9131M104.624 77.279L104.982 76.9131M104.982 76.9131L106.844 75.0071C107.633 74.2004 108.906 74.2005 109.694 75.007C110.489 75.8206 110.489 77.1434 109.694 77.9562L109.694 77.9563L107.832 79.8618L107.49 80.2113L107.832 80.5608L109.694 82.4669C110.489 83.2798 110.489 84.6027 109.694 85.4163C109.299 85.8213 108.784 86.0213 108.269 86.0213C107.755 86.0213 107.24 85.8213 106.844 85.4163L104.982 83.5102L104.624 83.1442M104.982 76.9131L104.624 83.1442M104.624 83.1442L104.267 83.5102M104.624 83.1442L104.267 83.5102M104.267 83.5102L102.404 85.4163C102.008 85.8212 101.493 86.0213 100.979 86.0213C100.465 86.0213 99.9499 85.8213 99.5542 85.4164L104.267 83.5102Z" fill="#4CA7D1" stroke="#4CA7D1"/>
<path d="M203.47 51.4984L203.128 51.8479L203.47 52.1973L205.333 54.1034L205.333 54.1035C206.128 54.9164 206.128 56.2392 205.333 57.0528L205.333 57.053C204.938 57.4576 204.423 57.6578 203.908 57.6578C203.394 57.6578 202.878 57.4572 202.483 57.0528L200.62 55.1466L200.263 54.7807L199.905 55.1466L198.043 57.0528L198.042 57.053C197.647 57.4577 197.132 57.6578 196.618 57.6578C196.103 57.6578 195.588 57.4572 195.193 57.0528L195.193 57.0527C194.398 56.2397 194.398 54.9164 195.193 54.1035L195.193 54.1033L197.055 52.1972L197.396 51.8478L197.055 51.4984L195.193 49.5928L195.193 49.5927C194.398 48.7799 194.398 47.457 195.193 46.6435L195.193 46.6432C195.98 45.8371 197.254 45.8369 198.042 46.6433L198.042 46.6435L199.905 48.5496L200.262 48.9155L200.62 48.5496L202.483 46.6435L202.483 46.6433C203.27 45.837 204.544 45.837 205.332 46.6433L205.332 46.6435C206.127 47.457 206.127 48.7799 205.332 49.5927L205.332 49.5928L203.47 51.4984Z" fill="#4CA7D1" stroke="#4CA7D1"/>
<path d="M205.332 75.0069L205.332 75.007C206.127 75.8205 206.127 77.1435 205.333 77.9563C205.333 77.9564 205.333 77.9564 205.333 77.9565L203.471 79.8619L203.129 80.2113L203.471 80.5607L205.333 82.4669L205.333 82.467C206.128 83.2799 206.128 84.6027 205.333 85.4163L205.333 85.4165C204.938 85.8212 204.423 86.0213 203.908 86.0213C203.393 86.0213 202.878 85.8212 202.483 85.4165L202.483 85.4163L200.62 83.5102L200.263 83.1442L199.905 83.5102L198.043 85.4163L198.042 85.4165C197.647 85.8212 197.132 86.0213 196.618 86.0213C196.103 86.0213 195.588 85.8212 195.193 85.4165L195.193 85.4163C194.398 84.6027 194.398 83.2799 195.193 82.467L195.193 82.4669L197.055 80.5607L197.396 80.2113L197.055 79.8619L195.193 77.9563L195.193 77.9562C194.398 77.1434 194.398 75.8206 195.193 75.007L195.193 75.0068C195.98 74.2006 197.254 74.2005 198.042 75.0069L198.042 75.007L199.905 76.9131L200.262 77.279L200.62 76.9131L202.483 75.007L202.483 75.0069C203.27 74.2005 204.544 74.2005 205.332 75.0069Z" fill="#4CA7D1" stroke="#4CA7D1"/>
<path d="M155.309 51.8478L155.65 51.4983L157.513 49.5922C158.307 48.7793 158.307 47.4565 157.512 46.6429L155.309 51.8478ZM155.309 51.8478L155.65 52.1973M155.309 51.8478L155.65 52.1973M155.65 52.1973L157.513 54.1032C157.513 54.1033 157.513 54.1033 157.513 54.1034C158.308 54.917 158.308 56.2398 157.513 57.0526L157.513 57.0527C157.117 57.4576 156.602 57.6577 156.088 57.6577C155.573 57.6577 155.058 57.4576 154.662 57.0527C154.662 57.0527 154.662 57.0527 154.662 57.0527L152.801 55.1472L152.443 54.7812M155.65 52.1973L152.443 54.7812M152.443 48.9144L152.086 48.5484L150.223 46.6428L150.559 46.3151L150.223 46.6428C149.435 45.8362 148.162 45.8359 147.374 46.6427L147.373 46.6429C146.579 47.4558 146.579 48.7786 147.374 49.5922L149.236 51.4983L149.578 51.8478L149.236 52.1972L147.374 54.1033C146.579 54.9162 146.579 56.2391 147.374 57.0527L152.443 48.9144ZM152.443 48.9144L152.801 48.5483M152.443 48.9144L152.801 48.5483M152.801 48.5483L154.662 46.6429C154.662 46.6429 154.662 46.6428 154.662 46.6428M152.801 48.5483L154.662 46.6428M152.443 54.7812L152.086 55.1472L150.223 57.0527L150.223 57.0529M152.443 54.7812L150.223 57.0529M150.223 57.0529C149.828 57.4576 149.313 57.6577 148.799 57.6577C148.284 57.6577 147.769 57.4572 147.374 57.0528L150.223 57.0529ZM154.662 46.6428C155.451 45.8363 156.724 45.8363 157.512 46.6428L154.662 46.6428Z" fill="#4CA7D1" stroke="#4CA7D1"/>
<path d="M152.443 77.2792L152.086 76.9131L150.223 75.0076L150.223 75.0075C149.435 74.2007 148.162 74.201 147.373 75.0071C146.579 75.82 146.579 77.1428 147.374 77.9564L149.236 79.8625L149.578 80.212L149.236 80.5614L147.374 82.4675C146.579 83.2804 146.579 84.6034 147.374 85.417L147.374 85.4171C147.769 85.8218 148.284 86.0219 148.799 86.0219C149.313 86.0219 149.828 85.8218 150.223 85.4171L150.223 85.4169L152.086 83.5114L152.443 83.1454L152.801 83.5114L154.662 85.4169C155.058 85.8218 155.573 86.0219 156.088 86.0219C156.602 86.0219 157.117 85.8219 157.513 85.4169L157.513 85.4168C158.308 84.604 158.308 83.2811 157.513 82.4675C157.513 82.4675 157.513 82.4675 157.513 82.4674L155.651 80.5614L155.309 80.212L155.651 79.8625L157.513 77.9566L152.443 77.2792ZM152.443 77.2792L152.801 76.9131M152.443 77.2792L152.801 76.9131M152.801 76.9131L154.662 75.0076M152.801 76.9131L154.662 75.0076M154.662 75.0076C155.451 74.2005 156.724 74.2005 157.512 75.0071M154.662 75.0076L157.512 75.0071M157.512 75.0071C158.307 75.82 158.307 77.1428 157.513 77.9564L157.512 75.0071Z" fill="#4CA7D1" stroke="#4CA7D1"/>
<path d="M56.2127 89.2511C50.2404 89.2511 45.3818 84.2791 45.3818 78.1681C45.3818 72.057 50.2404 67.0851 56.2127 67.0851C62.1849 67.0851 67.043 72.057 67.043 78.1681C67.043 84.2791 62.1844 89.2511 56.2127 89.2511ZM56.2127 72.2439C53.0207 72.2439 50.4242 74.901 50.4242 78.1675C50.4242 81.434 53.0212 84.0911 56.2127 84.0911C59.4047 84.0911 62.0012 81.4334 62.0012 78.1675C62.0012 74.9016 59.4047 72.2439 56.2127 72.2439Z" fill="#4CA7D1" fill-opacity="0.6"/>
<path d="M260.4 89.2511C254.428 89.2511 249.569 84.2791 249.569 78.1681C249.569 72.057 254.428 67.0851 260.4 67.0851C266.372 67.0851 271.231 72.057 271.231 78.1681C271.231 84.2791 266.372 89.2511 260.4 89.2511ZM260.4 72.2439C257.208 72.2439 254.611 74.901 254.611 78.1675C254.611 81.434 257.208 84.0911 260.4 84.0911C263.592 84.0911 266.189 81.4334 266.189 78.1675C266.189 74.9016 263.592 72.2439 260.4 72.2439Z" fill="#4CA7D1" fill-opacity="0.6"/>
<path d="M284.365 78.1676C284.365 64.6447 273.615 53.6431 260.4 53.6431C258.339 53.6431 256.338 53.9109 254.429 54.4142C252.778 37.3658 238.702 24 221.615 24H94.998C77.9109 24 63.8191 37.3617 62.1677 54.4102C60.263 53.9097 58.2682 53.6431 56.2134 53.6431C42.9983 53.6437 32.2476 64.6447 32.2476 78.1676C32.2476 89.7378 40.1704 99.6519 51.0114 102.105V142.437C51.0108 142.457 51.0058 142.475 51.0058 142.495C51.0058 148.146 54.3865 153.004 59.1863 155.065C58.4026 156.37 57.9421 157.898 57.9421 159.539C57.9421 162.907 60.4966 165.539 62.0769 166.845V172.711C62.0769 174.136 63.2057 175.291 64.5978 175.291H75.3603C76.7524 175.291 77.8812 174.136 77.8812 172.711V166.845C79.4615 165.539 82.016 162.907 82.016 159.539C82.016 158.324 81.7645 157.169 81.3169 156.12H235.297C234.849 157.169 234.597 158.324 234.597 159.539C234.597 162.907 237.152 165.539 238.732 166.845V172.711C238.732 174.136 239.861 175.291 241.253 175.291H252.016C253.408 175.291 254.537 174.136 254.537 172.711V166.845C256.117 165.539 258.672 162.907 258.672 159.539C258.672 157.898 258.212 156.369 257.428 155.065C262.228 153.004 265.608 148.146 265.608 142.495C265.608 142.476 265.603 142.458 265.602 142.44V102.106C276.443 99.6525 284.365 89.7378 284.365 78.1676ZM94.998 29.16H221.615C236.556 29.16 248.795 41.2158 249.533 56.3209C241.768 60.3825 236.435 68.6473 236.435 78.1681C236.435 78.1934 236.436 78.2191 236.436 78.2421C236.436 78.2639 236.435 78.2862 236.435 78.308V102.666C234.251 101.74 231.333 100.942 227.601 100.241C219.839 98.7829 209.55 97.9803 198.631 97.9803C187.712 97.9803 177.425 98.7829 169.662 100.241C164.243 101.258 160.521 102.478 158.306 104.004C156.091 102.478 152.37 101.258 146.951 100.241C139.189 98.7829 128.901 97.9803 117.982 97.9803C107.063 97.9803 96.775 98.7829 89.0135 100.241C85.2814 100.942 82.3634 101.74 80.1786 102.666V78.308C80.1786 78.2862 80.1786 78.2644 80.1775 78.2432C80.178 78.2186 80.1786 78.1934 80.1786 78.1681C80.1786 68.6473 74.8461 60.3825 67.0801 56.3209C67.8178 41.2158 80.0576 29.16 94.998 29.16ZM236.435 108.495V120.158C236.435 121.648 235.251 122.86 233.795 122.86H160.827V108.492C162.703 106.596 175.517 103.14 198.631 103.14C221.762 103.14 234.574 106.6 236.435 108.495ZM155.785 108.495V122.86H82.8177C81.3617 122.86 80.1775 121.648 80.1775 120.158V108.495C82.0384 106.601 94.8502 103.14 117.981 103.14C141.112 103.14 153.924 106.6 155.785 108.495ZM76.9743 159.539C76.9743 160.81 75.2007 162.574 74.0091 163.36C73.2809 163.833 72.8394 164.655 72.8394 165.538V170.131H67.1187V165.538C67.1187 164.661 66.6762 163.84 65.9563 163.364C64.7575 162.573 62.9839 160.81 62.9839 159.538C62.9839 157.654 64.483 156.119 66.3255 156.119H73.6332C75.4757 156.12 76.9743 157.653 76.9743 159.539ZM250.665 163.36C249.936 163.833 249.495 164.655 249.495 165.538V170.131H243.774V165.538C243.774 164.661 243.331 163.84 242.611 163.364C241.412 162.573 239.639 160.81 239.639 159.538C239.639 157.654 241.138 156.119 242.98 156.119H250.289C252.131 156.119 253.63 157.653 253.63 159.538C253.63 160.81 251.856 162.573 250.665 163.36ZM263.78 97.215C263.78 97.2144 263.779 97.2132 263.779 97.2127C263.516 97.2614 261.249 97.532 260.4 97.532C257.285 97.532 254.32 96.7839 251.587 95.3094C250.356 94.6444 248.83 95.1283 248.181 96.3883C247.532 97.6484 248.004 99.2088 249.235 99.8732C252.653 101.717 256.513 102.691 260.401 102.691C260.455 102.691 260.507 102.688 260.56 102.688V142.495C260.56 142.508 260.564 142.52 260.564 142.532C260.544 147.183 256.842 150.961 252.293 150.961H64.3194C59.7706 150.961 56.0694 147.184 56.0487 142.534C56.0487 142.52 56.0526 142.508 56.0526 142.495V102.689C56.1058 102.689 56.159 102.692 56.2128 102.692C60.1006 102.692 63.9609 101.717 67.377 99.8738C68.6083 99.2088 69.0805 97.6489 68.4307 96.3883C67.7814 95.1283 66.2571 94.6444 65.0253 95.31C62.3313 96.7644 59.2838 97.5326 56.2128 97.5326C55.107 97.5326 54.0101 97.4236 52.9312 97.2299C52.9312 97.2316 52.9312 97.2333 52.9312 97.235C43.9512 95.631 37.2893 87.5961 37.2893 78.1676C37.2893 67.4893 45.778 58.8025 56.2128 58.8025C66.647 58.8025 75.1357 67.4893 75.1357 78.1429L75.1323 78.2919C75.1323 78.3424 75.1329 78.3934 75.1357 78.4439V120.158C75.1357 124.493 78.5815 128.019 82.8177 128.019H233.795C238.031 128.019 241.477 124.493 241.477 120.158V78.4399C241.48 78.3957 241.481 78.3516 241.481 78.3074C241.481 78.2524 241.479 78.1985 241.477 78.1676C241.477 67.4893 249.966 58.8025 260.4 58.8025C270.834 58.8025 279.323 67.4893 279.323 78.1676C279.323 87.5611 272.71 95.5697 263.78 97.215Z" fill="#4CA7D1" fill-opacity="0.6"/>
<path d="M115.915 46.9389C114.931 45.9322 113.335 45.9317 112.35 46.9389L110.487 48.845L108.625 46.9389C107.64 45.9317 106.045 45.9317 105.06 46.9389C104.075 47.9467 104.075 49.5799 105.06 50.5872L106.922 52.4927L105.06 54.3988C104.075 55.4061 104.075 57.0399 105.06 58.0471C105.552 58.5504 106.197 58.8027 106.842 58.8027C107.487 58.8027 108.132 58.551 108.625 58.0471L110.487 56.141L112.35 58.0471C112.843 58.5504 113.487 58.8027 114.133 58.8027C114.778 58.8027 115.423 58.551 115.915 58.0471C116.9 57.0393 116.9 55.4061 115.915 54.3988L114.053 52.4927L115.915 50.5872C116.9 49.5799 116.9 47.9467 115.915 46.9389Z" fill="#4CA7D1" fill-opacity="0.6"/>
<path d="M115.915 75.3029C114.931 74.2957 113.335 74.2957 112.35 75.3029L110.487 77.209L108.625 75.3029C107.64 74.2957 106.045 74.2957 105.06 75.3029C104.075 76.3107 104.075 77.944 105.06 78.9512L106.922 80.8567L105.06 82.7629C104.075 83.7701 104.075 85.4033 105.06 86.4111C105.552 86.915 106.197 87.1667 106.842 87.1667C107.487 87.1667 108.132 86.915 108.625 86.4111L110.487 84.505L112.35 86.4111C112.843 86.915 113.487 87.1667 114.133 87.1667C114.778 87.1667 115.423 86.915 115.915 86.4111C116.9 85.4033 116.9 83.7701 115.915 82.7629L114.053 80.8567L115.915 78.9512C116.9 77.944 116.9 76.3107 115.915 75.3029Z" fill="#4CA7D1" fill-opacity="0.6"/>
<path d="M209.691 52.4931L211.553 50.5875C212.538 49.5803 212.538 47.9471 211.553 46.9393C210.569 45.932 208.972 45.932 207.988 46.9393L206.126 48.8454L204.263 46.9393C203.279 45.932 201.681 45.932 200.698 46.9393C199.714 47.9471 199.714 49.5803 200.698 50.5875L202.56 52.4931L200.698 54.3992C199.714 55.4064 199.714 57.0402 200.698 58.0475C201.19 58.5508 201.836 58.8031 202.481 58.8031C203.126 58.8031 203.772 58.5514 204.263 58.0475L206.126 56.1414L207.989 58.0475C208.481 58.5508 209.126 58.8031 209.771 58.8031C210.417 58.8031 211.062 58.5514 211.554 58.0475C212.539 57.0397 212.539 55.4064 211.554 54.3992L209.691 52.4931Z" fill="#4CA7D1" fill-opacity="0.6"/>
<path d="M211.553 75.3029C210.569 74.2957 208.972 74.2957 207.988 75.3029L206.126 77.209L204.263 75.3029C203.279 74.2957 201.681 74.2957 200.698 75.3029C199.714 76.3107 199.714 77.944 200.698 78.9512L202.56 80.8567L200.698 82.7629C199.714 83.7701 199.714 85.4033 200.698 86.4111C201.19 86.915 201.836 87.1667 202.481 87.1667C203.126 87.1667 203.772 86.915 204.263 86.4111L206.126 84.505L207.989 86.4111C208.481 86.915 209.126 87.1667 209.771 87.1667C210.417 87.1667 211.062 86.915 211.554 86.4111C212.539 85.4033 212.539 83.7701 211.554 82.7629L209.692 80.8567L211.554 78.9512C212.538 77.944 212.538 76.3107 211.553 75.3029Z" fill="#4CA7D1" fill-opacity="0.6"/>
<path d="M161.871 52.4931L163.734 50.587C164.718 49.5798 164.718 47.9466 163.733 46.9387C162.748 45.9315 161.153 45.9315 160.168 46.9387L158.306 48.8443L156.444 46.9387C155.46 45.9315 153.864 45.9309 152.879 46.9387C151.894 47.946 151.894 49.5792 152.879 50.587L154.742 52.4931L152.879 54.3993C151.895 55.4065 151.895 57.0397 152.879 58.0475C153.371 58.5509 154.016 58.8031 154.662 58.8031C155.307 58.8031 155.952 58.5514 156.444 58.0475L158.306 56.142L160.168 58.0475C160.66 58.5514 161.306 58.8031 161.951 58.8031C162.596 58.8031 163.241 58.5514 163.734 58.0475C164.718 57.0403 164.718 55.4071 163.734 54.3993L161.871 52.4931Z" fill="#4CA7D1" fill-opacity="0.6"/>
<path d="M163.733 75.303C162.748 74.2957 161.153 74.2957 160.168 75.3035L158.306 77.2091L156.444 75.3035C155.46 74.2957 153.864 74.2963 152.879 75.303C151.894 76.3102 151.894 77.9434 152.879 78.9512L154.742 80.8574L152.879 82.7635C151.895 83.7707 151.895 85.4039 152.879 86.4118C153.371 86.9157 154.016 87.1673 154.662 87.1673C155.307 87.1673 155.952 86.9157 156.444 86.4118L158.306 84.5062L160.168 86.4118C160.66 86.9157 161.306 87.1673 161.951 87.1673C162.596 87.1673 163.241 86.9157 163.734 86.4118C164.718 85.4045 164.718 83.7713 163.734 82.7635L161.872 80.8574L163.734 78.9512C164.718 77.9434 164.718 76.3102 163.733 75.303Z" fill="#4CA7D1" fill-opacity="0.6"/>
</svg>
