<svg width="200" height="320" viewBox="0 0 200 320" fill="none" xmlns="http://www.w3.org/2000/svg">
<g opacity="0.6">
<path d="M91.7221 17.3214C86.7677 21.8873 82.4447 29.7562 81.2789 36.265C80.1617 42.5309 82.1532 49.914 86.962 57.1028C89.342 60.6973 92.985 64.1945 94.7822 64.6317C98.3767 65.5546 106.731 53.897 108.82 45.1538C110.811 36.7021 107.217 26.1617 99.7853 18.5358C95.8509 14.5042 94.928 14.407 91.7221 17.3214Z" fill="#9BC542"/>
<path d="M91.6201 73.4234C86.6656 77.9893 82.3426 85.8581 81.1769 92.367C80.0597 98.6329 82.0512 106.016 86.8599 113.205C89.24 116.799 92.883 120.297 94.6802 120.734C98.2746 121.657 106.629 109.999 108.718 101.256C110.709 92.8041 107.115 82.2637 99.6832 74.6377C95.7488 70.6062 94.8259 70.509 91.6201 73.4234Z" fill="#9BC542"/>
<path d="M67.3867 57.2972C60.9265 59.3372 53.1548 65.1174 53.1548 67.9347C53.1548 69.1004 56.7006 72.7434 59.7607 74.7835C65.4438 78.5722 71.8069 80.0294 77.0042 78.7179C84.7759 76.775 93.4705 70.4119 92.6448 67.3032C92.3048 65.9432 88.176 62.1545 84.9702 60.2115C79.3357 56.86 72.4869 55.6942 67.3867 57.2972Z" fill="#9BC542"/>
<path d="M110.957 57.7343C106.683 59.1915 103.428 61.183 100.417 64.0974C97.551 66.8661 97.2595 67.9832 98.8624 70.2176C100.368 72.3548 105.76 75.9492 109.889 77.6007C116.64 80.2722 123.489 79.3979 130.484 74.8806C134.175 72.5005 137.187 69.3433 137.187 67.8375C137.187 66.2346 133.155 62.2516 129.415 60.1144C123.052 56.4714 116.835 55.6942 110.957 57.7343Z" fill="#9BC542"/>
<path d="M42.0799 83.7695C38.7284 85.8096 34.454 92.6584 32.9968 98.39C31.151 105.336 34.0168 113.933 40.1856 120.248C43.2943 123.405 44.2657 123.357 47.5201 120.054C51.746 115.682 55.0975 108.153 55.0975 103.004C55.0975 96.35 49.6574 86.0039 44.9458 83.5266C43.7314 82.9438 43.44 82.9438 42.0799 83.7695Z" fill="#9BC542"/>
<path d="M145.055 83.7695C141.752 85.8096 137.332 92.8527 135.924 98.4872C134.126 105.287 137.041 114.031 143.161 120.248C146.27 123.405 147.241 123.357 150.447 120.054C154.819 115.536 158.073 108.105 158.073 102.567C158.073 99.8958 156.324 94.3585 154.478 91.0069C152.827 88.0925 149.573 84.401 147.921 83.5266C146.707 82.9438 146.415 82.9438 145.055 83.7695Z" fill="#9BC542"/>
<path d="M23.331 116.362C19.008 117.042 11.8677 121.317 10.3619 124.182C9.00188 126.757 16.4821 132.537 22.9424 133.848C28.334 134.966 34.6971 132.78 39.4573 128.214L42.0802 125.64L41.2545 124.134C40.283 122.191 35.4257 118.596 32.1227 117.382C28.9169 116.216 26.3425 115.925 23.331 116.362Z" fill="#9BC542"/>
<path d="M58.4982 116.508C52.9122 117.674 45.8691 122.531 45.8691 125.202C45.8691 128.505 55.8752 134.286 61.5583 134.286C64.1812 134.286 68.2614 132.974 71.3215 131.177C74.0902 129.574 77.4417 126.32 77.4417 125.3C77.4417 123.94 73.5558 120.345 70.2529 118.596C68.4557 117.674 65.687 116.654 64.1327 116.362C62.5297 116.071 61.2183 115.828 61.2183 115.876C61.1697 115.876 59.9554 116.168 58.4982 116.508Z" fill="#9BC542"/>
<path d="M126.112 116.362C121.643 117.236 115.523 120.928 113.531 123.891C112.851 124.96 112.851 125.154 113.677 126.465C115.717 129.623 121.011 132.828 125.917 133.848C131.309 134.966 137.672 132.78 142.432 128.214L145.055 125.64L144.278 124.134C143.307 122.337 139.226 119.179 136.118 117.819C134.369 117.091 128.395 115.585 128.249 115.876C128.2 115.925 127.277 116.119 126.112 116.362Z" fill="#9BC542"/>
<path d="M161.473 116.508C155.79 117.722 148.844 122.482 148.844 125.154C148.844 127.825 156.081 132.731 161.764 133.946C165.116 134.626 169.342 133.848 173.325 131.711C176.482 130.06 180.416 126.465 180.416 125.3C180.416 123.94 176.579 120.345 173.227 118.596C171.43 117.674 168.662 116.654 167.107 116.362C165.504 116.071 164.193 115.828 164.193 115.876C164.144 115.876 162.93 116.168 161.473 116.508Z" fill="#9BC542"/>
<path d="M39.9917 130.351C35.7658 134.674 32.2686 142.397 32.2686 147.4C32.2686 149.926 33.5315 154.443 35.2801 157.941C36.883 161.195 41.4003 166.587 42.9547 167.072C44.4118 167.558 46.6948 165.907 49.1234 162.701C55.9237 153.666 56.798 146.089 52.0864 136.714C50.2892 133.168 45.1404 127.485 43.6832 127.485C43.1975 127.485 41.4975 128.797 39.9917 130.351Z" fill="#9BC542"/>
<path d="M143.242 130.37C139.016 134.693 135.519 142.417 135.519 147.42C135.519 149.945 136.782 154.463 138.531 157.96C140.133 161.214 144.651 166.606 146.205 167.092C147.662 167.577 149.945 165.926 152.374 162.72C159.174 153.685 160.048 146.108 155.337 136.733C153.54 133.188 148.391 127.505 146.934 127.505C146.448 127.505 144.748 128.816 143.242 130.37Z" fill="#9BC542"/>
<path d="M91.5117 130.37C87.2858 134.693 83.7886 142.417 83.7886 147.42C83.7886 149.945 85.0515 154.463 86.8001 157.96C88.403 161.214 92.9203 166.606 94.4747 167.092C95.9319 167.577 98.2148 165.926 100.643 162.72C107.444 153.685 108.318 146.108 103.606 136.733C101.809 133.188 96.6605 127.505 95.2033 127.505C94.7175 127.505 93.0175 128.816 91.5117 130.37Z" fill="#9BC542"/>
<path d="M71.7582 163.867C67.3866 165.47 61.4121 170.084 61.4121 171.93C61.4121 172.853 63.9865 175.573 66.3666 177.127C72.9725 181.499 78.8984 182.033 85.2615 178.827C88.9045 177.03 91.3332 175.136 92.6932 173.047C93.3733 172.027 93.3247 171.784 92.4504 170.375C91.236 168.433 86.573 165.275 82.9786 163.964C79.627 162.701 75.1583 162.652 71.7582 163.867Z" fill="#9BC542"/>
<path d="M107.994 163.624C102.748 165.664 97.3564 169.841 97.3564 171.93C97.3564 173.484 101.631 177.321 105.42 179.07C109.888 181.159 114.211 181.45 118.34 179.944C123.537 178.099 128.929 173.921 128.929 171.784C128.929 170.521 124.169 166.441 120.72 164.79C118.097 163.527 116.786 163.235 113.628 163.089C111.151 162.992 109.111 163.187 107.994 163.624Z" fill="#9BC542"/>
<path d="M48.6861 191.31C43.9745 192.573 40.8172 195.974 40.2344 200.394C40.0886 201.559 40.2829 206.902 40.7201 212.246C43.3916 246.052 44.5088 260.77 44.8974 267.376C45.3345 275.974 46.2089 280.199 48.5889 285.154C52.8634 294.188 59.8093 299.094 70.6412 300.746C77.6357 301.814 116.64 301.426 121.157 300.212C127.083 298.657 132.183 295.791 136.264 291.711C142.772 285.202 144.57 280.151 145.638 265.19C146.027 259.847 147.241 243.332 148.407 228.518L150.495 201.559L149.573 198.694C148.358 194.905 145.93 192.428 142.481 191.408C140.247 190.728 134.321 190.63 95.4621 190.679C61.1694 190.679 50.4347 190.825 48.6861 191.31Z" fill="#9BC542"/>
</g>
<path d="M101.923 26.0646C96.9684 30.6305 92.6453 38.4993 91.4796 45.0081C90.3624 51.2741 92.3539 58.6572 97.1626 65.846C99.5427 69.4404 103.186 72.9377 104.983 73.3749C108.577 74.2977 116.932 62.6402 119.021 53.897C121.012 45.4453 117.418 34.9049 109.986 27.2789C106.052 23.2473 105.129 23.1502 101.923 26.0646Z" fill="#9BC542"/>
<path d="M101.821 82.1666C96.8663 86.7325 92.5433 94.6013 91.3775 101.11C90.2604 107.376 92.2519 114.759 97.0606 121.948C99.4407 125.542 103.084 129.04 104.881 129.477C108.475 130.4 116.83 118.742 118.919 109.999C120.91 101.547 117.316 91.0069 109.884 83.3809C105.949 79.3493 105.027 79.2522 101.821 82.1666Z" fill="#9BC542"/>
<path d="M77.5874 66.0403C71.1272 68.0804 63.3555 73.8606 63.3555 76.6778C63.3555 77.8436 66.9013 81.4866 69.9614 83.5267C75.6445 87.3154 82.0076 88.7726 87.2049 87.4611C94.9766 85.5182 103.671 79.1551 102.845 76.0464C102.505 74.6863 98.3767 70.8976 95.1709 68.9547C89.5364 65.6032 82.6876 64.4374 77.5874 66.0403Z" fill="#9BC542"/>
<path d="M121.158 66.4775C116.883 67.9347 113.629 69.9262 110.617 72.8405C107.752 75.6092 107.46 76.7264 109.063 78.9608C110.569 81.098 115.961 84.6924 120.089 86.3439C126.841 89.0154 133.69 88.1411 140.684 83.6238C144.376 81.2437 147.387 78.0864 147.387 76.5807C147.387 74.9778 143.356 70.9948 139.616 68.8575C133.253 65.2146 127.035 64.4374 121.158 66.4775Z" fill="#9BC542"/>
<path d="M52.2806 92.5127C48.9291 94.5527 44.6546 101.402 43.1974 107.133C41.3517 114.079 44.2175 122.677 50.3863 128.991C53.495 132.148 54.4664 132.1 57.7208 128.797C61.9467 124.425 65.2982 116.896 65.2982 111.748C65.2982 105.093 59.858 94.747 55.1464 92.2698C53.9321 91.6869 53.6407 91.6869 52.2806 92.5127Z" fill="#9BC542"/>
<path d="M155.256 92.5127C151.953 94.5527 147.533 101.596 146.124 107.23C144.327 114.031 147.241 122.774 153.362 128.991C156.47 132.148 157.442 132.1 160.648 128.797C165.019 124.28 168.274 116.848 168.274 111.31C168.274 108.639 166.525 103.102 164.679 99.7501C163.028 96.8357 159.773 93.1441 158.122 92.2698C156.907 91.6869 156.616 91.6869 155.256 92.5127Z" fill="#9BC542"/>
<path d="M33.5316 125.105C29.2086 125.785 22.0684 130.06 20.5626 132.926C19.2026 135.5 26.6828 141.28 33.1431 142.592C38.5347 143.709 44.8978 141.523 49.6579 136.957L52.2809 134.383L51.4551 132.877C50.4837 130.934 45.6264 127.34 42.3234 126.125C39.1176 124.96 36.5432 124.668 33.5316 125.105Z" fill="#9BC542"/>
<path d="M68.6988 125.251C63.1129 126.417 56.0698 131.274 56.0698 133.946C56.0698 137.249 66.0759 143.029 71.759 143.029C74.3819 143.029 78.4621 141.717 81.5222 139.92C84.2908 138.317 87.6424 135.063 87.6424 134.043C87.6424 132.683 83.7565 129.088 80.4536 127.34C78.6563 126.417 75.8877 125.397 74.3333 125.105C72.7304 124.814 71.4189 124.571 71.4189 124.62C71.3704 124.62 70.156 124.911 68.6988 125.251Z" fill="#9BC542"/>
<path d="M136.312 125.105C131.844 125.98 125.723 129.671 123.732 132.634C123.052 133.703 123.052 133.897 123.878 135.208C125.918 138.366 131.212 141.572 136.118 142.592C141.51 143.709 147.873 141.523 152.633 136.957L155.256 134.383L154.479 132.877C153.507 131.08 149.427 127.923 146.318 126.562C144.57 125.834 138.595 124.328 138.45 124.62C138.401 124.668 137.478 124.862 136.312 125.105Z" fill="#9BC542"/>
<path d="M171.673 125.251C165.99 126.465 159.044 131.225 159.044 133.897C159.044 136.569 166.282 141.474 171.965 142.689C175.316 143.369 179.542 142.592 183.525 140.454C186.683 138.803 190.617 135.208 190.617 134.043C190.617 132.683 186.78 129.088 183.428 127.34C181.631 126.417 178.862 125.397 177.308 125.105C175.705 124.814 174.394 124.571 174.394 124.62C174.345 124.62 173.131 124.911 171.673 125.251Z" fill="#9BC542"/>
<path d="M50.1924 139.094C45.9665 143.417 42.4692 151.14 42.4692 156.144C42.4692 158.669 43.7321 163.187 45.4808 166.684C47.0837 169.938 51.601 175.33 53.1553 175.816C54.6125 176.301 56.8955 174.65 59.3241 171.444C66.1244 162.409 66.9987 154.832 62.2871 145.457C60.4899 141.912 55.3411 136.229 53.8839 136.229C53.3982 136.229 51.6981 137.54 50.1924 139.094Z" fill="#9BC542"/>
<path d="M153.443 139.114C149.217 143.437 145.72 151.16 145.72 156.163C145.72 158.689 146.983 163.206 148.731 166.703C150.334 169.957 154.851 175.349 156.406 175.835C157.863 176.321 160.146 174.669 162.575 171.463C169.375 162.429 170.249 154.851 165.538 145.477C163.74 141.931 158.592 136.248 157.134 136.248C156.649 136.248 154.949 137.559 153.443 139.114Z" fill="#9BC542"/>
<path d="M101.712 139.114C97.4865 143.437 93.9893 151.16 93.9893 156.163C93.9893 158.689 95.2522 163.206 97.0008 166.703C98.6037 169.957 103.121 175.349 104.675 175.835C106.133 176.321 108.415 174.669 110.844 171.463C117.644 162.429 118.519 154.851 113.807 145.477C112.01 141.931 106.861 136.248 105.404 136.248C104.918 136.248 103.218 137.559 101.712 139.114Z" fill="#9BC542"/>
<path d="M81.9589 172.61C77.5873 174.213 71.6128 178.827 71.6128 180.673C71.6128 181.596 74.1872 184.316 76.5673 185.87C83.1732 190.242 89.0991 190.776 95.4622 187.57C99.1052 185.773 101.534 183.879 102.894 181.79C103.574 180.77 103.525 180.527 102.651 179.119C101.437 177.176 96.7737 174.018 93.1793 172.707C89.8277 171.444 85.359 171.395 81.9589 172.61Z" fill="#9BC542"/>
<path d="M118.195 172.367C112.949 174.407 107.557 178.584 107.557 180.673C107.557 182.227 111.832 186.065 115.62 187.813C120.089 189.902 124.412 190.193 128.541 188.688C133.738 186.842 139.13 182.664 139.13 180.527C139.13 179.264 134.37 175.184 130.921 173.533C128.298 172.27 126.986 171.978 123.829 171.833C121.352 171.736 119.312 171.93 118.195 172.367Z" fill="#9BC542"/>
<path d="M58.8868 200.054C54.1752 201.317 51.0179 204.717 50.435 209.137C50.2893 210.303 50.4836 215.646 50.9208 220.989C53.5923 254.796 54.7095 269.513 55.0981 276.119C55.5352 284.717 56.4095 288.943 58.7896 293.897C63.0641 302.932 70.01 307.838 80.8418 309.489C87.8364 310.558 126.841 310.169 131.358 308.955C137.284 307.4 142.384 304.535 146.464 300.454C152.973 293.946 154.77 288.894 155.839 273.933C156.227 268.59 157.442 252.076 158.607 237.261L160.696 210.303L159.773 207.437C158.559 203.648 156.13 201.171 152.682 200.151C150.447 199.471 144.521 199.374 105.663 199.422C71.3701 199.422 60.6354 199.568 58.8868 200.054Z" fill="#9BC542"/>
</svg>
