<svg width="300" height="303" viewBox="0 0 300 303" fill="none" xmlns="http://www.w3.org/2000/svg">
<g clip-path="url(#clip0_221_3600)">
<g opacity="0.6">
<path d="M9.0619 162.185C8.46631 162.227 7.95542 162.39 7.38631 162.488C7.22307 162.542 7.05983 162.572 6.89307 162.626L9.06366 162.185H9.0619Z" fill="#E16168"/>
<path d="M274.774 211.526L275.189 211.041L274.995 211.588L274.774 211.526Z" fill="#E16168"/>
<path d="M241.13 102.459H206.056C199.71 92.8392 185.586 85.3948 168.048 82.6066L195.182 12.3034L159.24 81.6281C157.089 81.4878 154.904 81.4137 152.688 81.4137C150.48 81.4137 148.303 81.4869 146.162 81.6263L109.497 10.9304L137.171 82.6322C119.707 85.4398 105.649 92.8675 99.3206 102.458H33.4547C27.0788 102.458 21.9224 107.425 21.9224 113.539V257.716C21.9224 263.837 27.0788 268.803 33.4547 268.803H47.9571C48.9727 273.793 54.0832 277.599 60.2518 277.599C66.4194 277.599 71.5282 273.794 72.5438 268.803H204.517C204.517 268.82 204.515 268.834 204.515 268.852C204.515 274.714 210.115 279.467 217.005 279.467C223.905 279.467 229.495 274.712 229.495 268.852C229.495 268.834 229.492 268.82 229.492 268.803H241.129C247.505 268.803 252.664 263.836 252.664 257.716V113.548C252.673 107.433 247.511 102.466 241.14 102.466L241.13 102.459ZM208.536 229.306C208.536 233.565 204.779 237.4 200.151 237.798C149.671 242.005 99.1565 242.005 48.6682 237.798C44.0288 237.4 40.2753 233.565 40.2753 229.306C40.2656 195.831 40.2753 162.37 40.2753 128.903C40.2753 124.626 44.0288 120.81 48.6682 120.405C99.1494 116.2 149.671 116.2 200.151 120.405C204.779 120.81 208.536 124.627 208.536 128.903V229.306V229.306ZM216.38 138.335C216.38 131.433 221.002 125.844 226.693 125.844C232.379 125.844 236.995 131.433 236.995 138.335C236.995 145.23 232.381 150.82 226.693 150.82C220.993 150.82 216.378 145.235 216.378 138.335H216.38ZM227.63 187.05C221.932 187.05 217.321 181.447 217.321 174.552C217.321 167.661 221.932 162.062 227.63 162.062C233.322 162.062 237.938 167.663 237.938 174.552C237.938 181.443 233.324 187.046 227.632 187.046L227.63 187.05Z" fill="#E16168"/>
</g>
<path d="M18.0512 169.784C17.4556 169.826 16.9447 169.989 16.3756 170.087C16.2123 170.141 16.0491 170.171 15.8823 170.225L18.0529 169.784H18.0512Z" fill="#E16168"/>
<path d="M283.763 219.125L284.178 218.64L283.984 219.187L283.763 219.125Z" fill="#E16168"/>
<path d="M250.119 110.058H215.045C208.7 100.438 194.576 92.9937 177.037 90.2055L204.171 19.9022L168.23 89.2269C166.078 89.0866 163.894 89.0125 161.677 89.0125C159.47 89.0125 157.292 89.0858 155.151 89.2252L118.486 18.5293L146.16 90.2311C128.697 93.0387 114.638 100.466 108.31 110.057H42.444C36.0681 110.057 30.9116 115.023 30.9116 121.138V265.315C30.9116 271.436 36.0681 276.402 42.444 276.402H56.9463C57.9619 281.392 63.0725 285.198 69.241 285.198C75.4087 285.198 80.5175 281.393 81.5331 276.402H213.507C213.507 276.419 213.504 276.433 213.504 276.451C213.504 282.313 219.104 287.066 225.995 287.066C232.895 287.066 238.484 282.311 238.484 276.451C238.484 276.433 238.482 276.419 238.482 276.402H250.118C256.494 276.402 261.653 271.435 261.653 265.315V121.147C261.662 115.032 256.5 110.065 250.13 110.065L250.119 110.058ZM217.525 236.905C217.525 241.164 213.768 244.998 209.14 245.397C158.66 249.603 108.146 249.603 57.6575 245.397C53.0181 244.998 49.2646 241.164 49.2646 236.905C49.2549 203.43 49.2646 169.968 49.2646 136.502C49.2646 132.225 53.0181 128.409 57.6575 128.004C108.139 123.799 158.66 123.799 209.14 128.004C213.768 128.409 217.525 132.226 217.525 136.502V236.905V236.905ZM225.369 145.934C225.369 139.032 229.992 133.443 235.682 133.443C241.369 133.443 245.984 139.032 245.984 145.934C245.984 152.829 241.37 158.419 235.682 158.419C229.982 158.419 225.367 152.834 225.367 145.934H225.369ZM236.619 194.649C230.922 194.649 226.31 189.046 226.31 182.151C226.31 175.26 230.922 169.66 236.619 169.66C242.311 169.66 246.927 175.262 246.927 182.151C246.927 189.042 242.313 194.645 236.622 194.645L236.619 194.649Z" fill="#E16168"/>
<path opacity="0.6" d="M83.0874 148.652L82.7298 148.286L81.0868 146.605L81.0867 146.605C80.4145 145.916 79.3287 145.917 78.6562 146.604C77.9773 147.299 77.9771 148.429 78.6563 149.124L80.2998 150.806L80.6413 151.156L80.2998 151.505L78.6563 153.187C77.9777 153.881 77.9776 155.012 78.6564 155.707L78.6565 155.707C78.9936 156.053 79.4328 156.223 79.8715 156.223C80.3103 156.223 80.7494 156.053 81.0866 155.707L81.0868 155.707L82.7298 154.026L83.0874 153.66L83.4451 154.026L85.0875 155.707C85.0875 155.707 85.0876 155.707 85.0876 155.707C85.4253 156.053 85.8646 156.223 86.3033 156.223C86.7414 156.223 87.1807 156.053 87.5185 155.707L87.5186 155.707C88.1975 155.013 88.1977 153.882 87.519 153.187C87.5189 153.187 87.5189 153.187 87.5189 153.187L85.8755 151.505L85.534 151.156L85.8755 150.806L87.5188 149.125L83.0874 148.652ZM83.0874 148.652L83.4451 148.286M83.0874 148.652L83.4451 148.286M83.4451 148.286L85.0875 146.605C85.0875 146.605 85.0876 146.605 85.0876 146.605M83.4451 148.286L85.0876 146.605M85.0876 146.605C85.7604 145.916 86.8453 145.916 87.5181 146.604M85.0876 146.605L87.5181 146.604M87.5181 146.604C88.197 147.299 88.1972 148.429 87.519 149.124L87.5181 146.604Z" fill="#E16168" stroke="#E16168"/>
<path opacity="0.6" d="M111.323 148.652L110.965 148.286L109.322 146.605L109.322 146.605C108.65 145.916 107.564 145.917 106.892 146.604C106.213 147.299 106.212 148.429 106.892 149.124L108.535 150.806L108.877 151.156L108.535 151.505L106.892 153.187C106.213 153.881 106.213 155.012 106.892 155.707L106.892 155.707C107.229 156.053 107.668 156.223 108.107 156.223C108.546 156.223 108.985 156.053 109.322 155.707L109.322 155.707L110.965 154.026L111.323 153.66L111.68 154.026L113.323 155.707C113.323 155.707 113.323 155.707 113.323 155.707C113.661 156.053 114.1 156.223 114.539 156.223C114.977 156.223 115.416 156.053 115.754 155.707L115.754 155.707C116.433 155.013 116.433 153.882 115.754 153.187C115.754 153.187 115.754 153.187 115.754 153.187L114.111 151.505L113.769 151.156L114.111 150.806L115.754 149.125L111.323 148.652ZM111.323 148.652L111.68 148.286M111.323 148.652L111.68 148.286M111.68 148.286L113.323 146.605C113.323 146.605 113.323 146.605 113.323 146.605M111.68 148.286L113.323 146.605M113.323 146.605C113.996 145.916 115.081 145.916 115.753 146.604M113.323 146.605L115.753 146.604M115.753 146.604C116.432 147.299 116.433 148.429 115.754 149.124L115.753 146.604Z" fill="#E16168" stroke="#E16168"/>
<path opacity="0.6" d="M83.0874 178.652L82.7298 178.286L81.0868 176.605L81.0867 176.605C80.4145 175.916 79.3287 175.917 78.6562 176.604C77.9773 177.299 77.9771 178.429 78.6563 179.124L80.2998 180.806L80.6413 181.156L80.2998 181.505L78.6563 183.187C77.9777 183.881 77.9776 185.012 78.6564 185.707L78.6565 185.707C78.9936 186.053 79.4328 186.223 79.8715 186.223C80.3103 186.223 80.7494 186.053 81.0866 185.707L81.0868 185.707L82.7298 184.026L83.0874 183.66L83.4451 184.026L85.0875 185.707C85.0875 185.707 85.0876 185.707 85.0876 185.707C85.4253 186.053 85.8646 186.223 86.3033 186.223C86.7414 186.223 87.1807 186.053 87.5185 185.707L87.5186 185.707C88.1975 185.013 88.1977 183.882 87.519 183.187C87.5189 183.187 87.5189 183.187 87.5189 183.187L85.8755 181.505L85.534 181.156L85.8755 180.806L87.5188 179.125L83.0874 178.652ZM83.0874 178.652L83.4451 178.286M83.0874 178.652L83.4451 178.286M83.4451 178.286L85.0875 176.605C85.0875 176.605 85.0876 176.605 85.0876 176.605M83.4451 178.286L85.0876 176.605M85.0876 176.605C85.7604 175.916 86.8453 175.916 87.5181 176.604M85.0876 176.605L87.5181 176.604M87.5181 176.604C88.197 177.299 88.1972 178.429 87.519 179.124L87.5181 176.604Z" fill="#E16168" stroke="#E16168"/>
<path opacity="0.6" d="M111.323 178.652L110.965 178.286L109.322 176.605L109.322 176.605C108.65 175.916 107.564 175.917 106.892 176.604C106.213 177.299 106.212 178.429 106.892 179.124L108.535 180.806L108.877 181.156L108.535 181.505L106.892 183.187C106.213 183.881 106.213 185.012 106.892 185.707L106.892 185.707C107.229 186.053 107.668 186.223 108.107 186.223C108.546 186.223 108.985 186.053 109.322 185.707L109.322 185.707L110.965 184.026L111.323 183.66L111.68 184.026L113.323 185.707C113.323 185.707 113.323 185.707 113.323 185.707C113.661 186.053 114.1 186.223 114.539 186.223C114.977 186.223 115.416 186.053 115.754 185.707L115.754 185.707C116.433 185.013 116.433 183.882 115.754 183.187C115.754 183.187 115.754 183.187 115.754 183.187L114.111 181.505L113.769 181.156L114.111 180.806L115.754 179.125L111.323 178.652ZM111.323 178.652L111.68 178.286M111.323 178.652L111.68 178.286M111.68 178.286L113.323 176.605C113.323 176.605 113.323 176.605 113.323 176.605M111.68 178.286L113.323 176.605M113.323 176.605C113.996 175.916 115.081 175.916 115.753 176.604M113.323 176.605L115.753 176.604M115.753 176.604C116.432 177.299 116.433 178.429 115.754 179.124L115.753 176.604Z" fill="#E16168" stroke="#E16168"/>
<path opacity="0.6" d="M139.558 178.652L139.2 178.286L137.557 176.605L137.557 176.605C136.885 175.916 135.799 175.917 135.127 176.604C134.448 177.299 134.448 178.429 135.127 179.124L136.771 180.806L137.112 181.156L136.771 181.505L135.127 183.187C134.448 183.881 134.448 185.012 135.127 185.707L135.127 185.707C135.464 186.053 135.904 186.223 136.342 186.223C136.781 186.223 137.22 186.053 137.557 185.707L137.557 185.707L139.2 184.026L139.558 183.66L139.916 184.026L141.558 185.707C141.558 185.707 141.558 185.707 141.558 185.707C141.896 186.053 142.335 186.223 142.774 186.223C143.212 186.223 143.651 186.053 143.989 185.707L143.989 185.707C144.668 185.013 144.668 183.882 143.99 183.187C143.99 183.187 143.99 183.187 143.99 183.187L142.346 181.505L142.005 181.156L142.346 180.806L143.989 179.125L139.558 178.652ZM139.558 178.652L139.916 178.286M139.558 178.652L139.916 178.286M139.916 178.286L141.558 176.605C141.558 176.605 141.558 176.605 141.558 176.605M139.916 178.286L141.558 176.605M141.558 176.605C142.231 175.916 143.316 175.916 143.989 176.604M141.558 176.605L143.989 176.604M143.989 176.604C144.668 177.299 144.668 178.429 143.99 179.124L143.989 176.604Z" fill="#E16168" stroke="#E16168"/>
<path opacity="0.6" d="M166.029 178.652L165.671 178.286L164.028 176.605L164.028 176.605C163.356 175.916 162.27 175.917 161.598 176.604C160.919 177.299 160.919 178.429 161.598 179.124L163.241 180.806L163.583 181.156L163.241 181.505L161.598 183.187C160.919 183.881 160.919 185.012 161.598 185.707L161.598 185.707C161.935 186.053 162.374 186.223 162.813 186.223C163.252 186.223 163.691 186.053 164.028 185.707L164.028 185.707L165.671 184.026L166.029 183.66L166.386 184.026L168.029 185.707C168.029 185.707 168.029 185.707 168.029 185.707C168.367 186.053 168.806 186.223 169.245 186.223C169.683 186.223 170.122 186.053 170.46 185.707L170.46 185.707C171.139 185.013 171.139 183.882 170.46 183.187C170.46 183.187 170.46 183.187 170.46 183.187L168.817 181.505L168.475 181.156L168.817 180.806L170.46 179.125L166.029 178.652ZM166.029 178.652L166.386 178.286M166.029 178.652L166.386 178.286M166.386 178.286L168.029 176.605C168.029 176.605 168.029 176.605 168.029 176.605M166.386 178.286L168.029 176.605M168.029 176.605C168.702 175.916 169.787 175.916 170.459 176.604M168.029 176.605L170.459 176.604M170.459 176.604C171.138 177.299 171.139 178.429 170.46 179.124L170.459 176.604Z" fill="#E16168" stroke="#E16168"/>
<path opacity="0.6" d="M83.0874 210.417L82.7298 210.051L81.0868 208.369L81.0867 208.369C80.4145 207.681 79.3287 207.681 78.6562 208.369C77.9773 209.063 77.9771 210.194 78.6563 210.889L80.2998 212.571L80.6413 212.92L80.2998 213.27L78.6563 214.952C77.9777 215.646 77.9776 216.777 78.6564 217.472L78.6565 217.472C78.9936 217.817 79.4328 217.988 79.8715 217.988C80.3103 217.988 80.7494 217.817 81.0866 217.472L81.0868 217.472L82.7298 215.79L83.0874 215.424L83.4451 215.791L85.0875 217.472C85.0875 217.472 85.0876 217.472 85.0876 217.472C85.4253 217.817 85.8646 217.988 86.3033 217.988C86.7414 217.988 87.1807 217.817 87.5185 217.472L87.5186 217.472C88.1975 216.777 88.1977 215.647 87.519 214.952C87.5189 214.952 87.5189 214.952 87.5189 214.952L85.8755 213.27L85.534 212.92L85.8755 212.571L87.5188 210.889L83.0874 210.417ZM83.0874 210.417L83.4451 210.051M83.0874 210.417L83.4451 210.051M83.4451 210.051L85.0875 208.369C85.0875 208.369 85.0876 208.369 85.0876 208.369M83.4451 210.051L85.0876 208.369M85.0876 208.369C85.7604 207.681 86.8453 207.681 87.5181 208.369M85.0876 208.369L87.5181 208.369M87.5181 208.369C88.197 209.063 88.1972 210.194 87.519 210.889L87.5181 208.369Z" fill="#E16168" stroke="#E16168"/>
<path opacity="0.6" d="M112.205 210.417L111.847 210.051L110.204 208.369L110.204 208.369C109.532 207.681 108.446 207.681 107.774 208.369C107.095 209.063 107.095 210.194 107.774 210.889L109.417 212.571L109.759 212.92L109.417 213.27L107.774 214.952C107.095 215.646 107.095 216.777 107.774 217.472L107.774 217.472C108.111 217.817 108.55 217.988 108.989 217.988C109.428 217.988 109.867 217.817 110.204 217.472L110.204 217.472L111.847 215.79L112.205 215.424L112.563 215.791L114.205 217.472C114.205 217.472 114.205 217.472 114.205 217.472C114.543 217.817 114.982 217.988 115.421 217.988C115.859 217.988 116.298 217.817 116.636 217.472L116.636 217.472C117.315 216.777 117.315 215.647 116.637 214.952C116.637 214.952 116.637 214.952 116.637 214.952L114.993 213.27L114.652 212.92L114.993 212.571L116.636 210.889L112.205 210.417ZM112.205 210.417L112.563 210.051M112.205 210.417L112.563 210.051M112.563 210.051L114.205 208.369C114.205 208.369 114.205 208.369 114.205 208.369M112.563 210.051L114.205 208.369M114.205 208.369C114.878 207.681 115.963 207.681 116.636 208.369M114.205 208.369L116.636 208.369M116.636 208.369C117.315 209.063 117.315 210.194 116.637 210.889L116.636 208.369Z" fill="#E16168" stroke="#E16168"/>
<path opacity="0.6" d="M140.44 210.417L140.083 210.051L138.44 208.369L138.44 208.369C137.768 207.681 136.682 207.681 136.009 208.369C135.33 209.063 135.33 210.194 136.009 210.889L137.653 212.571L137.994 212.92L137.653 213.27L136.009 214.952C135.331 215.646 135.331 216.777 136.009 217.472L136.01 217.472C136.347 217.817 136.786 217.988 137.225 217.988C137.663 217.988 138.102 217.817 138.44 217.472L138.44 217.472L140.083 215.79L140.44 215.424L140.798 215.791L142.441 217.472C142.441 217.472 142.441 217.472 142.441 217.472C142.778 217.817 143.218 217.988 143.656 217.988C144.094 217.988 144.534 217.817 144.872 217.472L144.872 217.472C145.551 216.777 145.551 215.647 144.872 214.952C144.872 214.952 144.872 214.952 144.872 214.952L143.228 213.27L142.887 212.92L143.228 212.571L144.872 210.889L140.44 210.417ZM140.44 210.417L140.798 210.051M140.44 210.417L140.798 210.051M140.798 210.051L142.441 208.369C142.441 208.369 142.441 208.369 142.441 208.369M140.798 210.051L142.441 208.369M142.441 208.369C143.113 207.681 144.198 207.681 144.871 208.369M142.441 208.369L144.871 208.369M144.871 208.369C145.55 209.063 145.55 210.194 144.872 210.889L144.871 208.369Z" fill="#E16168" stroke="#E16168"/>
<path d="M166.178 209.977L165.82 209.611L164.177 207.93L164.177 207.93C163.505 207.241 162.419 207.242 161.747 207.929C161.068 208.624 161.067 209.754 161.747 210.449L163.39 212.131L163.732 212.481L163.39 212.83L161.747 214.512C161.068 215.206 161.068 216.337 161.747 217.032L161.747 217.032C162.084 217.378 162.523 217.548 162.962 217.548C163.401 217.548 163.84 217.378 164.177 217.032L164.177 217.032L165.82 215.351L166.178 214.985L166.535 215.351L168.178 217.032C168.178 217.032 168.178 217.032 168.178 217.032C168.516 217.378 168.955 217.548 169.394 217.548C169.832 217.548 170.271 217.378 170.609 217.032L170.609 217.032C171.288 216.338 171.288 215.207 170.609 214.512C170.609 214.512 170.609 214.512 170.609 214.512L168.966 212.83L168.624 212.481L168.966 212.131L170.609 210.45L166.178 209.977ZM166.178 209.977L166.535 209.611M166.178 209.977L166.535 209.611M166.535 209.611L168.178 207.93C168.178 207.93 168.178 207.93 168.178 207.93M166.535 209.611L168.178 207.93M168.178 207.93C168.851 207.241 169.936 207.241 170.608 207.929M168.178 207.93L170.608 207.929M170.608 207.929C171.287 208.624 171.288 209.754 170.609 210.449L170.608 207.929Z" fill="#E16168" stroke="#E16168"/>
<path opacity="0.6" d="M166.178 209.977L165.82 209.611L164.177 207.93L164.177 207.93C163.505 207.241 162.419 207.242 161.747 207.929C161.068 208.624 161.067 209.754 161.747 210.449L163.39 212.131L163.732 212.481L163.39 212.83L161.747 214.512C161.068 215.206 161.068 216.337 161.747 217.032L161.747 217.032C162.084 217.378 162.523 217.548 162.962 217.548C163.401 217.548 163.84 217.378 164.177 217.032L164.177 217.032L165.82 215.351L166.178 214.985L166.535 215.351L168.178 217.032C168.178 217.032 168.178 217.032 168.178 217.032C168.516 217.378 168.955 217.548 169.394 217.548C169.832 217.548 170.271 217.378 170.609 217.032L170.609 217.032C171.288 216.338 171.288 215.207 170.609 214.512C170.609 214.512 170.609 214.512 170.609 214.512L168.966 212.83L168.624 212.481L168.966 212.131L170.609 210.45L166.178 209.977ZM166.178 209.977L166.535 209.611M166.178 209.977L166.535 209.611M166.535 209.611L168.178 207.93C168.178 207.93 168.178 207.93 168.178 207.93M166.535 209.611L168.178 207.93M168.178 207.93C168.851 207.241 169.936 207.241 170.608 207.929M168.178 207.93L170.608 207.929M170.608 207.929C171.287 208.624 171.288 209.754 170.609 210.449L170.608 207.929Z" fill="#E16168" stroke="#E16168"/>
<path opacity="0.6" d="M139.558 148.652L139.2 148.286L137.557 146.605L137.557 146.605C136.885 145.916 135.799 145.917 135.127 146.604C134.448 147.299 134.448 148.429 135.127 149.124L136.771 150.806L137.112 151.156L136.771 151.505L135.127 153.187C134.448 153.881 134.448 155.012 135.127 155.707L135.127 155.707C135.464 156.053 135.904 156.223 136.342 156.223C136.781 156.223 137.22 156.053 137.557 155.707L137.557 155.707L139.2 154.026L139.558 153.66L139.916 154.026L141.558 155.707C141.558 155.707 141.558 155.707 141.558 155.707C141.896 156.053 142.335 156.223 142.774 156.223C143.212 156.223 143.651 156.053 143.989 155.707L143.989 155.707C144.668 155.013 144.668 153.882 143.99 153.187C143.99 153.187 143.99 153.187 143.99 153.187L142.346 151.505L142.005 151.156L142.346 150.806L143.989 149.125L139.558 148.652ZM139.558 148.652L139.916 148.286M139.558 148.652L139.916 148.286M139.916 148.286L141.558 146.605C141.558 146.605 141.558 146.605 141.558 146.605M139.916 148.286L141.558 146.605M141.558 146.605C142.231 145.916 143.316 145.916 143.989 146.604M141.558 146.605L143.989 146.604M143.989 146.604C144.668 147.299 144.668 148.429 143.99 149.124L143.989 146.604Z" fill="#E16168" stroke="#E16168"/>
<path opacity="0.6" d="M167.794 148.652L167.436 148.286L165.793 146.605L165.793 146.605C165.121 145.916 164.035 145.917 163.362 146.604C162.683 147.299 162.683 148.429 163.362 149.124L165.006 150.806L165.347 151.156L165.006 151.505L163.362 153.187C162.684 153.881 162.684 155.012 163.362 155.707L163.363 155.707C163.7 156.053 164.139 156.223 164.578 156.223C165.016 156.223 165.455 156.053 165.793 155.707L165.793 155.707L167.436 154.026L167.794 153.66L168.151 154.026L169.794 155.707C169.794 155.707 169.794 155.707 169.794 155.707C170.131 156.053 170.571 156.223 171.009 156.223C171.447 156.223 171.887 156.053 172.225 155.707L172.225 155.707C172.904 155.013 172.904 153.882 172.225 153.187C172.225 153.187 172.225 153.187 172.225 153.187L170.582 151.505L170.24 151.156L170.582 150.806L172.225 149.125L167.794 148.652ZM167.794 148.652L168.151 148.286M167.794 148.652L168.151 148.286M168.151 148.286L169.794 146.605C169.794 146.605 169.794 146.605 169.794 146.605M168.151 148.286L169.794 146.605M169.794 146.605C170.466 145.916 171.551 145.916 172.224 146.604M169.794 146.605L172.224 146.604M172.224 146.604C172.903 147.299 172.903 148.429 172.225 149.124L172.224 146.604Z" fill="#E16168" stroke="#E16168"/>
<path d="M86.6167 153.946L86.2591 153.58L84.6161 151.899L84.616 151.899C83.9438 151.21 82.858 151.211 82.1855 151.898C81.5066 152.593 81.5064 153.723 82.1856 154.418L83.8291 156.1L84.1706 156.45L83.8291 156.799L82.1856 158.481C81.507 159.175 81.5069 160.306 82.1857 161.001L82.1858 161.001C82.5229 161.347 82.9621 161.517 83.4008 161.517C83.8396 161.517 84.2787 161.347 84.6159 161.001L84.6161 161.001L86.2591 159.32L86.6167 158.954L86.9743 159.32L88.6168 161.001C88.6168 161.001 88.6169 161.001 88.6169 161.001C88.9546 161.347 89.3939 161.517 89.8326 161.517C90.2707 161.517 90.71 161.347 91.0478 161.001L91.0479 161.001C91.7268 160.307 91.727 159.176 91.0483 158.481C91.0482 158.481 91.0482 158.481 91.0482 158.481L89.4048 156.799L89.0633 156.45L89.4048 156.1L91.0481 154.419L86.6167 153.946ZM86.6167 153.946L86.9744 153.58M86.6167 153.946L86.9744 153.58M86.9744 153.58L88.6168 151.899C88.6168 151.899 88.6169 151.899 88.6169 151.899M86.9744 153.58L88.6169 151.899M88.6169 151.899C89.2897 151.21 90.3746 151.21 91.0474 151.898M88.6169 151.899L91.0474 151.898M91.0474 151.898C91.7263 152.593 91.7265 153.723 91.0483 154.418L91.0474 151.898Z" fill="#E16168" stroke="#E16168"/>
<path d="M114.852 153.946L114.494 153.58L112.851 151.899L112.851 151.899C112.179 151.21 111.093 151.211 110.421 151.898C109.742 152.593 109.742 153.723 110.421 154.418L112.064 156.1L112.406 156.45L112.064 156.799L110.421 158.481C109.742 159.175 109.742 160.306 110.421 161.001L110.421 161.001C110.758 161.347 111.197 161.517 111.636 161.517C112.075 161.517 112.514 161.347 112.851 161.001L112.851 161.001L114.494 159.32L114.852 158.954L115.21 159.32L116.852 161.001C116.852 161.001 116.852 161.001 116.852 161.001C117.19 161.347 117.629 161.517 118.068 161.517C118.506 161.517 118.945 161.347 119.283 161.001L119.283 161.001C119.962 160.307 119.962 159.176 119.284 158.481C119.284 158.481 119.284 158.481 119.284 158.481L117.64 156.799L117.299 156.45L117.64 156.1L119.283 154.419L114.852 153.946ZM114.852 153.946L115.21 153.58M114.852 153.946L115.21 153.58M115.21 153.58L116.852 151.899C116.852 151.899 116.852 151.899 116.852 151.899M115.21 153.58L116.852 151.899M116.852 151.899C117.525 151.21 118.61 151.21 119.283 151.898M116.852 151.899L119.283 151.898M119.283 151.898C119.962 152.593 119.962 153.723 119.284 154.418L119.283 151.898Z" fill="#E16168" stroke="#E16168"/>
<path d="M86.6167 183.946L86.2591 183.58L84.6161 181.899L84.616 181.899C83.9438 181.21 82.858 181.211 82.1855 181.898C81.5066 182.593 81.5064 183.723 82.1856 184.418L83.8291 186.1L84.1706 186.45L83.8291 186.799L82.1856 188.481C81.507 189.175 81.5069 190.306 82.1857 191.001L82.1858 191.001C82.5229 191.347 82.9621 191.517 83.4008 191.517C83.8396 191.517 84.2787 191.347 84.6159 191.001L84.6161 191.001L86.2591 189.32L86.6167 188.954L86.9743 189.32L88.6168 191.001C88.6168 191.001 88.6169 191.001 88.6169 191.001C88.9546 191.347 89.3939 191.517 89.8326 191.517C90.2707 191.517 90.71 191.347 91.0478 191.001L91.0479 191.001C91.7268 190.307 91.727 189.176 91.0483 188.481C91.0482 188.481 91.0482 188.481 91.0482 188.481L89.4048 186.799L89.0633 186.45L89.4048 186.1L91.0481 184.419L86.6167 183.946ZM86.6167 183.946L86.9744 183.58M86.6167 183.946L86.9744 183.58M86.9744 183.58L88.6168 181.899C88.6168 181.899 88.6169 181.899 88.6169 181.899M86.9744 183.58L88.6169 181.899M88.6169 181.899C89.2897 181.21 90.3746 181.21 91.0474 181.898M88.6169 181.899L91.0474 181.898M91.0474 181.898C91.7263 182.593 91.7265 183.723 91.0483 184.418L91.0474 181.898Z" fill="#E16168" stroke="#E16168"/>
<path d="M114.852 183.946L114.494 183.58L112.851 181.899L112.851 181.899C112.179 181.21 111.093 181.211 110.421 181.898C109.742 182.593 109.742 183.723 110.421 184.418L112.064 186.1L112.406 186.45L112.064 186.799L110.421 188.481C109.742 189.175 109.742 190.306 110.421 191.001L110.421 191.001C110.758 191.347 111.197 191.517 111.636 191.517C112.075 191.517 112.514 191.347 112.851 191.001L112.851 191.001L114.494 189.32L114.852 188.954L115.21 189.32L116.852 191.001C116.852 191.001 116.852 191.001 116.852 191.001C117.19 191.347 117.629 191.517 118.068 191.517C118.506 191.517 118.945 191.347 119.283 191.001L119.283 191.001C119.962 190.307 119.962 189.176 119.284 188.481C119.284 188.481 119.284 188.481 119.284 188.481L117.64 186.799L117.299 186.45L117.64 186.1L119.283 184.419L114.852 183.946ZM114.852 183.946L115.21 183.58M114.852 183.946L115.21 183.58M115.21 183.58L116.852 181.899C116.852 181.899 116.852 181.899 116.852 181.899M115.21 183.58L116.852 181.899M116.852 181.899C117.525 181.21 118.61 181.21 119.283 181.898M116.852 181.899L119.283 181.898M119.283 181.898C119.962 182.593 119.962 183.723 119.284 184.418L119.283 181.898Z" fill="#E16168" stroke="#E16168"/>
<path d="M143.087 183.946L142.73 183.58L141.087 181.899L141.087 181.899C140.414 181.21 139.329 181.211 138.656 181.898C137.977 182.593 137.977 183.723 138.656 184.418L140.3 186.1L140.641 186.45L140.3 186.799L138.656 188.481C137.978 189.175 137.978 190.306 138.656 191.001L138.657 191.001C138.994 191.347 139.433 191.517 139.872 191.517C140.31 191.517 140.749 191.347 141.087 191.001L141.087 191.001L142.73 189.32L143.087 188.954L143.445 189.32L145.088 191.001C145.088 191.001 145.088 191.001 145.088 191.001C145.425 191.347 145.865 191.517 146.303 191.517C146.741 191.517 147.181 191.347 147.518 191.001L147.519 191.001C148.197 190.307 148.198 189.176 147.519 188.481C147.519 188.481 147.519 188.481 147.519 188.481L145.875 186.799L145.534 186.45L145.875 186.1L147.519 184.419L143.087 183.946ZM143.087 183.946L143.445 183.58M143.087 183.946L143.445 183.58M143.445 183.58L145.088 181.899C145.088 181.899 145.088 181.899 145.088 181.899M143.445 183.58L145.088 181.899M145.088 181.899C145.76 181.21 146.845 181.21 147.518 181.898M145.088 181.899L147.518 181.898M147.518 181.898C148.197 182.593 148.197 183.723 147.519 184.418L147.518 181.898Z" fill="#E16168" stroke="#E16168"/>
<path d="M171.323 183.946L170.965 183.58L169.322 181.899L169.322 181.899C168.65 181.21 167.564 181.211 166.892 181.898C166.213 182.593 166.212 183.723 166.892 184.418L168.535 186.1L168.877 186.45L168.535 186.799L166.892 188.481C166.213 189.175 166.213 190.306 166.892 191.001L166.892 191.001C167.229 191.347 167.668 191.517 168.107 191.517C168.546 191.517 168.985 191.347 169.322 191.001L169.322 191.001L170.965 189.32L171.323 188.954L171.68 189.32L173.323 191.001C173.323 191.001 173.323 191.001 173.323 191.001C173.661 191.347 174.1 191.517 174.539 191.517C174.977 191.517 175.416 191.347 175.754 191.001L175.754 191.001C176.433 190.307 176.433 189.176 175.754 188.481C175.754 188.481 175.754 188.481 175.754 188.481L174.111 186.799L173.769 186.45L174.111 186.1L175.754 184.419L171.323 183.946ZM171.323 183.946L171.68 183.58M171.323 183.946L171.68 183.58M171.68 183.58L173.323 181.899C173.323 181.899 173.323 181.899 173.323 181.899M171.68 183.58L173.323 181.899M173.323 181.899C173.996 181.21 175.081 181.21 175.753 181.898M173.323 181.899L175.753 181.898M175.753 181.898C176.432 182.593 176.433 183.723 175.754 184.418L175.753 181.898Z" fill="#E16168" stroke="#E16168"/>
<path d="M86.6167 215.711L86.2591 215.345L84.6161 213.664L84.616 213.663C83.9438 212.975 82.858 212.975 82.1855 213.663C81.5066 214.358 81.5064 215.488 82.1856 216.183L83.8291 217.865L84.1706 218.215L83.8291 218.564L82.1856 220.246C81.507 220.94 81.5069 222.071 82.1857 222.766L82.1858 222.766C82.5229 223.112 82.9621 223.282 83.4008 223.282C83.8396 223.282 84.2787 223.112 84.6159 222.766L84.6161 222.766L86.2591 221.085L86.6167 220.719L86.9743 221.085L88.6168 222.766C88.6168 222.766 88.6169 222.766 88.6169 222.766C88.9546 223.112 89.3939 223.282 89.8326 223.282C90.2707 223.282 90.71 223.112 91.0478 222.766L91.0479 222.766C91.7268 222.072 91.727 220.941 91.0483 220.246C91.0482 220.246 91.0482 220.246 91.0482 220.246L89.4048 218.564L89.0633 218.215L89.4048 217.865L91.0481 216.183L86.6167 215.711ZM86.6167 215.711L86.9744 215.345M86.6167 215.711L86.9744 215.345M86.9744 215.345L88.6168 213.664C88.6168 213.664 88.6169 213.664 88.6169 213.663M86.9744 215.345L88.6169 213.663M88.6169 213.663C89.2897 212.975 90.3746 212.975 91.0474 213.663M88.6169 213.663L91.0474 213.663M91.0474 213.663C91.7263 214.357 91.7265 215.488 91.0483 216.183L91.0474 213.663Z" fill="#E16168" stroke="#E16168"/>
<path d="M115.734 215.711L115.377 215.345L113.734 213.664L113.734 213.663C113.061 212.975 111.976 212.975 111.303 213.663C110.624 214.358 110.624 215.488 111.303 216.183L112.947 217.865L113.288 218.215L112.947 218.564L111.303 220.246C110.625 220.94 110.625 222.071 111.303 222.766L111.303 222.766C111.641 223.112 112.08 223.282 112.519 223.282C112.957 223.282 113.396 223.112 113.734 222.766L113.734 222.766L115.377 221.085L115.734 220.719L116.092 221.085L117.735 222.766C117.735 222.766 117.735 222.766 117.735 222.766C118.072 223.112 118.512 223.282 118.95 223.282C119.388 223.282 119.828 223.112 120.165 222.766L120.166 222.766C120.844 222.072 120.845 220.941 120.166 220.246C120.166 220.246 120.166 220.246 120.166 220.246L118.522 218.564L118.181 218.215L118.522 217.865L120.166 216.183L115.734 215.711ZM115.734 215.711L116.092 215.345M115.734 215.711L116.092 215.345M116.092 215.345L117.735 213.664C117.735 213.664 117.735 213.664 117.735 213.663M116.092 215.345L117.735 213.663M117.735 213.663C118.407 212.975 119.492 212.975 120.165 213.663M117.735 213.663L120.165 213.663M120.165 213.663C120.844 214.357 120.844 215.488 120.166 216.183L120.165 213.663Z" fill="#E16168" stroke="#E16168"/>
<path d="M143.97 215.711L143.612 215.345L141.969 213.664L141.969 213.663C141.297 212.975 140.211 212.975 139.539 213.663C138.86 214.358 138.859 215.488 139.539 216.183L141.182 217.865L141.524 218.215L141.182 218.564L139.539 220.246C138.86 220.94 138.86 222.071 139.539 222.766L139.539 222.766C139.876 223.112 140.315 223.282 140.754 223.282C141.193 223.282 141.632 223.112 141.969 222.766L141.969 222.766L143.612 221.085L143.97 220.719L144.327 221.085L145.97 222.766C145.97 222.766 145.97 222.766 145.97 222.766C146.308 223.112 146.747 223.282 147.186 223.282C147.624 223.282 148.063 223.112 148.401 222.766L148.401 222.766C149.08 222.072 149.08 220.941 148.401 220.246C148.401 220.246 148.401 220.246 148.401 220.246L146.758 218.564L146.416 218.215L146.758 217.865L148.401 216.183L143.97 215.711ZM143.97 215.711L144.327 215.345M143.97 215.711L144.327 215.345M144.327 215.345L145.97 213.664C145.97 213.664 145.97 213.664 145.97 213.663M144.327 215.345L145.97 213.663M145.97 213.663C146.643 212.975 147.728 212.975 148.4 213.663M145.97 213.663L148.4 213.663M148.4 213.663C149.079 214.357 149.08 215.488 148.401 216.183L148.4 213.663Z" fill="#E16168" stroke="#E16168"/>
<path d="M169.707 215.271L169.349 214.905L167.706 213.224L167.706 213.224C167.034 212.535 165.948 212.536 165.276 213.223C164.597 213.918 164.597 215.048 165.276 215.744L166.919 217.425L167.261 217.775L166.919 218.124L165.276 219.806C164.597 220.501 164.597 221.631 165.276 222.326L165.276 222.327C165.613 222.672 166.052 222.842 166.491 222.842C166.93 222.842 167.369 222.672 167.706 222.327L167.706 222.326L169.349 220.645L169.707 220.279L170.065 220.645L171.707 222.326C171.707 222.326 171.707 222.326 171.707 222.326C172.045 222.672 172.484 222.842 172.923 222.842C173.361 222.842 173.8 222.672 174.138 222.326L174.138 222.326C174.817 221.632 174.817 220.501 174.139 219.806C174.139 219.806 174.139 219.806 174.139 219.806L172.495 218.124L172.154 217.775L172.495 217.425L174.138 215.744L169.707 215.271ZM169.707 215.271L170.065 214.905M169.707 215.271L170.065 214.905M170.065 214.905L171.707 213.224C171.707 213.224 171.707 213.224 171.707 213.224M170.065 214.905L171.707 213.224M171.707 213.224C172.38 212.535 173.465 212.535 174.138 213.223M171.707 213.224L174.138 213.223M174.138 213.223C174.817 213.918 174.817 215.048 174.139 215.744L174.138 213.223Z" fill="#E16168" stroke="#E16168"/>
<path d="M143.087 153.946L142.73 153.58L141.087 151.899L141.087 151.899C140.414 151.21 139.329 151.211 138.656 151.898C137.977 152.593 137.977 153.723 138.656 154.418L140.3 156.1L140.641 156.45L140.3 156.799L138.656 158.481C137.978 159.175 137.978 160.306 138.656 161.001L138.657 161.001C138.994 161.347 139.433 161.517 139.872 161.517C140.31 161.517 140.749 161.347 141.087 161.001L141.087 161.001L142.73 159.32L143.087 158.954L143.445 159.32L145.088 161.001C145.088 161.001 145.088 161.001 145.088 161.001C145.425 161.347 145.865 161.517 146.303 161.517C146.741 161.517 147.181 161.347 147.518 161.001L147.519 161.001C148.197 160.307 148.198 159.176 147.519 158.481C147.519 158.481 147.519 158.481 147.519 158.481L145.875 156.799L145.534 156.45L145.875 156.1L147.519 154.419L143.087 153.946ZM143.087 153.946L143.445 153.58M143.087 153.946L143.445 153.58M143.445 153.58L145.088 151.899C145.088 151.899 145.088 151.899 145.088 151.899M143.445 153.58L145.088 151.899M145.088 151.899C145.76 151.21 146.845 151.21 147.518 151.898M145.088 151.899L147.518 151.898M147.518 151.898C148.197 152.593 148.197 153.723 147.519 154.418L147.518 151.898Z" fill="#E16168" stroke="#E16168"/>
<path d="M171.323 153.946L170.965 153.58L169.322 151.899L169.322 151.899C168.65 151.21 167.564 151.211 166.892 151.898C166.213 152.593 166.212 153.723 166.892 154.418L168.535 156.1L168.877 156.45L168.535 156.799L166.892 158.481C166.213 159.175 166.213 160.306 166.892 161.001L166.892 161.001C167.229 161.347 167.668 161.517 168.107 161.517C168.546 161.517 168.985 161.347 169.322 161.001L169.322 161.001L170.965 159.32L171.323 158.954L171.68 159.32L173.323 161.001C173.323 161.001 173.323 161.001 173.323 161.001C173.661 161.347 174.1 161.517 174.539 161.517C174.977 161.517 175.416 161.347 175.754 161.001L175.754 161.001C176.433 160.307 176.433 159.176 175.754 158.481C175.754 158.481 175.754 158.481 175.754 158.481L174.111 156.799L173.769 156.45L174.111 156.1L175.754 154.419L171.323 153.946ZM171.323 153.946L171.68 153.58M171.323 153.946L171.68 153.58M171.68 153.58L173.323 151.899C173.323 151.899 173.323 151.899 173.323 151.899M171.68 153.58L173.323 151.899M173.323 151.899C173.996 151.21 175.081 151.21 175.753 151.898M173.323 151.899L175.753 151.898M175.753 151.898C176.432 152.593 176.433 153.723 175.754 154.418L175.753 151.898Z" fill="#E16168" stroke="#E16168"/>
</g>
<defs>
<clipPath id="clip0_221_3600">
<rect width="300" height="302.647" fill="white"/>
</clipPath>
</defs>
</svg>
