<svg width="200" height="203" viewBox="0 0 200 203" fill="none" xmlns="http://www.w3.org/2000/svg">
<g opacity="0.6">
<path d="M120.213 201.708H42.781C39.2432 201.708 35.8483 200.32 33.3342 197.845L27.0727 191.681C25.8673 190.495 26.7123 188.452 28.4085 188.452H134.586C136.282 188.452 137.127 190.495 135.922 191.681L129.66 197.845C127.146 200.32 123.751 201.708 120.213 201.708ZM168.972 131.021C168.972 144.332 158.12 155.123 144.733 155.123C139.957 155.123 135.504 153.748 131.751 151.377C129.236 170.766 112.458 185.873 92.3021 185.873H70.6925C48.8167 185.873 30.9183 168.077 30.9183 146.326V104.352C30.9183 100.89 33.7665 98.0584 37.2477 98.0584C66.7474 99.9268 96.2471 99.9268 125.747 98.0584C129.228 98.0584 132.076 100.89 132.076 104.352V110.464C135.76 108.217 140.094 106.92 144.733 106.92C158.12 106.92 168.972 117.711 168.972 131.021ZM161.262 131.021C161.262 121.944 153.862 114.586 144.733 114.586C139.653 114.586 135.108 116.866 132.076 120.452V141.591C135.108 145.177 139.653 147.457 144.733 147.457C153.862 147.457 161.262 140.098 161.262 131.021Z" fill="#EBD23A"/>
<path d="M54.3851 98.3294C54.3851 98.3294 54.4373 98.2708 54.5385 98.1574C54.5891 98.1007 54.6519 98.0302 54.7266 97.9465C54.8002 97.8618 54.8797 97.761 54.9725 97.6508C55.336 97.2039 55.8463 96.5273 56.3522 95.6124C56.8533 94.6956 57.3518 93.5374 57.6752 92.1714C57.8318 91.4878 57.9607 90.7589 58.0112 89.9897C58.0388 89.6057 58.0485 89.2131 58.0481 88.8145C58.0376 88.4153 58.0192 88.0099 57.9681 87.6013C57.9248 87.1923 57.8511 86.7816 57.7687 86.3694C57.6696 85.9601 57.5723 85.5463 57.4285 85.1421C57.3971 85.0398 57.3598 84.9392 57.3205 84.8391C57.2825 84.7389 57.2444 84.6383 57.2061 84.5373C57.1197 84.3396 57.0421 84.1378 56.943 83.9445C56.8538 83.7468 56.7455 83.5575 56.644 83.3649L56.625 83.3287C56.6328 83.3457 56.5941 83.2652 56.64 83.3622L56.6276 83.341L56.5779 83.2559L56.478 83.0854C56.4114 82.9715 56.3444 82.8572 56.2773 82.7425L56.2273 82.6582L56.1811 82.5927L56.0893 82.4616C56.0292 82.3741 55.9688 82.2862 55.9083 82.1981L55.8636 82.1315L55.8101 82.0595L55.7034 81.9153C55.6324 81.8191 55.5613 81.7226 55.4899 81.6258C55.3438 81.4331 55.1831 81.2418 55.0303 81.0483C54.8723 80.8547 54.7032 80.6615 54.5398 80.4667C53.8631 79.6899 53.1058 78.9 52.3062 78.0574C51.5073 77.2147 50.6689 76.3155 49.8482 75.3043L49.5423 74.9218L49.2423 74.5213C49.1429 74.386 49.0408 74.2554 48.9437 74.1153L48.6535 73.6913L48.5085 73.4783L48.4726 73.4248L48.4061 73.3157L48.3472 73.219L48.1115 72.8318L47.9934 72.6378C47.9747 72.6089 47.9522 72.5674 47.9296 72.5255L47.8628 72.4022L47.5971 71.9064L47.4654 71.6572C47.4247 71.5758 47.3897 71.4979 47.3516 71.4179L47.1302 70.9388L47.0208 70.6983L46.9225 70.4533L46.7268 69.962C46.6587 69.7988 46.6024 69.6319 46.5459 69.4647L46.3756 68.9629C46.2642 68.6274 46.1805 68.2838 46.0831 67.9433C45.7268 66.5732 45.5248 65.1594 45.4794 63.7381C45.4396 62.3171 45.5486 60.8879 45.8279 59.4911C45.9664 58.7901 46.1401 58.1066 46.3625 57.4194L46.5089 56.9778L46.6989 56.4577L46.795 56.1994L46.8923 55.9619L47.0894 55.4889C47.3656 54.8713 47.6517 54.2654 47.9587 53.6906C48.2641 53.1109 48.5854 52.5598 48.9059 52.0178C49.5558 50.9448 50.2198 49.9388 50.8651 48.9782C51.1826 48.504 51.4974 48.0337 51.8092 47.5679C51.8856 47.4526 51.9618 47.3376 52.0378 47.2229C52.1117 47.1089 52.1854 46.9952 52.259 46.8818C52.3345 46.7655 52.4099 46.6494 52.4851 46.5337C52.5548 46.4242 52.6243 46.3149 52.6937 46.206C52.8339 45.9908 52.9671 45.7621 53.1034 45.5423C53.2352 45.3205 53.3662 45.0999 53.4964 44.8808C53.6188 44.6605 53.7449 44.4417 53.8629 44.2232C53.9749 44.0038 54.1 43.7881 54.2056 43.5708C55.0867 41.8379 55.6689 40.1449 55.8648 38.5379C55.8983 38.3365 55.9083 38.1381 55.9235 37.9402C55.9309 37.8485 55.9382 37.7574 55.9455 37.6668C55.9463 37.557 55.9472 37.4478 55.9481 37.3393C55.9477 37.2543 55.9473 37.1698 55.9469 37.0857C55.9418 36.9924 55.9368 36.8997 55.9317 36.8075C55.9154 36.6231 55.9017 36.4387 55.8771 36.257C55.8303 35.8933 55.76 35.5381 55.6712 35.1953C55.581 34.8528 55.4688 34.5251 55.3507 34.2081C55.1111 33.5744 54.7991 33.0129 54.472 32.5133C54.1384 32.0187 53.7752 31.5957 53.4089 31.2473C52.6727 30.552 51.934 30.1517 51.4034 29.9393C51.2711 29.8824 51.1508 29.8413 51.0462 29.8048C50.9419 29.7659 50.8524 29.7381 50.7795 29.7188C50.6331 29.677 50.5576 29.6554 50.5576 29.6554C50.5576 29.6554 50.6362 29.6495 50.7885 29.6381C50.8654 29.6309 50.9608 29.6258 51.0746 29.6262C51.1891 29.6229 51.322 29.6236 51.4721 29.6356C51.774 29.6507 52.1487 29.6979 52.582 29.8101C53.0164 29.9183 53.5084 30.0954 54.0304 30.366C55.0746 30.9013 56.2278 31.839 57.1809 33.2217C57.661 33.9101 58.0761 34.7135 58.4037 35.618C58.4861 35.844 58.5596 36.0776 58.6257 36.3173C58.6563 36.4382 58.6872 36.5598 58.7181 36.6821C58.7453 36.815 58.7726 36.9486 58.8001 37.083C58.8207 37.1948 58.8414 37.3072 58.8622 37.4202L58.8697 37.4617C58.869 37.4422 58.8751 37.5114 58.8754 37.5132L58.8783 37.5367L58.8898 37.6311L58.9126 37.8211C58.9428 38.0753 58.977 38.334 58.9865 38.5947C59.0547 39.6403 58.9895 40.7344 58.8085 41.8328C58.6279 42.9321 58.3326 44.0359 57.9525 45.1241C57.573 46.2156 57.1131 47.2837 56.5925 48.3458C56.5264 48.4801 56.46 48.6147 56.3935 48.7497C56.3294 48.8768 56.2652 49.0043 56.2008 49.132C56.1333 49.2621 56.0656 49.3926 55.9978 49.5233C55.9295 49.6518 55.8611 49.7807 55.7924 49.9098C55.5179 50.4268 55.2396 50.937 54.9568 51.4454C54.3971 52.461 53.8337 53.4635 53.3142 54.4657C53.0575 54.9651 52.8036 55.4655 52.5772 55.9659C52.3392 56.4649 52.133 56.9646 51.9351 57.4648L51.798 57.84L51.7279 58.0271L51.6712 58.1993L51.5563 58.5415L51.4284 58.974L51.364 59.194L51.3479 59.2491C51.376 59.1562 51.3525 59.2368 51.3574 59.2221L51.3519 59.2455L51.33 59.3392L51.2398 59.7134L51.193 59.9001C51.1789 59.9628 51.1689 60.0266 51.1565 60.0898L51.0842 60.4695C50.9076 61.4858 50.8279 62.5289 50.8627 63.5719C50.889 64.6152 51.0341 65.6567 51.2705 66.67C51.3391 66.9208 51.3932 67.1759 51.4701 67.4236L51.5832 67.7957C51.62 67.9201 51.6563 68.0446 51.7034 68.1649L51.8349 68.5294L51.9 68.7119L51.975 68.8897L52.124 69.2456L52.1971 69.4224L52.272 69.5794L52.4189 69.8949L52.455 69.9741C52.4664 69.9999 52.478 70.026 52.4987 70.0618L52.6078 70.2609L52.8258 70.6583L52.8802 70.7575L52.8938 70.7823C52.9302 70.8442 52.8596 70.7262 52.8714 70.7456L52.8969 70.7871L52.9974 70.9537L53.1972 71.2873C53.2644 71.3985 53.3418 71.5087 53.4133 71.6195L53.632 71.9514L53.8669 72.2823C54.4896 73.1684 55.1967 74.0491 55.9168 74.9551C56.6372 75.8606 57.3764 76.7903 58.0606 77.7798C58.2299 78.0318 58.4003 78.2771 58.5645 78.5304C58.7242 78.7906 58.8865 79.0423 59.0391 79.3045C59.114 79.4372 59.1887 79.5696 59.2632 79.7015L59.3742 79.8989L59.4294 79.9974L59.4849 80.1058C59.5575 80.2511 59.63 80.3958 59.7021 80.5402L59.8084 80.7563L59.8611 80.8641L59.9007 80.9574C60.0121 81.224 60.1226 81.4888 60.2324 81.7517C60.3394 82.0384 60.4427 82.3232 60.5265 82.6109C60.6198 82.8956 60.6873 83.1842 60.7611 83.4675C60.7948 83.6098 60.8225 83.7528 60.8517 83.8945C60.8816 84.0361 60.9087 84.1773 60.9291 84.3189C61.0288 84.8823 61.0746 85.4398 61.1039 85.9832C61.1182 86.5276 61.1223 87.0588 61.0752 87.5747C60.927 89.6412 60.3391 91.4374 59.6163 92.8879C58.8865 94.3415 58.0128 95.4523 57.2118 96.2566C56.8082 96.6577 56.4312 96.992 56.0813 97.2547C55.9951 97.3209 55.9121 97.3848 55.8324 97.446C55.7499 97.5035 55.6707 97.5585 55.595 97.6112C55.5192 97.6629 55.4469 97.7122 55.3781 97.7591C55.3069 97.8034 55.2394 97.8454 55.1756 97.8851C54.9236 98.0474 54.7236 98.1492 54.5888 98.2207C54.4544 98.2924 54.3851 98.3294 54.3851 98.3294Z" fill="#EBD23A"/>
<path d="M82.2646 100.294C82.2646 100.294 82.2164 100.2 82.123 100.017C82.0304 99.8332 81.8887 99.5627 81.7139 99.2058C81.5366 98.8498 81.3199 98.4098 81.0727 97.8889C80.8235 97.3686 80.5431 96.7676 80.242 96.0868C79.9344 95.4085 79.6179 94.6462 79.2841 93.8076C78.9462 92.9702 78.6211 92.0463 78.2977 91.0437C77.9738 90.0409 77.6836 88.9511 77.4299 87.7793C77.3987 87.6325 77.3673 87.4848 77.3358 87.3362C77.3086 87.1856 77.2812 87.0341 77.2537 86.8816C77.2279 86.7362 77.202 86.5899 77.1759 86.4427C77.1533 86.284 77.1305 86.1244 77.1076 85.9639C77.0854 85.8029 77.0631 85.6409 77.0407 85.4781C77.023 85.3178 77.0053 85.1566 76.9875 84.9946C76.9478 84.6704 76.9244 84.3405 76.8995 84.0064C76.8057 82.6699 76.82 81.2572 76.9848 79.7881C77.0293 79.4213 77.0683 79.0494 77.1401 78.6775C77.1736 78.4913 77.2021 78.3035 77.2407 78.1161C77.2816 77.9287 77.3227 77.7407 77.364 77.5519L77.4268 77.2679L77.5023 76.9847C77.5533 76.7953 77.6044 76.6052 77.6558 76.4145C77.7112 76.2244 77.7752 76.0354 77.8354 75.8446C77.8977 75.6543 77.9546 75.4614 78.0298 75.2729C78.1723 74.8936 78.3118 74.5089 78.4876 74.1338C78.5749 73.9463 78.6514 73.7531 78.7497 73.5684C78.8454 73.3823 78.9415 73.1956 79.0378 73.0084L79.1106 72.8679L79.1288 72.8327L79.1788 72.7501L79.2139 72.6897L79.3548 72.4478C79.4497 72.2855 79.5449 72.1227 79.6404 71.9594C79.765 71.7718 79.89 71.5836 80.0153 71.3949L80.2059 71.112C80.2698 71.016 80.3335 70.9379 80.3977 70.8498C80.5264 70.6783 80.6554 70.5063 80.7848 70.3339C80.9128 70.1595 81.0562 70.0009 81.1924 69.833C81.3316 69.6688 81.4672 69.4979 81.6143 69.3407C81.7611 69.1827 81.9083 69.0243 82.0559 68.8655C82.2017 68.7039 82.3561 68.5533 82.5109 68.402C82.6657 68.2504 82.8209 68.0984 82.9765 67.9461C83.1371 67.8013 83.298 67.6561 83.4594 67.5106C83.6207 67.3643 83.784 67.2204 83.9524 67.0846C85.2823 65.966 86.7226 64.9756 88.2184 64.0966C88.966 63.6516 89.7299 63.2454 90.4989 62.8434C90.6921 62.7467 90.8854 62.6498 91.079 62.5529L91.3844 62.4018L91.6642 62.2676L92.2258 61.9984L92.8172 61.7233C95.9295 60.2889 99.0314 59.0719 101.855 57.6111C102.564 57.2504 103.248 56.8699 103.915 56.4734L104.41 56.1716L104.472 56.134C104.464 56.1392 104.532 56.0958 104.462 56.1409L104.495 56.1192L104.628 56.0328L104.893 55.8607C105.274 55.6206 105.526 55.429 105.825 55.2236C107.025 54.3425 108.156 53.3617 109.1 52.2877C111.016 50.1472 112.198 47.6522 112.342 45.1183C112.378 44.4822 112.355 43.8407 112.277 43.2024C112.198 42.5643 112.066 41.9294 111.889 41.3052C111.711 40.6813 111.484 40.0693 111.224 39.4734C110.962 38.8777 110.659 38.3014 110.334 37.7424C109.679 36.6252 108.9 35.602 108.062 34.6778C107.644 34.2149 107.209 33.7785 106.761 33.3697C106.649 33.2681 106.539 33.1646 106.424 33.0683C106.317 32.9765 106.211 32.8851 106.105 32.7942C105.851 32.5943 105.601 32.3935 105.355 32.194C104.449 31.4852 103.466 30.8374 102.521 30.2585C101.575 29.6716 100.625 29.1854 99.7295 28.7203C97.9243 27.8156 96.281 27.1099 94.9199 26.5347C93.549 25.967 92.4718 25.521 91.7373 25.2169C91.0013 24.9075 90.6088 24.7425 90.6088 24.7425C90.6088 24.7425 90.7143 24.7574 90.9188 24.7862C91.1231 24.8159 91.4274 24.8555 91.8218 24.9172C92.2165 24.9787 92.704 25.0506 93.2746 25.1503C93.8467 25.2435 94.502 25.3631 95.236 25.5052C96.7039 25.791 98.4834 26.1856 100.507 26.8002C100.761 26.8746 101.016 26.9609 101.276 27.046C101.535 27.1321 101.8 27.2186 102.064 27.3184C102.33 27.4159 102.6 27.5148 102.873 27.615C103.145 27.7239 103.42 27.8342 103.699 27.9459C104.813 28.4113 105.946 28.9595 107.149 29.6537C107.422 29.8165 107.696 29.9819 107.972 30.1517L108.024 30.1834L108.05 30.1993L108.106 30.2381L108.215 30.3111L108.435 30.4578C108.582 30.5545 108.726 30.6587 108.871 30.7615C109.452 31.1752 110.025 31.6245 110.586 32.1108C111.706 33.085 112.759 34.223 113.713 35.5127C114.191 36.1577 114.633 36.848 115.038 37.5787C115.443 38.3089 115.805 39.083 116.112 39.8976C116.42 40.7115 116.67 41.5673 116.844 42.4571C117.019 43.3462 117.122 44.2695 117.126 45.2097C117.122 45.4476 117.124 45.6744 117.113 45.9234L117.089 46.3082C117.08 46.4349 117.071 46.5763 117.061 46.6623L117.031 46.9592L117.016 47.1079L116.994 47.2508L116.979 47.339C116.939 47.5744 116.898 47.8102 116.857 48.0465C116.823 48.2848 116.755 48.5138 116.7 48.7475C116.639 48.979 116.59 49.2165 116.516 49.444C116.366 49.8983 116.23 50.3634 116.038 50.8013C115.69 51.6987 115.236 52.5412 114.75 53.3615C114.492 53.7589 114.241 54.167 113.955 54.543C113.814 54.7328 113.68 54.93 113.532 55.1136L113.087 55.6641C112.941 55.8509 112.782 56.0229 112.625 56.1983C112.467 56.3716 112.313 56.5516 112.149 56.719C111.82 57.0511 111.496 57.3938 111.149 57.7055C110.47 58.3543 109.748 58.9328 108.999 59.5022C107.495 60.6204 105.926 61.5443 104.334 62.3655C101.148 64.0028 97.9223 65.2006 94.9572 66.4661L94.4105 66.6983L93.8423 66.948L93.5582 67.073L93.3041 67.1888L92.7679 67.4325C92.062 67.7648 91.3622 68.099 90.6936 68.4602C89.3423 69.1656 88.0825 69.9446 86.9321 70.7905C85.7752 71.6319 84.7667 72.5713 83.8875 73.5665C83.8343 73.6278 83.7715 73.6918 83.7259 73.7506L83.5837 73.9277C83.4875 74.0452 83.3916 74.1624 83.296 74.2793C83.1884 74.4321 83.0811 74.5845 82.9742 74.7365L82.8135 74.9658L82.7734 75.023C82.7812 75.0092 82.7276 75.0944 82.7859 74.9992L82.7699 75.0248L82.7061 75.1271C82.6204 75.2633 82.535 75.3992 82.4499 75.5346C82.3614 75.6683 82.2921 75.8137 82.2119 75.952C82.1375 76.0936 82.0482 76.227 81.9804 76.3721C81.9086 76.5154 81.8371 76.6581 81.7657 76.8004C81.2012 77.9467 80.8225 79.1648 80.53 80.3748C80.2361 81.5873 80.0884 82.8071 80.0066 83.9915C79.9877 84.2879 79.9668 84.582 79.9623 84.8742C79.9579 85.0205 79.9536 85.1659 79.9492 85.3105C79.9489 85.452 79.9487 85.5927 79.9484 85.7326C79.9484 85.8729 79.9483 86.0125 79.9483 86.1512C79.9538 86.3005 79.9593 86.449 79.9647 86.5966C79.9674 86.6703 79.9701 86.7439 79.9728 86.8172L79.976 86.9272L79.9776 86.982C79.9798 87.0088 79.9753 86.9762 79.9763 86.9891L79.9777 87.0153C79.9852 87.1551 79.9926 87.294 80 87.4321C80.0576 88.5383 80.1838 89.5915 80.3166 90.5866C80.5931 92.576 80.9602 94.3178 81.2656 95.756C81.5852 97.1979 81.8363 98.3308 82.0075 99.1032C82.1752 99.88 82.2646 100.294 82.2646 100.294Z" fill="#EBD23A"/>
<path d="M112.509 98.9468C112.509 98.9468 112.13 98.8695 111.419 98.7246C111.064 98.6501 110.631 98.5234 110.115 98.3838C109.856 98.3132 109.589 98.2178 109.298 98.1244C109.008 98.0272 108.698 97.9277 108.38 97.7977C107.092 97.3168 105.556 96.6138 103.907 95.5852C102.26 94.558 100.503 93.201 98.8006 91.4662C98.5904 91.2474 98.3831 91.021 98.1743 90.7913C98.0699 90.6763 97.9648 90.5608 97.8593 90.4446C97.7589 90.3242 97.658 90.2031 97.5566 90.0815C97.3551 89.8369 97.1484 89.5916 96.9456 89.3391C96.751 89.08 96.5547 88.8185 96.3567 88.5549C96.1535 88.2937 95.9711 88.015 95.7841 87.7354C95.6907 87.5953 95.597 87.4546 95.5028 87.3134L95.4322 87.2073L95.3968 87.1541C95.3952 87.1537 95.345 87.061 95.359 87.0882L95.3436 87.0627L95.2199 86.8581C95.055 86.5847 94.8888 86.3091 94.7214 86.0316C94.553 85.7147 94.3834 85.3956 94.2125 85.0742C94.0337 84.748 93.893 84.4302 93.7393 84.105C93.664 83.9424 93.5884 83.7793 93.5126 83.6157C93.4347 83.4527 93.3731 83.2831 93.3023 83.1161C93.1676 82.7796 93.0211 82.4438 92.8946 82.0989C92.7733 81.7519 92.6513 81.4029 92.5286 81.0519C92.0685 79.6374 91.7072 78.1541 91.4606 76.622C91.2079 75.0903 91.0984 73.5073 91.1101 71.9024C91.1273 70.2975 91.274 68.669 91.5705 67.047L91.6928 66.44L91.8243 65.8114L91.9584 65.2573L92.1144 64.6555C92.3173 63.8881 92.5297 63.1548 92.7253 62.4501C93.1131 61.0404 93.4205 59.7391 93.4802 58.5546L93.4862 58.3352L93.4903 58.2255L93.4924 58.1706C93.4935 58.2145 93.4916 58.0337 93.4951 58.2621L93.4938 58.2264L93.4737 57.6549C93.4724 57.2131 93.4147 57.0424 93.3904 56.7853L93.3802 56.6937C93.377 56.6631 93.3755 56.6341 93.3653 56.5958L93.3179 56.3794C93.2865 56.2352 93.2576 56.0905 93.2296 55.9455C93.1979 55.8008 93.1467 55.658 93.1076 55.5138C93.0629 55.3703 93.0315 55.2247 92.9783 55.0821C92.5801 53.9376 91.9826 52.8131 91.238 51.7524C90.8724 51.2184 90.4577 50.7065 90.0275 50.2066C89.815 49.9545 89.5812 49.7161 89.3606 49.4698C89.1297 49.2305 88.8904 48.9978 88.6571 48.7613C88.4116 48.5338 88.1669 48.3071 87.9229 48.081C87.6684 47.8642 87.4218 47.6401 87.1634 47.4292C87.0335 47.3245 86.9037 47.22 86.7742 47.1156L86.5807 46.9581L86.5566 46.9383C86.5437 46.9281 86.5857 46.9579 86.555 46.9355L86.501 46.8943L86.393 46.812C86.2491 46.7024 86.1055 46.5929 85.9622 46.4837L85.7486 46.3215L85.5478 46.175C85.2788 45.9792 85.0201 45.7864 84.7343 45.587C84.4551 45.3888 84.1783 45.1907 83.8935 44.9974C83.6116 44.8029 83.3302 44.6094 83.0439 44.4185C82.7585 44.2257 82.4746 44.0339 82.1921 43.8431C81.0537 43.0812 79.9165 42.324 78.814 41.5467C76.6064 39.9965 74.5519 38.3428 72.8932 36.5267C72.0551 35.5958 71.3502 34.66 70.7534 33.7103C70.1651 32.7589 69.6759 31.8175 69.3088 30.894C68.9411 29.9718 68.6722 29.0803 68.507 28.2414C68.3436 27.4015 68.2667 26.6199 68.2669 25.9165C68.2561 24.5071 68.5206 23.4355 68.748 22.7427C68.8641 22.395 68.9692 22.1366 69.0477 21.9658C69.1235 21.795 69.1626 21.7068 69.1626 21.7068C69.1626 21.7068 69.1503 21.8023 69.1265 21.9873C69.0988 22.1705 69.0779 22.4463 69.0557 22.7998C69.0513 22.9778 69.0376 23.1739 69.0459 23.3912C69.0495 23.4997 69.0452 23.6117 69.052 23.7293C69.0588 23.8463 69.0658 23.9681 69.073 24.0946C69.1156 24.599 69.194 25.1715 69.3425 25.7944C69.4946 26.4165 69.7055 27.0899 70.0062 27.7911C70.3157 28.4892 70.687 29.2235 71.1658 29.9586C71.404 30.3264 71.6643 30.696 71.9407 31.0682C72.2234 31.4372 72.5261 31.8063 72.8513 32.1715C73.1815 32.5332 73.5237 32.8983 73.8911 33.2543C74.2563 33.6078 74.6559 33.9617 75.0562 34.2881C75.8802 34.9647 76.8069 35.6249 77.8014 36.2559C78.7963 36.8907 79.8612 37.5116 80.9859 38.1366C82.1334 38.7637 83.3122 39.4079 84.517 40.0664C85.1285 40.4014 85.7508 40.7487 86.3778 41.1155C87.0073 41.4799 87.6336 41.8544 88.2933 42.278L88.5386 42.4335L88.7658 42.583C88.9162 42.6823 89.0669 42.7819 89.2179 42.8816L89.3312 42.9565L89.388 42.9939C89.3757 42.9845 89.4362 43.0275 89.4412 43.0311L89.4712 43.0523L89.7117 43.2228C89.8718 43.3373 90.0321 43.4521 90.1928 43.567C90.5128 43.7992 90.8239 44.0483 91.1414 44.2906C91.453 44.5418 91.7611 44.8016 92.0702 45.0616C92.37 45.3353 92.6741 45.6055 92.9719 45.8868C93.2624 46.1782 93.562 46.4599 93.846 46.7641C94.4128 47.3729 94.9662 48.0083 95.4782 48.6959C96.5028 50.0646 97.4052 51.6078 98.0271 53.3296C98.1082 53.5425 98.1685 53.7669 98.239 53.9857C98.3044 54.2069 98.3794 54.4242 98.4346 54.6497L98.5861 55.3322L98.6587 55.6743C98.672 55.7285 98.6801 55.7944 98.6889 55.8582L98.7147 56.05C98.7486 56.3059 98.78 56.5624 98.8087 56.8189C98.8461 57.1053 98.8407 57.2544 98.8514 57.4541L98.8746 58.0254L98.876 58.0611C98.8799 58.3133 98.8765 58.1563 98.8771 58.224L98.8749 58.3121L98.8701 58.4882L98.8585 58.8403C98.7494 60.7079 98.3091 62.3879 97.8666 63.8966C97.6494 64.6199 97.4327 65.3418 97.2166 66.0616L97.0747 66.5532L96.9284 67.0951C96.8513 67.4185 96.7743 67.7413 96.6975 68.0635C96.4105 69.3874 96.2265 70.7281 96.146 72.0637C96.062 73.3988 96.0746 74.7306 96.1956 76.0343C96.3122 77.3386 96.5199 78.6158 96.7999 79.8532C96.8778 80.1608 96.9551 80.4667 97.0321 80.7708C97.1104 81.0751 97.2081 81.3714 97.2939 81.6705C97.3402 81.8187 97.3774 81.9702 97.4307 82.115C97.4818 82.2608 97.5327 82.4061 97.5834 82.551C97.6856 82.839 97.7785 83.1395 97.8899 83.402C97.9973 83.6747 98.1038 83.9456 98.2097 84.2145C98.3438 84.5093 98.477 84.802 98.6092 85.0925L98.7079 85.3101L98.7202 85.3373C98.7438 85.3818 98.7019 85.3072 98.7109 85.3237L98.7359 85.3729L98.7861 85.4712C98.8528 85.6024 98.9193 85.733 98.9855 85.8632C99.1201 86.1226 99.2412 86.3881 99.3885 86.6361C99.5298 86.8885 99.6699 87.1388 99.8088 87.3869C99.9593 87.6289 100.108 87.8687 100.256 88.1064C100.331 88.2253 100.405 88.3436 100.479 88.4614C100.558 88.5757 100.637 88.6894 100.716 88.8025C100.872 89.0305 101.027 89.2562 101.18 89.4795C102.456 91.2343 103.829 92.7236 105.158 93.9441C106.485 95.1674 107.771 96.1162 108.872 96.8458C109.143 97.0378 109.411 97.1973 109.663 97.3521C109.915 97.5053 110.148 97.6633 110.372 97.7884C110.597 97.9154 110.805 98.033 110.996 98.1407C111.188 98.2495 111.36 98.3544 111.523 98.4332C112.166 98.7681 112.509 98.9468 112.509 98.9468Z" fill="#EBD23A"/>
</g>
<path d="M141.923 150.531L140.599 149.694L140.397 151.248C137.947 170.142 121.59 184.873 101.941 184.873H80.331C59.0021 184.873 41.5568 167.519 41.5568 146.326V104.352C41.5568 101.458 43.9355 99.0749 46.856 99.0585C76.3758 100.927 105.896 100.927 135.416 99.0585C138.336 99.0749 140.715 101.458 140.715 104.352V110.464V112.245L142.236 111.318C145.767 109.163 149.922 107.92 154.372 107.92C167.212 107.92 177.611 118.268 177.611 131.021C177.611 143.774 167.212 154.123 154.372 154.123C149.79 154.123 145.521 152.805 141.923 150.531ZM140.951 119.806L140.715 120.086V120.452V141.591V141.957L140.951 142.236C144.166 146.038 148.986 148.457 154.372 148.457C164.047 148.457 171.901 140.656 171.901 131.021C171.901 121.387 164.047 113.586 154.372 113.586C148.986 113.586 144.166 116.004 140.951 119.806ZM129.852 200.708H52.4196C49.1434 200.708 46.0008 199.422 43.6743 197.132L37.4127 190.969C36.8536 190.418 37.2335 189.452 38.0471 189.452H144.225C145.038 189.452 145.418 190.418 144.859 190.969L138.597 197.132C136.271 199.422 133.128 200.708 129.852 200.708Z" stroke="#F7921E" stroke-width="2"/>
<mask id="path-6-inside-1_202_26" fill="white">
<path d="M64.0236 98.3294C64.0236 98.3294 64.0758 98.2708 64.177 98.1574C64.2276 98.1007 64.2904 98.0302 64.3651 97.9465C64.4388 97.8618 64.5182 97.761 64.611 97.6508C64.9745 97.2039 65.4848 96.5273 65.9908 95.6124C66.4918 94.6956 66.9903 93.5374 67.3137 92.1714C67.4703 91.4878 67.5993 90.7589 67.6497 89.9897C67.6773 89.6057 67.687 89.2131 67.6866 88.8145C67.6761 88.4153 67.6578 88.0099 67.6066 87.6013C67.5634 87.1923 67.4897 86.7816 67.4072 86.3694C67.3081 85.9601 67.2109 85.5463 67.067 85.1421C67.0357 85.0398 66.9984 84.9392 66.959 84.8391C66.921 84.7389 66.8829 84.6383 66.8447 84.5373C66.7583 84.3396 66.6806 84.1378 66.5815 83.9445C66.4923 83.7468 66.384 83.5575 66.2826 83.3649L66.2635 83.3287C66.2713 83.3457 66.2327 83.2652 66.2786 83.3622L66.2662 83.341L66.2164 83.2559L66.1166 83.0854C66.0499 82.9715 65.983 82.8572 65.9159 82.7425L65.8659 82.6582L65.8197 82.5927L65.7279 82.4616C65.6677 82.3741 65.6074 82.2862 65.5469 82.1981L65.5021 82.1315L65.4487 82.0595L65.3419 81.9153C65.271 81.8191 65.1999 81.7226 65.1285 81.6258C64.9823 81.4331 64.8216 81.2418 64.6688 81.0483C64.5108 80.8547 64.3418 80.6615 64.1783 80.4667C63.5016 79.6899 62.7444 78.9 61.9448 78.0574C61.1458 77.2147 60.3074 76.3155 59.4868 75.3043L59.1809 74.9218L58.8808 74.5213C58.7815 74.386 58.6794 74.2554 58.5822 74.1153L58.292 73.6913L58.1471 73.4783L58.1111 73.4248L58.0446 73.3157L57.9858 73.219L57.75 72.8318L57.6319 72.6378C57.6133 72.6089 57.5908 72.5674 57.5682 72.5255L57.5013 72.4022L57.2356 71.9064L57.104 71.6572C57.0632 71.5758 57.0282 71.4979 56.9902 71.4179L56.7688 70.9388L56.6594 70.6983L56.561 70.4533L56.3653 69.962C56.2973 69.7988 56.2409 69.6319 56.1845 69.4647L56.0142 68.9629C55.9028 68.6274 55.819 68.2838 55.7217 67.9433C55.3653 66.5732 55.1634 65.1594 55.1179 63.7381C55.0781 62.3171 55.1871 60.8879 55.4665 59.4911C55.6049 58.7901 55.7786 58.1066 56.001 57.4194L56.1474 56.9778L56.3375 56.4577L56.4336 56.1994L56.5308 55.9619L56.7279 55.4889C57.0042 54.8713 57.2903 54.2654 57.5972 53.6906C57.9026 53.1109 58.224 52.5598 58.5445 52.0178C59.1944 50.9448 59.8583 49.9388 60.5037 48.9782C60.8211 48.504 61.1359 48.0337 61.4478 47.5679C61.5241 47.4526 61.6004 47.3376 61.6764 47.2229C61.7503 47.1089 61.824 46.9952 61.8975 46.8818C61.9731 46.7655 62.0484 46.6494 62.1236 46.5337C62.1933 46.4242 62.2629 46.3149 62.3322 46.206C62.4725 45.9908 62.6057 45.7621 62.742 45.5423C62.8737 45.3205 63.0047 45.0999 63.1349 44.8808C63.2574 44.6605 63.3834 44.4417 63.5014 44.2232C63.6135 44.0038 63.7386 43.7881 63.8442 43.5708C64.7252 41.8379 65.3075 40.1449 65.5034 38.5379C65.5368 38.3365 65.5468 38.1381 65.5621 37.9402C65.5694 37.8485 65.5767 37.7574 65.584 37.6668C65.5849 37.557 65.5858 37.4478 65.5866 37.3393C65.5862 37.2543 65.5859 37.1698 65.5855 37.0857C65.5804 36.9924 65.5753 36.8997 65.5703 36.8075C65.554 36.6231 65.5402 36.4387 65.5157 36.257C65.4689 35.8933 65.3985 35.5381 65.3097 35.1953C65.2196 34.8528 65.1074 34.5251 64.9893 34.2081C64.7497 33.5744 64.4377 33.0129 64.1105 32.5133C63.777 32.0187 63.4138 31.5957 63.0475 31.2473C62.3113 30.552 61.5726 30.1517 61.0419 29.9393C60.9097 29.8824 60.7894 29.8413 60.6847 29.8048C60.5805 29.7659 60.4909 29.7381 60.418 29.7188C60.2717 29.677 60.1961 29.6554 60.1961 29.6554C60.1961 29.6554 60.2747 29.6495 60.427 29.6381C60.5039 29.6309 60.5993 29.6258 60.7132 29.6262C60.8276 29.6229 60.9605 29.6236 61.1107 29.6356C61.4126 29.6507 61.7873 29.6979 62.2206 29.8101C62.655 29.9183 63.147 30.0954 63.6689 30.366C64.7132 30.9013 65.8664 31.839 66.8194 33.2217C67.2996 33.9101 67.7147 34.7135 68.0422 35.618C68.1247 35.844 68.1982 36.0776 68.2643 36.3173C68.2949 36.4382 68.3257 36.5598 68.3567 36.6821C68.3838 36.815 68.4112 36.9486 68.4386 37.083C68.4592 37.1948 68.4799 37.3072 68.5007 37.4202L68.5083 37.4617C68.5075 37.4422 68.5136 37.5114 68.514 37.5132L68.5168 37.5367L68.5283 37.6311L68.5512 37.8211C68.5814 38.0753 68.6156 38.334 68.625 38.5947C68.6932 39.6403 68.6281 40.7344 68.4471 41.8328C68.2665 42.9321 67.9711 44.0359 67.5911 45.1241C67.2116 46.2156 66.7517 47.2837 66.2311 48.3458C66.1649 48.4801 66.0986 48.6147 66.032 48.7497C65.968 48.8768 65.9037 49.0043 65.8394 49.132C65.7719 49.2621 65.7042 49.3926 65.6364 49.5233C65.5681 49.6518 65.4996 49.7807 65.431 49.9098C65.1564 50.4268 64.8782 50.937 64.5953 51.4454C64.0357 52.461 63.4723 53.4635 62.9528 54.4657C62.696 54.9651 62.4422 55.4655 62.2158 55.9659C61.9778 56.4649 61.7715 56.9646 61.5736 57.4648L61.4366 57.84L61.3665 58.0271L61.3097 58.1993L61.1948 58.5415L61.067 58.974L61.0025 59.194L60.9864 59.2491C61.0145 59.1562 60.9911 59.2368 60.9959 59.2221L60.9905 59.2455L60.9685 59.3392L60.8784 59.7134L60.8316 59.9001C60.8174 59.9628 60.8074 60.0266 60.795 60.0898L60.7228 60.4695C60.5462 61.4858 60.4665 62.5289 60.5013 63.5719C60.5276 64.6152 60.6727 65.6567 60.9091 66.67C60.9776 66.9208 61.0318 67.1759 61.1086 67.4236L61.2217 67.7957C61.2585 67.9201 61.2948 68.0446 61.3419 68.1649L61.4735 68.5294L61.5386 68.7119L61.6136 68.8897L61.7626 69.2456L61.8356 69.4224L61.9105 69.5794L62.0574 69.8949L62.0936 69.9741C62.1049 69.9999 62.1166 70.026 62.1372 70.0618L62.2464 70.2609L62.4643 70.6583L62.5187 70.7575L62.5323 70.7823C62.5687 70.8442 62.4981 70.7262 62.51 70.7456L62.5355 70.7871L62.636 70.9537L62.8358 71.2873C62.9029 71.3985 62.9804 71.5087 63.0518 71.6195L63.2706 71.9514L63.5054 72.2823C64.1282 73.1684 64.8353 74.0491 65.5554 74.9551C66.2757 75.8606 67.015 76.7903 67.6991 77.7798C67.8685 78.0318 68.0389 78.2771 68.203 78.5304C68.3627 78.7906 68.525 79.0423 68.6776 79.3045C68.7526 79.4372 68.8273 79.5696 68.9018 79.7015L69.0127 79.8989L69.0679 79.9974L69.1235 80.1058C69.1961 80.2511 69.2685 80.3958 69.3407 80.5402L69.447 80.7563L69.4996 80.8641L69.5393 80.9574C69.6506 81.224 69.7611 81.4888 69.8709 81.7517C69.9779 82.0384 70.0813 82.3232 70.1651 82.6109C70.2583 82.8956 70.3259 83.1842 70.3996 83.4675C70.4333 83.6098 70.4611 83.7528 70.4902 83.8945C70.5202 84.0361 70.5473 84.1773 70.5676 84.3189C70.6674 84.8823 70.7131 85.4398 70.7425 85.9832C70.7567 86.5276 70.7608 87.0588 70.7137 87.5747C70.5655 89.6412 69.9776 91.4374 69.2549 92.8879C68.525 94.3415 67.6514 95.4523 66.8503 96.2566C66.4468 96.6577 66.0698 96.992 65.7199 97.2547C65.6337 97.3209 65.5507 97.3848 65.471 97.446C65.3884 97.5035 65.3092 97.5585 65.2335 97.6112C65.1577 97.6629 65.0854 97.7122 65.0166 97.7591C64.9455 97.8034 64.878 97.8454 64.8142 97.8851C64.5622 98.0474 64.3622 98.1492 64.2274 98.2207C64.093 98.2924 64.0236 98.3294 64.0236 98.3294Z"/>
</mask>
<path d="M64.0236 98.3294C64.0236 98.3294 64.0758 98.2708 64.177 98.1574C64.2276 98.1007 64.2904 98.0302 64.3651 97.9465C64.4388 97.8618 64.5182 97.761 64.611 97.6508C64.9745 97.2039 65.4848 96.5273 65.9908 95.6124C66.4918 94.6956 66.9903 93.5374 67.3137 92.1714C67.4703 91.4878 67.5993 90.7589 67.6497 89.9897C67.6773 89.6057 67.687 89.2131 67.6866 88.8145C67.6761 88.4153 67.6578 88.0099 67.6066 87.6013C67.5634 87.1923 67.4897 86.7816 67.4072 86.3694C67.3081 85.9601 67.2109 85.5463 67.067 85.1421C67.0357 85.0398 66.9984 84.9392 66.959 84.8391C66.921 84.7389 66.8829 84.6383 66.8447 84.5373C66.7583 84.3396 66.6806 84.1378 66.5815 83.9445C66.4923 83.7468 66.384 83.5575 66.2826 83.3649L66.2635 83.3287C66.2713 83.3457 66.2327 83.2652 66.2786 83.3622L66.2662 83.341L66.2164 83.2559L66.1166 83.0854C66.0499 82.9715 65.983 82.8572 65.9159 82.7425L65.8659 82.6582L65.8197 82.5927L65.7279 82.4616C65.6677 82.3741 65.6074 82.2862 65.5469 82.1981L65.5021 82.1315L65.4487 82.0595L65.3419 81.9153C65.271 81.8191 65.1999 81.7226 65.1285 81.6258C64.9823 81.4331 64.8216 81.2418 64.6688 81.0483C64.5108 80.8547 64.3418 80.6615 64.1783 80.4667C63.5016 79.6899 62.7444 78.9 61.9448 78.0574C61.1458 77.2147 60.3074 76.3155 59.4868 75.3043L59.1809 74.9218L58.8808 74.5213C58.7815 74.386 58.6794 74.2554 58.5822 74.1153L58.292 73.6913L58.1471 73.4783L58.1111 73.4248L58.0446 73.3157L57.9858 73.219L57.75 72.8318L57.6319 72.6378C57.6133 72.6089 57.5908 72.5674 57.5682 72.5255L57.5013 72.4022L57.2356 71.9064L57.104 71.6572C57.0632 71.5758 57.0282 71.4979 56.9902 71.4179L56.7688 70.9388L56.6594 70.6983L56.561 70.4533L56.3653 69.962C56.2973 69.7988 56.2409 69.6319 56.1845 69.4647L56.0142 68.9629C55.9028 68.6274 55.819 68.2838 55.7217 67.9433C55.3653 66.5732 55.1634 65.1594 55.1179 63.7381C55.0781 62.3171 55.1871 60.8879 55.4665 59.4911C55.6049 58.7901 55.7786 58.1066 56.001 57.4194L56.1474 56.9778L56.3375 56.4577L56.4336 56.1994L56.5308 55.9619L56.7279 55.4889C57.0042 54.8713 57.2903 54.2654 57.5972 53.6906C57.9026 53.1109 58.224 52.5598 58.5445 52.0178C59.1944 50.9448 59.8583 49.9388 60.5037 48.9782C60.8211 48.504 61.1359 48.0337 61.4478 47.5679C61.5241 47.4526 61.6004 47.3376 61.6764 47.2229C61.7503 47.1089 61.824 46.9952 61.8975 46.8818C61.9731 46.7655 62.0484 46.6494 62.1236 46.5337C62.1933 46.4242 62.2629 46.3149 62.3322 46.206C62.4725 45.9908 62.6057 45.7621 62.742 45.5423C62.8737 45.3205 63.0047 45.0999 63.1349 44.8808C63.2574 44.6605 63.3834 44.4417 63.5014 44.2232C63.6135 44.0038 63.7386 43.7881 63.8442 43.5708C64.7252 41.8379 65.3075 40.1449 65.5034 38.5379C65.5368 38.3365 65.5468 38.1381 65.5621 37.9402C65.5694 37.8485 65.5767 37.7574 65.584 37.6668C65.5849 37.557 65.5858 37.4478 65.5866 37.3393C65.5862 37.2543 65.5859 37.1698 65.5855 37.0857C65.5804 36.9924 65.5753 36.8997 65.5703 36.8075C65.554 36.6231 65.5402 36.4387 65.5157 36.257C65.4689 35.8933 65.3985 35.5381 65.3097 35.1953C65.2196 34.8528 65.1074 34.5251 64.9893 34.2081C64.7497 33.5744 64.4377 33.0129 64.1105 32.5133C63.777 32.0187 63.4138 31.5957 63.0475 31.2473C62.3113 30.552 61.5726 30.1517 61.0419 29.9393C60.9097 29.8824 60.7894 29.8413 60.6847 29.8048C60.5805 29.7659 60.4909 29.7381 60.418 29.7188C60.2717 29.677 60.1961 29.6554 60.1961 29.6554C60.1961 29.6554 60.2747 29.6495 60.427 29.6381C60.5039 29.6309 60.5993 29.6258 60.7132 29.6262C60.8276 29.6229 60.9605 29.6236 61.1107 29.6356C61.4126 29.6507 61.7873 29.6979 62.2206 29.8101C62.655 29.9183 63.147 30.0954 63.6689 30.366C64.7132 30.9013 65.8664 31.839 66.8194 33.2217C67.2996 33.9101 67.7147 34.7135 68.0422 35.618C68.1247 35.844 68.1982 36.0776 68.2643 36.3173C68.2949 36.4382 68.3257 36.5598 68.3567 36.6821C68.3838 36.815 68.4112 36.9486 68.4386 37.083C68.4592 37.1948 68.4799 37.3072 68.5007 37.4202L68.5083 37.4617C68.5075 37.4422 68.5136 37.5114 68.514 37.5132L68.5168 37.5367L68.5283 37.6311L68.5512 37.8211C68.5814 38.0753 68.6156 38.334 68.625 38.5947C68.6932 39.6403 68.6281 40.7344 68.4471 41.8328C68.2665 42.9321 67.9711 44.0359 67.5911 45.1241C67.2116 46.2156 66.7517 47.2837 66.2311 48.3458C66.1649 48.4801 66.0986 48.6147 66.032 48.7497C65.968 48.8768 65.9037 49.0043 65.8394 49.132C65.7719 49.2621 65.7042 49.3926 65.6364 49.5233C65.5681 49.6518 65.4996 49.7807 65.431 49.9098C65.1564 50.4268 64.8782 50.937 64.5953 51.4454C64.0357 52.461 63.4723 53.4635 62.9528 54.4657C62.696 54.9651 62.4422 55.4655 62.2158 55.9659C61.9778 56.4649 61.7715 56.9646 61.5736 57.4648L61.4366 57.84L61.3665 58.0271L61.3097 58.1993L61.1948 58.5415L61.067 58.974L61.0025 59.194L60.9864 59.2491C61.0145 59.1562 60.9911 59.2368 60.9959 59.2221L60.9905 59.2455L60.9685 59.3392L60.8784 59.7134L60.8316 59.9001C60.8174 59.9628 60.8074 60.0266 60.795 60.0898L60.7228 60.4695C60.5462 61.4858 60.4665 62.5289 60.5013 63.5719C60.5276 64.6152 60.6727 65.6567 60.9091 66.67C60.9776 66.9208 61.0318 67.1759 61.1086 67.4236L61.2217 67.7957C61.2585 67.9201 61.2948 68.0446 61.3419 68.1649L61.4735 68.5294L61.5386 68.7119L61.6136 68.8897L61.7626 69.2456L61.8356 69.4224L61.9105 69.5794L62.0574 69.8949L62.0936 69.9741C62.1049 69.9999 62.1166 70.026 62.1372 70.0618L62.2464 70.2609L62.4643 70.6583L62.5187 70.7575L62.5323 70.7823C62.5687 70.8442 62.4981 70.7262 62.51 70.7456L62.5355 70.7871L62.636 70.9537L62.8358 71.2873C62.9029 71.3985 62.9804 71.5087 63.0518 71.6195L63.2706 71.9514L63.5054 72.2823C64.1282 73.1684 64.8353 74.0491 65.5554 74.9551C66.2757 75.8606 67.015 76.7903 67.6991 77.7798C67.8685 78.0318 68.0389 78.2771 68.203 78.5304C68.3627 78.7906 68.525 79.0423 68.6776 79.3045C68.7526 79.4372 68.8273 79.5696 68.9018 79.7015L69.0127 79.8989L69.0679 79.9974L69.1235 80.1058C69.1961 80.2511 69.2685 80.3958 69.3407 80.5402L69.447 80.7563L69.4996 80.8641L69.5393 80.9574C69.6506 81.224 69.7611 81.4888 69.8709 81.7517C69.9779 82.0384 70.0813 82.3232 70.1651 82.6109C70.2583 82.8956 70.3259 83.1842 70.3996 83.4675C70.4333 83.6098 70.4611 83.7528 70.4902 83.8945C70.5202 84.0361 70.5473 84.1773 70.5676 84.3189C70.6674 84.8823 70.7131 85.4398 70.7425 85.9832C70.7567 86.5276 70.7608 87.0588 70.7137 87.5747C70.5655 89.6412 69.9776 91.4374 69.2549 92.8879C68.525 94.3415 67.6514 95.4523 66.8503 96.2566C66.4468 96.6577 66.0698 96.992 65.7199 97.2547C65.6337 97.3209 65.5507 97.3848 65.471 97.446C65.3884 97.5035 65.3092 97.5585 65.2335 97.6112C65.1577 97.6629 65.0854 97.7122 65.0166 97.7591C64.9455 97.8034 64.878 97.8454 64.8142 97.8851C64.5622 98.0474 64.3622 98.1492 64.2274 98.2207C64.093 98.2924 64.0236 98.3294 64.0236 98.3294Z" stroke="#F7921E" stroke-width="4" mask="url(#path-6-inside-1_202_26)"/>
<mask id="path-7-inside-2_202_26" fill="white">
<path d="M91.9032 100.294C91.9032 100.294 91.855 100.2 91.7615 100.017C91.669 99.8332 91.5272 99.5627 91.3525 99.2058C91.1752 98.8498 90.9585 98.4098 90.7113 97.8889C90.462 97.3686 90.1816 96.7676 89.8806 96.0868C89.5729 95.4085 89.2564 94.6462 88.9227 93.8076C88.5847 92.9702 88.2597 92.0463 87.9362 91.0437C87.6124 90.0409 87.3222 88.9511 87.0684 87.7793C87.0372 87.6325 87.0059 87.4848 86.9743 87.3362C86.9471 87.1856 86.9198 87.0341 86.8922 86.8816C86.8665 86.7362 86.8406 86.5899 86.8145 86.4427C86.7919 86.284 86.7691 86.1244 86.7462 85.9639C86.724 85.8029 86.7017 85.6409 86.6792 85.4781C86.6616 85.3178 86.6438 85.1566 86.626 84.9946C86.5863 84.6704 86.563 84.3405 86.5381 84.0064C86.4442 82.6699 86.4586 81.2572 86.6234 79.7881C86.6678 79.4213 86.7068 79.0494 86.7787 78.6775C86.8121 78.4913 86.8406 78.3035 86.8793 78.1161C86.9202 77.9287 86.9613 77.7407 87.0025 77.5519L87.0654 77.2679L87.1409 76.9847C87.1918 76.7953 87.243 76.6052 87.2943 76.4145C87.3497 76.2244 87.4137 76.0354 87.474 75.8446C87.5363 75.6543 87.5932 75.4614 87.6683 75.2729C87.8109 74.8936 87.9503 74.5089 88.1261 74.1338C88.2134 73.9463 88.2899 73.7531 88.3882 73.5684C88.484 73.3823 88.58 73.1956 88.6763 73.0084L88.7491 72.8679L88.7674 72.8327L88.8174 72.7501L88.8525 72.6897L88.9933 72.4478C89.0883 72.2855 89.1835 72.1227 89.279 71.9594C89.4036 71.7718 89.5286 71.5836 89.6539 71.3949L89.8444 71.112C89.9084 71.016 89.9721 70.9379 90.0362 70.8498C90.1649 70.6783 90.2939 70.5063 90.4233 70.3339C90.5513 70.1595 90.6948 70.0009 90.831 69.833C90.9701 69.6688 91.1058 69.4979 91.2529 69.3407C91.3997 69.1827 91.5469 69.0243 91.6944 68.8655C91.8403 68.7039 91.9947 68.5533 92.1494 68.402C92.3043 68.2504 92.4595 68.0984 92.615 67.9461C92.7756 67.8013 92.9366 67.6561 93.0979 67.5106C93.2592 67.3643 93.4226 67.2204 93.5909 67.0846C94.9208 65.966 96.3611 64.9756 97.857 64.0966C98.6045 63.6516 99.3684 63.2454 100.137 62.8434C100.331 62.7467 100.524 62.6498 100.718 62.5529L101.023 62.4018L101.303 62.2676L101.864 61.9984L102.456 61.7233C105.568 60.2889 108.67 59.0719 111.494 57.6111C112.203 57.2504 112.887 56.8699 113.554 56.4734L114.048 56.1716L114.11 56.134C114.103 56.1392 114.171 56.0958 114.101 56.1409L114.134 56.1192L114.266 56.0328L114.531 55.8607C114.913 55.6206 115.164 55.429 115.463 55.2236C116.664 54.3425 117.794 53.3617 118.738 52.2877C120.655 50.1472 121.836 47.6522 121.981 45.1183C122.016 44.4822 121.993 43.8407 121.916 43.2024C121.837 42.5643 121.705 41.9294 121.528 41.3052C121.349 40.6813 121.123 40.0693 120.862 39.4734C120.6 38.8777 120.298 38.3014 119.972 37.7424C119.318 36.6252 118.538 35.602 117.701 34.6778C117.283 34.2149 116.847 33.7785 116.4 33.3697C116.288 33.2681 116.177 33.1646 116.062 33.0683C115.956 32.9765 115.849 32.8851 115.743 32.7942C115.489 32.5943 115.24 32.3935 114.993 32.194C114.088 31.4852 113.105 30.8374 112.16 30.2585C111.214 29.6716 110.263 29.1854 109.368 28.7203C107.563 27.8156 105.92 27.1099 104.558 26.5347C103.188 25.967 102.11 25.521 101.376 25.2169C100.64 24.9075 100.247 24.7425 100.247 24.7425C100.247 24.7425 100.353 24.7574 100.557 24.7862C100.762 24.8159 101.066 24.8555 101.46 24.9172C101.855 24.9787 102.343 25.0506 102.913 25.1503C103.485 25.2435 104.141 25.3631 104.875 25.5052C106.342 25.791 108.122 26.1856 110.146 26.8002C110.399 26.8746 110.655 26.9609 110.914 27.046C111.174 27.1321 111.438 27.2186 111.703 27.3184C111.969 27.4159 112.238 27.5148 112.512 27.615C112.783 27.7239 113.058 27.8342 113.337 27.9459C114.451 28.4113 115.585 28.9595 116.788 29.6537C117.06 29.8165 117.335 29.9819 117.61 30.1517L117.662 30.1834L117.688 30.1993L117.744 30.2381L117.854 30.3111L118.073 30.4578C118.221 30.5545 118.364 30.6587 118.51 30.7615C119.09 31.1752 119.664 31.6245 120.224 32.1108C121.344 33.085 122.397 34.223 123.352 35.5127C123.829 36.1577 124.272 36.848 124.676 37.5787C125.082 38.3089 125.444 39.083 125.75 39.8976C126.058 40.7115 126.308 41.5673 126.482 42.4571C126.658 43.3462 126.761 44.2695 126.765 45.2097C126.761 45.4476 126.762 45.6744 126.751 45.9234L126.727 46.3082C126.719 46.4349 126.709 46.5763 126.699 46.6623L126.669 46.9592L126.654 47.1079L126.632 47.2508L126.618 47.339C126.577 47.5744 126.537 47.8102 126.496 48.0465C126.461 48.2848 126.393 48.5138 126.338 48.7475C126.277 48.979 126.228 49.2165 126.154 49.444C126.005 49.8983 125.869 50.3634 125.676 50.8013C125.329 51.6987 124.875 52.5412 124.389 53.3615C124.13 53.7589 123.879 54.167 123.594 54.543C123.453 54.7328 123.318 54.93 123.171 55.1136L122.726 55.6641C122.579 55.8509 122.421 56.0229 122.264 56.1983C122.105 56.3716 121.952 56.5516 121.788 56.719C121.458 57.0511 121.135 57.3938 120.788 57.7055C120.109 58.3543 119.387 58.9328 118.638 59.5022C117.134 60.6204 115.565 61.5443 113.972 62.3655C110.786 64.0028 107.561 65.2006 104.596 66.4661L104.049 66.6983L103.481 66.948L103.197 67.073L102.943 67.1888L102.406 67.4325C101.701 67.7648 101.001 68.099 100.332 68.4602C98.9809 69.1656 97.721 69.9446 96.5707 70.7905C95.4138 71.6319 94.4052 72.5713 93.5261 73.5665C93.4728 73.6278 93.4101 73.6918 93.3645 73.7506L93.2223 73.9277C93.1261 74.0452 93.0302 74.1624 92.9345 74.2793C92.8269 74.4321 92.7197 74.5845 92.6127 74.7365L92.4521 74.9658L92.412 75.023C92.4197 75.0092 92.3662 75.0944 92.4244 74.9992L92.4085 75.0248L92.3447 75.1271C92.259 75.2633 92.1736 75.3992 92.0884 75.5346C91.9999 75.6683 91.9306 75.8137 91.8504 75.952C91.776 76.0936 91.6867 76.227 91.619 76.3721C91.5472 76.5154 91.4756 76.6581 91.4043 76.8004C90.8397 77.9467 90.4611 79.1648 90.1685 80.3748C89.8746 81.5873 89.727 82.8071 89.6452 83.9915C89.6262 84.2879 89.6053 84.582 89.6009 84.8742C89.5965 85.0205 89.5921 85.1659 89.5878 85.3105C89.5875 85.452 89.5872 85.5927 89.5869 85.7326C89.5869 85.8729 89.5869 86.0125 89.5869 86.1512C89.5924 86.3005 89.5978 86.449 89.6033 86.5966C89.606 86.6703 89.6087 86.7439 89.6114 86.8172L89.6146 86.9272L89.6161 86.982C89.6184 87.0088 89.6138 86.9762 89.6149 86.9891L89.6163 87.0153C89.6237 87.1551 89.6311 87.294 89.6385 87.4321C89.6961 88.5383 89.8224 89.5915 89.9551 90.5866C90.2316 92.576 90.5987 94.3178 90.9042 95.756C91.2238 97.1979 91.4748 98.3308 91.646 99.1032C91.8137 99.88 91.9032 100.294 91.9032 100.294Z"/>
</mask>
<path d="M91.9032 100.294C91.9032 100.294 91.855 100.2 91.7615 100.017C91.669 99.8332 91.5272 99.5627 91.3525 99.2058C91.1752 98.8498 90.9585 98.4098 90.7113 97.8889C90.462 97.3686 90.1816 96.7676 89.8806 96.0868C89.5729 95.4085 89.2564 94.6462 88.9227 93.8076C88.5847 92.9702 88.2597 92.0463 87.9362 91.0437C87.6124 90.0409 87.3222 88.9511 87.0684 87.7793C87.0372 87.6325 87.0059 87.4848 86.9743 87.3362C86.9471 87.1856 86.9198 87.0341 86.8922 86.8816C86.8665 86.7362 86.8406 86.5899 86.8145 86.4427C86.7919 86.284 86.7691 86.1244 86.7462 85.9639C86.724 85.8029 86.7017 85.6409 86.6792 85.4781C86.6616 85.3178 86.6438 85.1566 86.626 84.9946C86.5863 84.6704 86.563 84.3405 86.5381 84.0064C86.4442 82.6699 86.4586 81.2572 86.6234 79.7881C86.6678 79.4213 86.7068 79.0494 86.7787 78.6775C86.8121 78.4913 86.8406 78.3035 86.8793 78.1161C86.9202 77.9287 86.9613 77.7407 87.0025 77.5519L87.0654 77.2679L87.1409 76.9847C87.1918 76.7953 87.243 76.6052 87.2943 76.4145C87.3497 76.2244 87.4137 76.0354 87.474 75.8446C87.5363 75.6543 87.5932 75.4614 87.6683 75.2729C87.8109 74.8936 87.9503 74.5089 88.1261 74.1338C88.2134 73.9463 88.2899 73.7531 88.3882 73.5684C88.484 73.3823 88.58 73.1956 88.6763 73.0084L88.7491 72.8679L88.7674 72.8327L88.8174 72.7501L88.8525 72.6897L88.9933 72.4478C89.0883 72.2855 89.1835 72.1227 89.279 71.9594C89.4036 71.7718 89.5286 71.5836 89.6539 71.3949L89.8444 71.112C89.9084 71.016 89.9721 70.9379 90.0362 70.8498C90.1649 70.6783 90.2939 70.5063 90.4233 70.3339C90.5513 70.1595 90.6948 70.0009 90.831 69.833C90.9701 69.6688 91.1058 69.4979 91.2529 69.3407C91.3997 69.1827 91.5469 69.0243 91.6944 68.8655C91.8403 68.7039 91.9947 68.5533 92.1494 68.402C92.3043 68.2504 92.4595 68.0984 92.615 67.9461C92.7756 67.8013 92.9366 67.6561 93.0979 67.5106C93.2592 67.3643 93.4226 67.2204 93.5909 67.0846C94.9208 65.966 96.3611 64.9756 97.857 64.0966C98.6045 63.6516 99.3684 63.2454 100.137 62.8434C100.331 62.7467 100.524 62.6498 100.718 62.5529L101.023 62.4018L101.303 62.2676L101.864 61.9984L102.456 61.7233C105.568 60.2889 108.67 59.0719 111.494 57.6111C112.203 57.2504 112.887 56.8699 113.554 56.4734L114.048 56.1716L114.11 56.134C114.103 56.1392 114.171 56.0958 114.101 56.1409L114.134 56.1192L114.266 56.0328L114.531 55.8607C114.913 55.6206 115.164 55.429 115.463 55.2236C116.664 54.3425 117.794 53.3617 118.738 52.2877C120.655 50.1472 121.836 47.6522 121.981 45.1183C122.016 44.4822 121.993 43.8407 121.916 43.2024C121.837 42.5643 121.705 41.9294 121.528 41.3052C121.349 40.6813 121.123 40.0693 120.862 39.4734C120.6 38.8777 120.298 38.3014 119.972 37.7424C119.318 36.6252 118.538 35.602 117.701 34.6778C117.283 34.2149 116.847 33.7785 116.4 33.3697C116.288 33.2681 116.177 33.1646 116.062 33.0683C115.956 32.9765 115.849 32.8851 115.743 32.7942C115.489 32.5943 115.24 32.3935 114.993 32.194C114.088 31.4852 113.105 30.8374 112.16 30.2585C111.214 29.6716 110.263 29.1854 109.368 28.7203C107.563 27.8156 105.92 27.1099 104.558 26.5347C103.188 25.967 102.11 25.521 101.376 25.2169C100.64 24.9075 100.247 24.7425 100.247 24.7425C100.247 24.7425 100.353 24.7574 100.557 24.7862C100.762 24.8159 101.066 24.8555 101.46 24.9172C101.855 24.9787 102.343 25.0506 102.913 25.1503C103.485 25.2435 104.141 25.3631 104.875 25.5052C106.342 25.791 108.122 26.1856 110.146 26.8002C110.399 26.8746 110.655 26.9609 110.914 27.046C111.174 27.1321 111.438 27.2186 111.703 27.3184C111.969 27.4159 112.238 27.5148 112.512 27.615C112.783 27.7239 113.058 27.8342 113.337 27.9459C114.451 28.4113 115.585 28.9595 116.788 29.6537C117.06 29.8165 117.335 29.9819 117.61 30.1517L117.662 30.1834L117.688 30.1993L117.744 30.2381L117.854 30.3111L118.073 30.4578C118.221 30.5545 118.364 30.6587 118.51 30.7615C119.09 31.1752 119.664 31.6245 120.224 32.1108C121.344 33.085 122.397 34.223 123.352 35.5127C123.829 36.1577 124.272 36.848 124.676 37.5787C125.082 38.3089 125.444 39.083 125.75 39.8976C126.058 40.7115 126.308 41.5673 126.482 42.4571C126.658 43.3462 126.761 44.2695 126.765 45.2097C126.761 45.4476 126.762 45.6744 126.751 45.9234L126.727 46.3082C126.719 46.4349 126.709 46.5763 126.699 46.6623L126.669 46.9592L126.654 47.1079L126.632 47.2508L126.618 47.339C126.577 47.5744 126.537 47.8102 126.496 48.0465C126.461 48.2848 126.393 48.5138 126.338 48.7475C126.277 48.979 126.228 49.2165 126.154 49.444C126.005 49.8983 125.869 50.3634 125.676 50.8013C125.329 51.6987 124.875 52.5412 124.389 53.3615C124.13 53.7589 123.879 54.167 123.594 54.543C123.453 54.7328 123.318 54.93 123.171 55.1136L122.726 55.6641C122.579 55.8509 122.421 56.0229 122.264 56.1983C122.105 56.3716 121.952 56.5516 121.788 56.719C121.458 57.0511 121.135 57.3938 120.788 57.7055C120.109 58.3543 119.387 58.9328 118.638 59.5022C117.134 60.6204 115.565 61.5443 113.972 62.3655C110.786 64.0028 107.561 65.2006 104.596 66.4661L104.049 66.6983L103.481 66.948L103.197 67.073L102.943 67.1888L102.406 67.4325C101.701 67.7648 101.001 68.099 100.332 68.4602C98.9809 69.1656 97.721 69.9446 96.5707 70.7905C95.4138 71.6319 94.4052 72.5713 93.5261 73.5665C93.4728 73.6278 93.4101 73.6918 93.3645 73.7506L93.2223 73.9277C93.1261 74.0452 93.0302 74.1624 92.9345 74.2793C92.8269 74.4321 92.7197 74.5845 92.6127 74.7365L92.4521 74.9658L92.412 75.023C92.4197 75.0092 92.3662 75.0944 92.4244 74.9992L92.4085 75.0248L92.3447 75.1271C92.259 75.2633 92.1736 75.3992 92.0884 75.5346C91.9999 75.6683 91.9306 75.8137 91.8504 75.952C91.776 76.0936 91.6867 76.227 91.619 76.3721C91.5472 76.5154 91.4756 76.6581 91.4043 76.8004C90.8397 77.9467 90.4611 79.1648 90.1685 80.3748C89.8746 81.5873 89.727 82.8071 89.6452 83.9915C89.6262 84.2879 89.6053 84.582 89.6009 84.8742C89.5965 85.0205 89.5921 85.1659 89.5878 85.3105C89.5875 85.452 89.5872 85.5927 89.5869 85.7326C89.5869 85.8729 89.5869 86.0125 89.5869 86.1512C89.5924 86.3005 89.5978 86.449 89.6033 86.5966C89.606 86.6703 89.6087 86.7439 89.6114 86.8172L89.6146 86.9272L89.6161 86.982C89.6184 87.0088 89.6138 86.9762 89.6149 86.9891L89.6163 87.0153C89.6237 87.1551 89.6311 87.294 89.6385 87.4321C89.6961 88.5383 89.8224 89.5915 89.9551 90.5866C90.2316 92.576 90.5987 94.3178 90.9042 95.756C91.2238 97.1979 91.4748 98.3308 91.646 99.1032C91.8137 99.88 91.9032 100.294 91.9032 100.294Z" stroke="#F7921E" stroke-width="4" mask="url(#path-7-inside-2_202_26)"/>
<mask id="path-8-inside-3_202_26" fill="white">
<path d="M122.148 98.9468C122.148 98.9468 121.769 98.8695 121.057 98.7246C120.703 98.6501 120.27 98.5234 119.753 98.3838C119.495 98.3132 119.228 98.2178 118.936 98.1244C118.647 98.0272 118.336 97.9277 118.019 97.7977C116.73 97.3168 115.195 96.6138 113.546 95.5852C111.898 94.558 110.141 93.201 108.439 91.4662C108.229 91.2474 108.022 91.021 107.813 90.7913C107.708 90.6763 107.603 90.5608 107.498 90.4446C107.397 90.3242 107.297 90.2031 107.195 90.0815C106.994 89.8369 106.787 89.5916 106.584 89.3391C106.39 89.08 106.193 88.8185 105.995 88.5549C105.792 88.2937 105.61 88.015 105.423 87.7354C105.329 87.5953 105.236 87.4546 105.141 87.3134L105.071 87.2073L105.035 87.1541C105.034 87.1537 104.984 87.061 104.998 87.0882L104.982 87.0627L104.858 86.8581C104.694 86.5847 104.527 86.3091 104.36 86.0316C104.192 85.7147 104.022 85.3956 103.851 85.0742C103.672 84.748 103.532 84.4302 103.378 84.105C103.303 83.9424 103.227 83.7793 103.151 83.6157C103.073 83.4527 103.012 83.2831 102.941 83.1161C102.806 82.7796 102.66 82.4438 102.533 82.0989C102.412 81.7519 102.29 81.4029 102.167 81.0519C101.707 79.6374 101.346 78.1541 101.099 76.622C100.846 75.0903 100.737 73.5073 100.749 71.9024C100.766 70.2975 100.913 68.669 101.209 67.047L101.331 66.44L101.463 65.8114L101.597 65.2573L101.753 64.6555C101.956 63.8881 102.168 63.1548 102.364 62.4501C102.752 61.0404 103.059 59.7391 103.119 58.5546L103.125 58.3352L103.129 58.2255L103.131 58.1706C103.132 58.2145 103.13 58.0337 103.134 58.2621L103.132 58.2264L103.112 57.6549C103.111 57.2131 103.053 57.0424 103.029 56.7853L103.019 56.6937C103.016 56.6631 103.014 56.6341 103.004 56.5958L102.956 56.3794C102.925 56.2352 102.896 56.0905 102.868 55.9455C102.836 55.8008 102.785 55.658 102.746 55.5138C102.701 55.3703 102.67 55.2247 102.617 55.0821C102.219 53.9376 101.621 52.8131 100.877 51.7524C100.511 51.2184 100.096 50.7065 99.6661 50.2066C99.4535 49.9545 99.2197 49.7161 98.9992 49.4698C98.7683 49.2305 98.5289 48.9978 98.2957 48.7613C98.0502 48.5338 97.8054 48.3071 97.5615 48.081C97.307 47.8642 97.0603 47.6401 96.802 47.4292C96.672 47.3245 96.5423 47.22 96.4128 47.1156L96.2193 46.9581L96.1952 46.9383C96.1822 46.9281 96.2243 46.9579 96.1935 46.9355L96.1395 46.8943L96.0315 46.812C95.8877 46.7024 95.7441 46.5929 95.6008 46.4837L95.3872 46.3215L95.1864 46.175C94.9174 45.9792 94.6587 45.7864 94.3728 45.587C94.0936 45.3888 93.8168 45.1907 93.532 44.9974C93.2501 44.8029 92.9688 44.6094 92.6825 44.4185C92.397 44.2257 92.1131 44.0339 91.8307 43.8431C90.6923 43.0812 89.555 42.324 88.4526 41.5467C86.245 39.9965 84.1905 38.3428 82.5317 36.5267C81.6937 35.5958 80.9888 34.66 80.392 33.7103C79.8037 32.7589 79.3144 31.8175 78.9473 30.894C78.5796 29.9718 78.3108 29.0803 78.1455 28.2414C77.9821 27.4015 77.9052 26.6199 77.9055 25.9165C77.8947 24.5071 78.1592 23.4355 78.3866 22.7427C78.5026 22.395 78.6077 22.1366 78.6863 21.9658C78.762 21.795 78.8011 21.7068 78.8011 21.7068C78.8011 21.7068 78.7888 21.8023 78.765 21.9873C78.7373 22.1705 78.7165 22.4463 78.6943 22.7998C78.6898 22.9778 78.6762 23.1739 78.6844 23.3912C78.688 23.4997 78.6838 23.6117 78.6906 23.7293C78.6973 23.8463 78.7043 23.9681 78.7116 24.0946C78.7542 24.599 78.8326 25.1715 78.9811 25.7944C79.1331 26.4165 79.3441 27.0899 79.6448 27.7911C79.9542 28.4892 80.3255 29.2235 80.8043 29.9586C81.0425 30.3264 81.3028 30.696 81.5793 31.0682C81.862 31.4372 82.1647 31.8063 82.4899 32.1715C82.8201 32.5332 83.1622 32.8983 83.5297 33.2543C83.8949 33.6078 84.2945 33.9617 84.6948 34.2881C85.5187 34.9647 86.4455 35.6249 87.44 36.2559C88.4349 36.8907 89.4998 37.5116 90.6245 38.1366C91.7719 38.7637 92.9507 39.4079 94.1556 40.0664C94.7671 40.4014 95.3893 40.7487 96.0163 41.1155C96.6459 41.4799 97.2722 41.8544 97.9318 42.278L98.1771 42.4335L98.4043 42.583C98.5547 42.6823 98.7055 42.7819 98.8565 42.8816L98.9698 42.9565L99.0265 42.9939C99.0143 42.9845 99.0747 43.0275 99.0797 43.0311L99.1098 43.0523L99.3503 43.2228C99.5103 43.3373 99.6707 43.4521 99.8313 43.567C100.151 43.7992 100.462 44.0483 100.78 44.2906C101.092 44.5418 101.4 44.8016 101.709 45.0616C102.009 45.3353 102.313 45.6055 102.61 45.8868C102.901 46.1782 103.201 46.4599 103.485 46.7641C104.051 47.3729 104.605 48.0083 105.117 48.6959C106.141 50.0646 107.044 51.6078 107.666 53.3296C107.747 53.5425 107.807 53.7669 107.878 53.9857C107.943 54.2069 108.018 54.4242 108.073 54.6497L108.225 55.3322L108.297 55.6743C108.311 55.7285 108.319 55.7944 108.327 55.8582L108.353 56.05C108.387 56.3059 108.419 56.5624 108.447 56.8189C108.485 57.1053 108.479 57.2544 108.49 57.4541L108.513 58.0254L108.515 58.0611C108.518 58.3133 108.515 58.1563 108.516 58.224L108.513 58.3121L108.509 58.4882L108.497 58.8403C108.388 60.7079 107.948 62.3879 107.505 63.8966C107.288 64.6199 107.071 65.3418 106.855 66.0616L106.713 66.5532L106.567 67.0951C106.49 67.4185 106.413 67.7413 106.336 68.0635C106.049 69.3874 105.865 70.7281 105.785 72.0637C105.701 73.3988 105.713 74.7306 105.834 76.0343C105.951 77.3386 106.158 78.6158 106.438 79.8532C106.516 80.1608 106.594 80.4667 106.671 80.7708C106.749 81.0751 106.847 81.3714 106.932 81.6705C106.979 81.8187 107.016 81.9702 107.069 82.115C107.12 82.2608 107.171 82.4061 107.222 82.551C107.324 82.839 107.417 83.1395 107.528 83.402C107.636 83.6747 107.742 83.9456 107.848 84.2145C107.982 84.5093 108.116 84.802 108.248 85.0925L108.346 85.3101L108.359 85.3373C108.382 85.3818 108.34 85.3072 108.349 85.3237L108.374 85.3729L108.425 85.4712C108.491 85.6024 108.558 85.733 108.624 85.8632C108.759 86.1226 108.88 86.3881 109.027 86.6361C109.168 86.8885 109.308 87.1388 109.447 87.3869C109.598 87.6289 109.747 87.8687 109.895 88.1064C109.969 88.2253 110.044 88.3436 110.118 88.4614C110.197 88.5757 110.276 88.6894 110.354 88.8025C110.511 89.0305 110.665 89.2562 110.819 89.4795C112.095 91.2343 113.468 92.7236 114.796 93.9441C116.124 95.1674 117.409 96.1162 118.511 96.8458C118.781 97.0378 119.05 97.1973 119.302 97.3521C119.554 97.5053 119.787 97.6633 120.011 97.7884C120.236 97.9154 120.444 98.033 120.635 98.1407C120.826 98.2495 120.998 98.3544 121.162 98.4332C121.805 98.7681 122.148 98.9468 122.148 98.9468Z"/>
</mask>
<path d="M122.148 98.9468C122.148 98.9468 121.769 98.8695 121.057 98.7246C120.703 98.6501 120.27 98.5234 119.753 98.3838C119.495 98.3132 119.228 98.2178 118.936 98.1244C118.647 98.0272 118.336 97.9277 118.019 97.7977C116.73 97.3168 115.195 96.6138 113.546 95.5852C111.898 94.558 110.141 93.201 108.439 91.4662C108.229 91.2474 108.022 91.021 107.813 90.7913C107.708 90.6763 107.603 90.5608 107.498 90.4446C107.397 90.3242 107.297 90.2031 107.195 90.0815C106.994 89.8369 106.787 89.5916 106.584 89.3391C106.39 89.08 106.193 88.8185 105.995 88.5549C105.792 88.2937 105.61 88.015 105.423 87.7354C105.329 87.5953 105.236 87.4546 105.141 87.3134L105.071 87.2073L105.035 87.1541C105.034 87.1537 104.984 87.061 104.998 87.0882L104.982 87.0627L104.858 86.8581C104.694 86.5847 104.527 86.3091 104.36 86.0316C104.192 85.7147 104.022 85.3956 103.851 85.0742C103.672 84.748 103.532 84.4302 103.378 84.105C103.303 83.9424 103.227 83.7793 103.151 83.6157C103.073 83.4527 103.012 83.2831 102.941 83.1161C102.806 82.7796 102.66 82.4438 102.533 82.0989C102.412 81.7519 102.29 81.4029 102.167 81.0519C101.707 79.6374 101.346 78.1541 101.099 76.622C100.846 75.0903 100.737 73.5073 100.749 71.9024C100.766 70.2975 100.913 68.669 101.209 67.047L101.331 66.44L101.463 65.8114L101.597 65.2573L101.753 64.6555C101.956 63.8881 102.168 63.1548 102.364 62.4501C102.752 61.0404 103.059 59.7391 103.119 58.5546L103.125 58.3352L103.129 58.2255L103.131 58.1706C103.132 58.2145 103.13 58.0337 103.134 58.2621L103.132 58.2264L103.112 57.6549C103.111 57.2131 103.053 57.0424 103.029 56.7853L103.019 56.6937C103.016 56.6631 103.014 56.6341 103.004 56.5958L102.956 56.3794C102.925 56.2352 102.896 56.0905 102.868 55.9455C102.836 55.8008 102.785 55.658 102.746 55.5138C102.701 55.3703 102.67 55.2247 102.617 55.0821C102.219 53.9376 101.621 52.8131 100.877 51.7524C100.511 51.2184 100.096 50.7065 99.6661 50.2066C99.4535 49.9545 99.2197 49.7161 98.9992 49.4698C98.7683 49.2305 98.5289 48.9978 98.2957 48.7613C98.0502 48.5338 97.8054 48.3071 97.5615 48.081C97.307 47.8642 97.0603 47.6401 96.802 47.4292C96.672 47.3245 96.5423 47.22 96.4128 47.1156L96.2193 46.9581L96.1952 46.9383C96.1822 46.9281 96.2243 46.9579 96.1935 46.9355L96.1395 46.8943L96.0315 46.812C95.8877 46.7024 95.7441 46.5929 95.6008 46.4837L95.3872 46.3215L95.1864 46.175C94.9174 45.9792 94.6587 45.7864 94.3728 45.587C94.0936 45.3888 93.8168 45.1907 93.532 44.9974C93.2501 44.8029 92.9688 44.6094 92.6825 44.4185C92.397 44.2257 92.1131 44.0339 91.8307 43.8431C90.6923 43.0812 89.555 42.324 88.4526 41.5467C86.245 39.9965 84.1905 38.3428 82.5317 36.5267C81.6937 35.5958 80.9888 34.66 80.392 33.7103C79.8037 32.7589 79.3144 31.8175 78.9473 30.894C78.5796 29.9718 78.3108 29.0803 78.1455 28.2414C77.9821 27.4015 77.9052 26.6199 77.9055 25.9165C77.8947 24.5071 78.1592 23.4355 78.3866 22.7427C78.5026 22.395 78.6077 22.1366 78.6863 21.9658C78.762 21.795 78.8011 21.7068 78.8011 21.7068C78.8011 21.7068 78.7888 21.8023 78.765 21.9873C78.7373 22.1705 78.7165 22.4463 78.6943 22.7998C78.6898 22.9778 78.6762 23.1739 78.6844 23.3912C78.688 23.4997 78.6838 23.6117 78.6906 23.7293C78.6973 23.8463 78.7043 23.9681 78.7116 24.0946C78.7542 24.599 78.8326 25.1715 78.9811 25.7944C79.1331 26.4165 79.3441 27.0899 79.6448 27.7911C79.9542 28.4892 80.3255 29.2235 80.8043 29.9586C81.0425 30.3264 81.3028 30.696 81.5793 31.0682C81.862 31.4372 82.1647 31.8063 82.4899 32.1715C82.8201 32.5332 83.1622 32.8983 83.5297 33.2543C83.8949 33.6078 84.2945 33.9617 84.6948 34.2881C85.5187 34.9647 86.4455 35.6249 87.44 36.2559C88.4349 36.8907 89.4998 37.5116 90.6245 38.1366C91.7719 38.7637 92.9507 39.4079 94.1556 40.0664C94.7671 40.4014 95.3893 40.7487 96.0163 41.1155C96.6459 41.4799 97.2722 41.8544 97.9318 42.278L98.1771 42.4335L98.4043 42.583C98.5547 42.6823 98.7055 42.7819 98.8565 42.8816L98.9698 42.9565L99.0265 42.9939C99.0143 42.9845 99.0747 43.0275 99.0797 43.0311L99.1098 43.0523L99.3503 43.2228C99.5103 43.3373 99.6707 43.4521 99.8313 43.567C100.151 43.7992 100.462 44.0483 100.78 44.2906C101.092 44.5418 101.4 44.8016 101.709 45.0616C102.009 45.3353 102.313 45.6055 102.61 45.8868C102.901 46.1782 103.201 46.4599 103.485 46.7641C104.051 47.3729 104.605 48.0083 105.117 48.6959C106.141 50.0646 107.044 51.6078 107.666 53.3296C107.747 53.5425 107.807 53.7669 107.878 53.9857C107.943 54.2069 108.018 54.4242 108.073 54.6497L108.225 55.3322L108.297 55.6743C108.311 55.7285 108.319 55.7944 108.327 55.8582L108.353 56.05C108.387 56.3059 108.419 56.5624 108.447 56.8189C108.485 57.1053 108.479 57.2544 108.49 57.4541L108.513 58.0254L108.515 58.0611C108.518 58.3133 108.515 58.1563 108.516 58.224L108.513 58.3121L108.509 58.4882L108.497 58.8403C108.388 60.7079 107.948 62.3879 107.505 63.8966C107.288 64.6199 107.071 65.3418 106.855 66.0616L106.713 66.5532L106.567 67.0951C106.49 67.4185 106.413 67.7413 106.336 68.0635C106.049 69.3874 105.865 70.7281 105.785 72.0637C105.701 73.3988 105.713 74.7306 105.834 76.0343C105.951 77.3386 106.158 78.6158 106.438 79.8532C106.516 80.1608 106.594 80.4667 106.671 80.7708C106.749 81.0751 106.847 81.3714 106.932 81.6705C106.979 81.8187 107.016 81.9702 107.069 82.115C107.12 82.2608 107.171 82.4061 107.222 82.551C107.324 82.839 107.417 83.1395 107.528 83.402C107.636 83.6747 107.742 83.9456 107.848 84.2145C107.982 84.5093 108.116 84.802 108.248 85.0925L108.346 85.3101L108.359 85.3373C108.382 85.3818 108.34 85.3072 108.349 85.3237L108.374 85.3729L108.425 85.4712C108.491 85.6024 108.558 85.733 108.624 85.8632C108.759 86.1226 108.88 86.3881 109.027 86.6361C109.168 86.8885 109.308 87.1388 109.447 87.3869C109.598 87.6289 109.747 87.8687 109.895 88.1064C109.969 88.2253 110.044 88.3436 110.118 88.4614C110.197 88.5757 110.276 88.6894 110.354 88.8025C110.511 89.0305 110.665 89.2562 110.819 89.4795C112.095 91.2343 113.468 92.7236 114.796 93.9441C116.124 95.1674 117.409 96.1162 118.511 96.8458C118.781 97.0378 119.05 97.1973 119.302 97.3521C119.554 97.5053 119.787 97.6633 120.011 97.7884C120.236 97.9154 120.444 98.033 120.635 98.1407C120.826 98.2495 120.998 98.3544 121.162 98.4332C121.805 98.7681 122.148 98.9468 122.148 98.9468Z" stroke="#F7921E" stroke-width="4" mask="url(#path-8-inside-3_202_26)"/>
</svg>
