<svg width="376" height="451" viewBox="0 0 376 451" fill="none" xmlns="http://www.w3.org/2000/svg">
<g opacity="0.4">
<path d="M150.685 46.3985L154.794 75.2067L84.6989 93.9321C75.2959 96.444 67.0121 94.6531 59.9992 95.4656L60.0739 98.2003C45.4881 98.1327 36.2987 101.467 34.1818 109.777L44.0918 111.937L83.0067 173.155L90.2579 222.849L97.9926 229.571L99.2011 255.738L103.552 261.02L103.793 267.742L93.8836 273.023L70.1962 400.02H254.619L233.349 275.904L221.505 268.702V261.98L229.24 257.179L229.965 230.051L238.908 223.089L251.719 132.103L302.961 121.06L310.937 135.944L300.06 151.068L299.577 174.115L287.491 198.842V216.607L280.724 224.289L260.904 226.21L265.013 246.136L299.335 242.295L340.909 126.822L320.605 100.654C309.977 86.9563 298.499 84.09 286.283 89.6108C279.577 92.6415 267.519 92.2299 264.287 91.7715L238.908 88.1704L177.998 74.7266L181.623 46.8786L166.879 40.3967L150.685 46.3985Z" fill="#9BC542"/>
</g>
<path d="M275.185 411.449H93.1521L116.531 286.109L126.016 281.054L126.567 280.76L126.545 280.136L126.303 273.414L126.291 273.075L126.076 272.814L121.937 267.789L120.744 241.954L120.724 241.527L120.401 241.246L112.946 234.767L105.748 185.44L105.717 185.228L105.603 185.048L66.6878 123.83L66.4642 123.479L66.0569 123.39L57.2014 121.459C58.342 118.185 60.8077 115.807 64.5952 114.197C68.7977 112.411 74.5835 111.596 81.8214 111.63L82.8538 111.635L82.8257 110.603L82.7764 108.798C85.0518 108.608 87.4543 108.658 90.0475 108.713C91.0666 108.735 92.1152 108.757 93.197 108.766C97.3528 108.798 101.879 108.618 106.709 107.328L176.804 88.6026L177.661 88.3736L177.536 87.4952L173.541 59.4855L188.599 53.9047L202.287 59.9222L198.758 87.0272L198.64 87.9354L199.534 88.1328L260.445 101.577L260.482 101.585L260.52 101.59L285.899 105.191C287.593 105.432 291.482 105.649 295.785 105.428C300.071 105.208 304.917 104.547 308.447 102.952C314.38 100.27 320.052 99.6572 325.501 101.312C330.967 102.972 336.335 106.953 341.567 113.697L361.534 139.43L320.357 253.8L287.56 257.47L283.86 239.528L302.572 237.714L302.965 237.676L303.226 237.38L309.994 229.698L310.244 229.415V229.037V211.503L322.227 186.984L322.324 186.786L322.329 186.566L322.806 163.83L333.501 148.958L333.865 148.451L333.571 147.901L325.594 133.017L325.238 132.353L324.502 132.512L273.26 143.555L272.578 143.702L272.481 144.393L259.726 234.978L251.103 241.692L250.73 241.982L250.717 242.454L250.007 269.043L242.73 273.56L242.257 273.854V274.41V281.132V281.694L242.738 281.986L254.192 288.952L275.185 411.449Z" stroke="#4CA7D1" stroke-width="2"/>
</svg>
