<svg width="376" height="314" viewBox="0 0 376 314" fill="none" xmlns="http://www.w3.org/2000/svg">
<g id="paella 1">
<g id="Group 1">
<g id="layer1">
<path id="path854" d="M177.625 297.426C170.641 296.984 160.936 295.668 154.766 294.327C105.793 283.685 65.6823 248.165 48.7504 200.447L46.5675 194.295L39.9381 194.276C34.6223 194.26 32.5187 193.942 29.3213 192.665C21.6394 189.598 14.4625 181.924 11.986 174.131C10.2202 168.574 10.2202 137.308 11.986 131.751C14.4625 123.958 21.6394 116.285 29.3213 113.217C32.5187 111.94 34.6223 111.621 39.9381 111.606L46.5675 111.587L48.7504 105.435C65.7283 57.5873 106.155 21.8864 155.107 11.512C165.995 9.20451 172.675 8.54419 185.13 8.54419C197.585 8.54419 204.265 9.20451 215.153 11.512C264.105 21.8864 304.532 57.5873 321.51 105.435L323.693 111.587L330.322 111.606C335.638 111.622 337.742 111.94 340.939 113.217C348.621 116.285 355.798 123.958 358.275 131.752C360.04 137.309 360.04 168.574 358.275 174.131C355.798 181.924 348.621 189.598 340.939 192.665C337.742 193.942 335.638 194.262 330.322 194.277L323.693 194.295L321.51 200.447C303.084 252.378 256.969 289.788 203.212 296.417C196.741 297.215 182.912 297.76 177.625 297.426V297.426ZM206.283 284.635C228.219 280.781 247.996 272.302 265.306 259.332C272.321 254.076 286.088 240.285 291.335 233.257C302.111 218.825 310.11 201.939 314.324 184.726C317.171 173.096 317.846 167.006 317.846 152.941C317.846 138.877 317.171 132.787 314.324 121.157C310.11 103.943 302.111 87.0574 291.335 72.6256C286.088 65.5979 272.321 51.8071 265.306 46.5505C247.524 33.2268 226.772 24.517 204.236 20.9192C196.601 19.7003 173.659 19.7003 166.025 20.9192C143.489 24.517 122.737 33.2268 104.955 46.5505C97.9394 51.8071 84.1726 65.5979 78.9252 72.6256C65.6248 90.4386 56.9302 111.227 53.3387 133.802C52.122 141.45 52.122 164.432 53.3387 172.08C56.9302 194.655 65.6248 215.444 78.9252 233.257C84.1726 240.285 97.9394 254.076 104.955 259.332C122.981 272.839 145.202 282.076 166.366 284.859C169.743 285.303 172.968 285.778 173.53 285.913C176.086 286.526 201.064 285.552 206.283 284.635V284.635ZM168.395 272.196C132.792 266.986 101.804 246.622 82.8178 215.956C59.0437 177.557 59.0437 128.325 82.8178 89.9264C105.035 54.0421 143.232 32.6637 185.13 32.6637C227.028 32.6637 265.225 54.0421 287.443 89.9264C304.499 117.475 309.57 151.007 301.502 182.892C290.844 225.008 257.071 258.84 215.029 269.516C200.605 273.179 182.3 274.23 168.395 272.196V272.196ZM202.871 260.596C230.399 255.739 253.999 241.718 270.753 220.27C286.213 200.478 293.86 178.195 293.86 152.941C293.86 141.802 293.184 136.283 290.51 125.6C281.031 87.726 250.232 56.8733 212.424 47.3771C201.76 44.6985 196.25 44.021 185.13 44.021C174.011 44.021 168.501 44.6985 157.837 47.3771C120.029 56.8733 89.23 87.726 79.7504 125.6C77.0765 136.283 76.4001 141.802 76.4001 152.941C76.4001 178.195 84.0476 200.478 99.5075 220.27C118.346 244.386 146.328 259.298 177.625 261.896C182.703 262.318 197.408 261.561 202.871 260.596V260.596ZM177.186 254.794C176.381 254.469 175.23 253.497 174.627 252.635C171.604 248.311 175.959 242.865 181.025 244.634C183.353 245.447 184.448 247.022 184.448 249.561C184.448 252.184 183.769 253.384 181.67 254.472C179.493 255.6 179.226 255.619 177.186 254.794V254.794ZM193.629 247.642C191.507 245.517 191.357 241.715 193.318 239.751C195.28 237.786 199.074 237.936 201.196 240.061C203.45 242.319 203.338 244.856 200.877 247.322C198.415 249.788 195.882 249.9 193.629 247.642V247.642ZM146.587 242.365C144.715 242.008 140.594 240.499 137.429 239.013C127.056 234.144 117.431 222.517 114.527 211.348C112.127 202.117 113.767 191.744 118.851 183.993C120.325 181.747 128.464 173.043 137.114 164.462C153.792 147.92 154.746 147.254 159.518 148.832C162.546 149.833 167.751 155.579 170.052 160.46C171.573 163.685 171.825 165.143 171.825 170.713C171.825 180.262 169.985 183.795 159.267 194.828C150.947 203.393 148.954 206.431 148.981 210.507C149.04 219.386 162.147 228.812 170.586 226.045C172.348 225.468 175.63 222.809 180.741 217.819C184.895 213.765 189.088 210.247 190.06 210.003C193.319 209.184 196.669 211.945 196.711 215.485C196.733 217.232 195.296 218.954 187.009 227.117C179.086 234.923 176.41 237.119 172.575 238.966C164.607 242.801 155.265 244.023 146.587 242.365V242.365ZM144.91 227.354C143.013 225.423 141.46 223.6 141.46 223.302C141.46 221.662 139.089 220.613 135.441 220.639L131.566 220.666L134.978 223.818C138.156 226.755 145.439 230.863 147.469 230.864C147.958 230.864 146.807 229.285 144.91 227.354V227.354ZM138.386 205.388L139.155 201.527L133.506 195.897L127.856 190.266L126.333 193.648C125.194 196.177 124.804 198.353 124.785 202.279C124.772 205.166 124.924 207.692 125.124 207.892C125.509 208.277 135.894 209.57 136.979 209.368C137.33 209.303 137.962 207.512 138.386 205.388V205.388ZM152.831 184.896C160.222 177.286 161.794 174.127 160.846 168.785C160.313 165.786 157.885 161.144 156.849 161.144C155.939 161.144 136.002 181.073 136.002 181.983C136.002 182.699 144.908 191.903 145.601 191.903C145.834 191.903 149.088 188.75 152.831 184.896ZM206.439 230.407C204.976 229.817 203.41 226.062 203.867 224.238C204.389 222.155 209.972 216.072 212.623 214.698C216.605 212.635 220.612 215.195 220.612 219.802C220.612 221.722 219.885 222.834 216.24 226.485C212.548 230.183 211.513 230.856 209.587 230.811C208.333 230.781 206.916 230.599 206.439 230.407ZM237.183 224.387C233.595 222.824 232.995 218.059 236.04 215.314C237.453 214.041 238.538 213.776 242.333 213.776C249.149 213.776 252.176 216.575 250.516 221.343C249.229 225.043 242.314 226.622 237.183 224.387ZM164.66 212.225C160.564 210.109 160.525 204.796 164.59 202.725C167.663 201.16 170.601 202.193 171.893 205.292C173.893 210.085 169.209 214.574 164.66 212.225H164.66ZM253.799 205.139C250.28 201.614 252.485 196.004 257.389 196.004C262.439 196.004 264.807 201.693 261.243 205.263C259.005 207.505 256.113 207.456 253.799 205.139V205.139ZM178.189 196.122C172.854 190.777 172.192 188.396 175.205 185.378C178.218 182.36 180.595 183.023 185.93 188.367C191.266 193.712 191.927 196.093 188.914 199.111C185.901 202.129 183.525 201.467 178.189 196.122ZM217.511 199.111C212.577 194.169 219.449 186.93 224.955 191.269C228.709 194.227 226.185 200.789 221.295 200.789C219.965 200.789 218.566 200.169 217.511 199.111ZM202.92 181.853C198.82 179.7 197.738 177.487 197.864 171.509C198.102 160.168 204.192 151.391 214.66 147.303C217.663 146.13 220.294 145.858 231.365 145.578C244.272 145.251 244.559 145.212 247.472 143.361C251.832 140.591 253.67 136.439 253.169 130.488C252.733 125.322 250.952 120.676 248.333 117.875C245.21 114.536 242.808 113.98 231.521 113.98C221.507 113.98 221.188 113.935 219.558 112.302C217.342 110.082 217.298 106.566 219.462 104.529C220.965 103.115 221.647 103.043 233.522 103.043C247.729 103.043 251.59 103.741 259.043 107.655C267.641 112.17 273.74 119.08 277.597 128.676C279.188 132.635 279.574 134.776 279.831 141.084C280.643 160.959 271.64 175.767 255.514 181.082C251.288 182.475 249.409 182.595 228.118 182.83C207.148 183.061 205.066 182.98 202.92 181.853H202.92ZM239.035 164.22V157.043L229.653 157.059C219.272 157.075 216.471 157.833 212.972 161.571C210.942 163.74 209.012 167.852 209.012 170.009C209.012 171.363 209.388 171.398 224.024 171.398H239.035V164.22ZM256.538 168.261C258.096 167.366 260.618 165.214 262.143 163.479L264.914 160.325L261.09 155.583C258.986 152.975 257.078 150.929 256.85 151.037C256.622 151.145 255.133 152.001 253.541 152.941L250.646 154.65L250.64 162.728C250.635 171.908 250.465 171.749 256.538 168.261H256.538ZM268.427 137.159C268.035 135.329 267.019 132.364 266.169 130.57L264.623 127.309L264.175 134.144L263.727 140.979L266.222 144.045L268.717 147.11L268.929 143.799C269.045 141.977 268.819 138.99 268.427 137.159H268.427ZM92.5751 176.187C90.6562 175.412 88.9198 172.87 88.9198 170.836C88.9198 169.762 90.4578 167.617 93.4669 164.495C97.4635 160.348 98.3167 159.777 100.513 159.777C103.686 159.777 105.978 162.034 105.978 165.159C105.978 166.897 105.204 168.197 102.405 171.162C99.1308 174.63 95.9519 176.93 94.583 176.822C94.2829 176.798 93.3793 176.512 92.5751 176.187V176.187ZM182.742 169.924C177.5 167.052 179.281 159.777 185.226 159.777C190.835 159.777 192.754 167.153 187.811 169.713C185.534 170.893 184.583 170.932 182.742 169.924ZM114.968 150.676C112.804 148.368 112.954 144.572 115.282 142.738C117.81 140.745 125.488 140.709 127.986 142.677C130.246 144.458 130.832 146.981 129.559 149.447C128.262 151.959 127.394 152.258 121.394 152.258C117.11 152.258 116.254 152.047 114.968 150.676V150.676ZM90.334 144.305C88.3742 141.809 88.5599 139.526 90.9143 137.167C93.3757 134.702 95.909 134.59 98.1624 136.847C100.284 138.973 100.434 142.774 98.4726 144.739C96.3859 146.829 92.1383 146.603 90.334 144.305ZM154.084 139.943C138.511 137.549 124.945 125.057 121.357 109.808C117.257 92.3854 125.025 72.138 138.587 64.8968C146.021 60.9275 148.223 60.6637 173.923 60.6637C196.524 60.6637 197.283 60.7068 199.04 62.0912C202.185 64.5694 203.092 67.188 202.678 72.5916C201.712 85.2143 193.597 94.6532 181.796 96.8809C179.775 97.2625 173.547 97.5747 167.957 97.5747C157.129 97.5747 154.363 98.1699 151.128 101.196C148.353 103.792 147.349 106.488 147.377 111.275C147.407 116.542 148.446 120.105 151.081 123.969C154.103 128.402 156.119 129.017 167.619 129.017C173.073 129.017 178.337 129.323 179.317 129.696C183.591 131.324 183.553 137.889 179.26 139.686C176.764 140.731 160.302 140.899 154.084 139.943H154.084ZM136.896 103.286C137.126 103.056 136.203 101.509 134.845 99.8495C133.191 97.8275 132.15 97.0582 131.691 97.5184C130.65 98.5605 132.265 108.523 134.103 112.402L135.66 115.688L136.069 109.696C136.294 106.401 136.666 103.516 136.896 103.286ZM148.962 89.0317C150.231 88.6283 150.331 88.0037 150.331 80.4403C150.331 75.9543 150.203 72.2839 150.046 72.2839C149.89 72.2839 148.348 72.8906 146.621 73.6323C142.611 75.3545 139.047 78.1681 137.266 81.0183C135.699 83.5271 135.452 82.9351 140.675 89.1961L143.664 92.7794L145.629 91.1231C146.71 90.2121 148.21 89.271 148.962 89.0317V89.0317ZM185.245 83.5531C188.457 81.3149 191.271 76.6228 191.271 73.5061V71.6003H176.26H161.248V78.8256V86.0509L171.769 85.8318C182.204 85.6146 182.313 85.596 185.245 83.553V83.5531ZM211.689 132.488C209.287 130.081 209.132 127.67 211.23 125.334C214.542 121.645 220.612 123.55 220.612 128.278C220.612 131.206 219.992 132.368 217.834 133.486C215.06 134.923 213.938 134.74 211.689 132.488ZM99.7948 123.694C94.3707 118.378 93.6885 115.976 96.7357 112.923C99.7788 109.875 102.259 110.553 107.532 115.877C112.869 121.264 113.498 123.702 110.314 126.658C107.217 129.533 105.161 128.954 99.7948 123.694V123.694ZM187.487 120.504C186.37 119.385 185.813 118.058 185.813 116.515C185.813 114.552 186.523 113.517 190.523 109.649C195.707 104.635 197.959 103.933 200.687 106.48C204.122 109.685 203.189 112.908 197.178 118.603C192.772 122.777 190.25 123.272 187.487 120.504V120.504ZM105.296 103.921C101.396 102.519 99.9648 97.7957 102.586 94.9777C106.164 91.1296 112.044 93.4004 112.098 98.6518C112.131 101.835 108.125 104.938 105.296 103.921ZM249.514 97.5805C248.71 97.2554 247.558 96.2837 246.955 95.4211C243.932 91.0975 248.288 85.6511 253.354 87.4202C255.682 88.2333 256.776 89.8089 256.776 92.3474C256.776 94.9708 256.098 96.1707 253.998 97.2583C251.821 98.3861 251.554 98.4053 249.514 97.5805ZM223.652 84.2769C221.436 82.0569 221.392 78.5405 223.556 76.5042C224.896 75.2429 225.933 75.018 230.411 75.018C235.102 75.018 235.871 75.2037 237.361 76.6958C239.191 78.5296 239.47 80.4432 238.242 82.7527C236.862 85.348 235.458 85.9104 230.304 85.9329C225.913 85.9517 225.129 85.7569 223.652 84.2769H223.652ZM42.9404 183.177C43.4964 182.811 43.4564 181.293 42.7922 177.549C40.1979 162.925 40.1979 142.958 42.7922 128.334C43.8635 122.295 43.6373 121.962 38.8088 122.474C31.7649 123.222 25.2239 128.144 23.0054 134.366C21.7581 137.865 21.742 167.973 22.9855 171.458C24.1817 174.811 27.1745 178.597 30.0204 180.359C34.3023 183.01 40.9844 184.468 42.9403 183.177H42.9404ZM338.417 181.289C342.333 179.37 345.836 175.496 347.255 171.516C348.517 167.975 348.517 137.907 347.255 134.366C345.037 128.144 338.496 123.222 331.452 122.474C326.623 121.962 326.397 122.295 327.468 128.334C330.063 142.958 330.063 162.925 327.468 177.549C326.803 181.298 326.763 182.822 327.32 183.22C328.644 184.169 334.686 183.117 338.417 181.289H338.417Z" fill="#9BC542" fill-opacity="0.4"/>
</g>
<g id="layer2">
<path id="path854_2" d="M184.732 302.41C177.749 301.968 168.044 300.653 161.874 299.312C112.9 288.669 72.79 253.15 55.8581 205.431L53.6753 199.279L47.0459 199.261C41.73 199.244 39.6264 198.926 36.4291 197.65C28.7472 194.582 21.5702 186.908 19.0937 179.115C17.3279 173.558 17.3279 142.293 19.0937 136.736C21.5702 128.942 28.7472 121.269 36.4291 118.201C39.6264 116.924 41.73 116.605 47.0459 116.59L53.6753 116.571L55.8581 110.419C72.836 62.5714 113.263 26.8705 162.215 16.4962C173.103 14.1886 179.783 13.5283 192.238 13.5283C204.693 13.5283 211.373 14.1886 222.261 16.4962C271.213 26.8705 311.64 62.5714 328.618 110.419L330.801 116.571L337.43 116.59C342.746 116.606 344.85 116.924 348.047 118.201C355.729 121.269 362.906 128.942 365.382 136.736C367.148 142.293 367.148 173.558 365.382 179.115C362.906 186.908 355.729 194.582 348.047 197.65C344.85 198.926 342.746 199.246 337.43 199.261L330.801 199.28L328.618 205.431C310.191 257.362 264.077 294.772 210.32 301.401C203.849 302.199 190.02 302.744 184.732 302.41V302.41ZM213.391 289.619C235.326 285.765 255.103 277.286 272.413 264.316C279.429 259.06 293.196 245.269 298.443 238.241C309.219 223.809 317.218 206.923 321.432 189.71C324.279 178.08 324.954 171.99 324.954 157.925C324.954 143.861 324.279 137.771 321.432 126.141C317.218 108.927 309.219 92.0415 298.443 77.6097C293.196 70.582 279.429 56.7912 272.413 51.5346C254.632 38.2109 233.879 29.5011 211.344 25.9033C203.709 24.6845 180.767 24.6845 173.132 25.9033C150.597 29.5011 129.844 38.2109 112.063 51.5346C105.047 56.7912 91.2803 70.582 86.0329 77.6097C72.7325 95.4227 64.0379 116.211 60.4464 138.786C59.2297 146.434 59.2297 169.416 60.4464 177.064C64.0379 199.64 72.7325 220.428 86.0329 238.241C91.2803 245.269 105.047 259.06 112.063 264.316C130.089 277.823 152.31 287.06 173.474 289.843C176.851 290.288 180.075 290.762 180.638 290.897C183.194 291.511 208.172 290.536 213.391 289.619V289.619ZM175.502 277.18C139.9 271.97 108.912 251.606 89.9256 220.94C66.1514 182.541 66.1514 133.309 89.9256 94.9105C112.143 59.0263 150.34 37.6479 192.238 37.6479C234.136 37.6479 272.333 59.0263 294.55 94.9105C311.607 122.459 316.678 155.991 308.609 187.876C297.952 229.992 264.179 263.824 222.137 274.5C207.713 278.163 189.408 279.215 175.502 277.18V277.18ZM209.979 265.581C237.506 260.723 261.107 246.702 277.861 225.254C293.321 205.462 300.968 183.179 300.968 157.925C300.968 146.787 300.292 141.267 297.618 130.584C288.138 92.7101 257.339 61.8574 219.532 52.3612C208.868 49.6827 203.357 49.0051 192.238 49.0051C181.119 49.0051 175.608 49.6827 164.944 52.3612C127.137 61.8574 96.3377 92.7101 86.8581 130.584C84.1842 141.267 83.5079 146.787 83.5079 157.925C83.5079 183.179 91.1553 205.462 106.615 225.254C125.453 249.37 153.436 264.282 184.732 266.88C189.81 267.302 204.515 266.545 209.979 265.581V265.581ZM184.293 259.778C183.489 259.453 182.338 258.481 181.735 257.619C178.712 253.295 183.067 247.849 188.133 249.618C190.461 250.431 191.556 252.007 191.556 254.545C191.556 257.169 190.877 258.369 188.777 259.456C186.6 260.584 186.334 260.603 184.293 259.778V259.778ZM200.736 252.626C198.614 250.501 198.465 246.699 200.426 244.735C202.387 242.77 206.182 242.92 208.304 245.045C210.558 247.303 210.446 249.841 207.984 252.306C205.523 254.772 202.99 254.884 200.736 252.626V252.626ZM153.695 247.349C151.823 246.992 147.702 245.484 144.536 243.998C134.164 239.128 124.539 227.501 121.635 216.332C119.235 207.101 120.874 196.728 125.959 188.977C127.432 186.731 135.571 178.027 144.222 169.447C160.899 152.904 161.853 152.238 166.625 153.816C169.654 154.817 174.859 160.563 177.16 165.444C178.68 168.669 178.932 170.127 178.932 175.697C178.932 185.246 177.093 188.779 166.375 199.812C158.054 208.377 156.062 211.415 156.089 215.492C156.148 224.37 169.255 233.796 177.694 231.029C179.455 230.452 182.738 227.793 187.849 222.804C192.003 218.749 196.196 215.231 197.168 214.987C200.426 214.168 203.777 216.929 203.819 220.469C203.84 222.216 202.403 223.938 194.117 232.101C186.194 239.907 183.518 242.103 179.682 243.95C171.715 247.785 162.372 249.007 153.695 247.349V247.349ZM152.017 232.338C150.12 230.407 148.568 228.584 148.568 228.286C148.568 226.646 146.196 225.597 142.549 225.623L138.674 225.65L142.086 228.803C145.263 231.739 152.546 235.847 154.576 235.848C155.066 235.848 153.915 234.269 152.017 232.338V232.338ZM145.494 210.373L146.263 206.511L140.613 200.881L134.963 195.251L133.441 198.632C132.302 201.161 131.912 203.337 131.893 207.263C131.88 210.15 132.032 212.676 132.232 212.877C132.616 213.262 143.001 214.554 144.087 214.352C144.437 214.287 145.07 212.496 145.494 210.373V210.373ZM159.938 189.88C167.33 182.27 168.901 179.111 167.953 173.77C167.421 170.771 164.993 166.128 163.957 166.128C163.047 166.128 143.109 186.057 143.109 186.967C143.109 187.683 152.016 196.887 152.709 196.887C152.942 196.887 156.195 193.734 159.938 189.88ZM213.547 235.391C212.084 234.801 210.518 231.046 210.975 229.222C211.497 227.139 217.08 221.056 219.731 219.683C223.713 217.62 227.72 220.179 227.72 224.786C227.72 226.706 226.993 227.818 223.348 231.469C219.656 235.167 218.621 235.84 216.695 235.795C215.441 235.765 214.024 235.583 213.547 235.391ZM244.291 229.371C240.703 227.809 240.103 223.043 243.148 220.298C244.56 219.025 245.645 218.76 249.441 218.76C256.257 218.76 259.283 221.559 257.624 226.327C256.336 230.028 249.422 231.606 244.291 229.371ZM171.768 217.209C167.672 215.094 167.633 209.78 171.698 207.709C174.771 206.145 177.709 207.177 179.001 210.276C181 215.069 176.317 219.558 171.768 217.209H171.768ZM260.907 210.123C257.388 206.598 259.592 200.988 264.497 200.988C269.547 200.988 271.914 206.677 268.35 210.247C266.112 212.489 263.22 212.441 260.907 210.123V210.123ZM185.297 201.106C179.961 195.761 179.3 193.381 182.313 190.362C185.326 187.344 187.702 188.007 193.038 193.352C198.374 198.696 199.035 201.077 196.022 204.095C193.009 207.113 190.632 206.451 185.297 201.106ZM224.618 204.095C219.685 199.153 226.557 191.915 232.063 196.253C235.817 199.211 233.293 205.773 228.402 205.773C227.073 205.773 225.674 205.153 224.618 204.095ZM210.027 186.837C205.928 184.684 204.846 182.471 204.971 176.493C205.21 165.152 211.3 156.376 221.768 152.287C224.77 151.114 227.402 150.842 238.473 150.562C251.38 150.235 251.666 150.196 254.58 148.345C258.94 145.575 260.777 141.423 260.276 135.472C259.841 130.306 258.06 125.66 255.44 122.859C252.317 119.52 249.916 118.964 238.628 118.964C228.615 118.964 228.296 118.919 226.665 117.286C224.449 115.066 224.406 111.55 226.57 109.513C228.072 108.099 228.755 108.027 240.63 108.027C254.837 108.027 258.698 108.725 266.15 112.639C274.749 117.155 280.848 124.064 284.705 133.66C286.296 137.619 286.681 139.76 286.939 146.068C287.751 165.943 278.748 180.751 262.622 186.066C258.395 187.459 256.517 187.579 235.226 187.814C214.256 188.045 212.174 187.964 210.027 186.837H210.027ZM246.143 169.204V162.027L236.761 162.043C226.38 162.059 223.579 162.817 220.08 166.555C218.05 168.724 216.12 172.836 216.12 174.993C216.12 176.347 216.496 176.382 231.132 176.382H246.143V169.204ZM263.646 173.245C265.204 172.35 267.726 170.198 269.25 168.463L272.022 165.309L268.197 160.567C266.094 157.959 264.186 155.913 263.958 156.021C263.73 156.129 262.24 156.986 260.648 157.925L257.754 159.634L257.748 167.712C257.743 176.892 257.573 176.733 263.646 173.245H263.646ZM275.535 142.143C275.143 140.313 274.127 137.348 273.277 135.554L271.731 132.293L271.283 139.128L270.835 145.964L273.33 149.029L275.825 152.094L276.036 148.783C276.152 146.962 275.927 143.974 275.535 142.143H275.535ZM99.6828 181.171C97.7639 180.396 96.0275 177.854 96.0275 175.821C96.0275 174.746 97.5655 172.602 100.575 169.479C104.571 165.332 105.424 164.761 107.62 164.761C110.794 164.761 113.086 167.018 113.086 170.143C113.086 171.881 112.312 173.181 109.513 176.146C106.238 179.615 103.06 181.915 101.691 181.806C101.391 181.782 100.487 181.497 99.6828 181.171V181.171ZM189.85 174.908C184.608 172.036 186.389 164.761 192.334 164.761C197.943 164.761 199.862 172.137 194.919 174.697C192.642 175.877 191.69 175.916 189.85 174.908ZM122.075 155.66C119.912 153.352 120.062 149.556 122.39 147.722C124.918 145.73 132.595 145.693 135.094 147.661C137.353 149.442 137.94 151.965 136.667 154.431C135.37 156.943 134.501 157.242 128.502 157.242C124.218 157.242 123.361 157.031 122.075 155.66V155.66ZM97.4417 149.289C95.482 146.793 95.6676 144.51 98.0221 142.151C100.483 139.686 103.017 139.574 105.27 141.831C107.392 143.957 107.541 147.758 105.58 149.723C103.494 151.813 99.246 151.587 97.4417 149.289ZM161.191 144.927C145.619 142.533 132.053 130.041 128.464 114.792C124.365 97.3695 132.133 77.1221 145.695 69.8809C153.129 65.9117 155.331 65.6479 181.031 65.6479C203.631 65.6479 204.391 65.6909 206.148 67.0753C209.293 69.5535 210.2 72.1721 209.786 77.5757C208.819 90.1985 200.704 99.6373 188.904 101.865C186.882 102.247 180.655 102.559 175.064 102.559C164.237 102.559 161.471 103.154 158.236 106.18C155.461 108.776 154.457 111.473 154.484 116.259C154.514 121.526 155.554 125.089 158.189 128.953C161.211 133.386 163.227 134.002 174.726 134.002C180.181 134.002 185.445 134.307 186.424 134.68C190.698 136.308 190.661 142.873 186.368 144.67C183.871 145.715 167.41 145.883 161.191 144.927H161.191ZM144.004 108.27C144.234 108.04 143.311 106.494 141.953 104.834C140.299 102.812 139.258 102.042 138.798 102.503C137.758 103.545 139.373 113.508 141.21 117.386L142.768 120.673L143.177 114.681C143.402 111.385 143.774 108.5 144.004 108.27ZM156.07 94.0159C157.339 93.6124 157.438 92.9878 157.438 85.4244C157.438 80.9384 157.31 77.268 157.154 77.268C156.997 77.268 155.456 77.8748 153.729 78.6164C149.718 80.3386 146.155 83.1522 144.374 86.0024C142.807 88.5112 142.56 87.9192 147.783 94.1802L150.772 97.7635L152.737 96.1072C153.817 95.1962 155.317 94.2551 156.07 94.0159V94.0159ZM192.353 88.5372C195.565 86.299 198.379 81.6069 198.379 78.4902V76.5845H183.368H168.356V83.8097V91.035L178.876 90.8159C189.312 90.5987 189.421 90.5802 192.353 88.5372V88.5372ZM218.797 137.472C216.394 135.065 216.24 132.654 218.338 130.318C221.65 126.63 227.72 128.534 227.72 133.262C227.72 136.19 227.1 137.352 224.942 138.47C222.168 139.907 221.046 139.724 218.797 137.472ZM106.902 128.678C101.478 123.362 100.796 120.96 103.843 117.907C106.887 114.859 109.366 115.537 114.64 120.861C119.977 126.248 120.606 128.686 117.422 131.642C114.325 134.517 112.269 133.938 106.902 128.678V128.678ZM194.595 125.488C193.477 124.369 192.92 123.042 192.92 121.499C192.92 119.536 193.63 118.501 197.63 114.633C202.815 109.619 205.066 108.917 207.795 111.464C211.229 114.669 210.296 117.892 204.286 123.587C199.88 127.761 197.358 128.256 194.595 125.488V125.488ZM112.404 108.905C108.504 107.503 107.073 102.78 109.693 99.9619C113.272 96.1138 119.151 98.3846 119.206 103.636C119.238 106.819 115.233 109.922 112.404 108.905ZM256.622 102.565C255.818 102.24 254.666 101.268 254.063 100.405C251.04 96.0816 255.395 90.6353 260.461 92.4044C262.79 93.2174 263.884 94.793 263.884 97.3315C263.884 99.955 263.205 101.155 261.106 102.242C258.929 103.37 258.662 103.389 256.622 102.565ZM230.759 89.261C228.543 87.041 228.5 83.5247 230.664 81.4884C232.004 80.227 233.041 80.0022 237.518 80.0022C242.209 80.0022 242.979 80.1878 244.468 81.6799C246.299 83.5137 246.577 85.4273 245.349 87.7369C243.97 90.3321 242.566 90.8945 237.412 90.917C233.021 90.9359 232.237 90.741 230.759 89.261H230.759ZM50.0481 188.162C50.6041 187.795 50.5642 186.277 49.8999 182.533C47.3057 167.909 47.3057 147.942 49.8999 133.318C50.9712 127.279 50.745 126.946 45.9165 127.458C38.8726 128.206 32.3316 133.128 30.1131 139.351C28.8658 142.849 28.8498 172.958 30.0933 176.443C31.2894 179.795 34.2823 183.581 37.1282 185.343C41.41 187.994 48.0921 189.452 50.048 188.162H50.0481ZM345.525 186.273C349.441 184.354 352.944 180.48 354.363 176.5C355.625 172.959 355.625 142.891 354.363 139.351C352.144 133.128 345.603 128.206 338.559 127.458C333.731 126.946 333.505 127.279 334.576 133.318C337.17 147.942 337.17 167.909 334.576 182.533C333.911 186.282 333.871 187.806 334.428 188.205C335.752 189.153 341.793 188.102 345.525 186.273H345.525Z" fill="#EBD23A"/>
</g>
</g>
</g>
</svg>
