<svg width="475" height="406" viewBox="0 0 475 406" fill="none" xmlns="http://www.w3.org/2000/svg">
<g opacity="0.6">
<path d="M69.5217 223.898C56.3993 223.898 45.7615 210.573 45.7615 194.135C45.7615 177.698 56.3993 164.373 69.5217 164.373C82.644 164.373 93.2818 177.698 93.2818 194.135C93.2818 210.573 82.644 223.898 69.5217 223.898Z" stroke="black" stroke-width="2.94829" stroke-linecap="round" stroke-linejoin="round"/>
<path d="M411.785 223.898C424.907 223.898 435.545 210.573 435.545 194.135C435.545 177.698 424.907 164.373 411.785 164.373C398.663 164.373 388.025 177.698 388.025 194.135C388.025 210.573 398.663 223.898 411.785 223.898Z" stroke="black" stroke-width="2.94829" stroke-linecap="round" stroke-linejoin="round"/>
<path d="M239.907 344.523C323.026 344.523 390.407 277.192 390.407 194.136C390.407 111.079 323.026 43.7476 239.907 43.7476C156.788 43.7476 89.4073 111.079 89.4073 194.136C89.4073 277.192 156.788 344.523 239.907 344.523Z" stroke="black" stroke-width="8" stroke-linecap="round" stroke-linejoin="round"/>
<path d="M239.907 326.529C312.699 326.529 371.709 267.255 371.709 194.135C371.709 121.016 312.699 61.7413 239.907 61.7413C167.115 61.7413 108.105 121.016 108.105 194.135C108.105 267.255 167.115 326.529 239.907 326.529Z" fill="#F7921E"/>
<path d="M170.369 247.798C170.735 247.285 171.093 246.768 171.468 246.26C172.131 245.324 172.83 244.413 173.544 243.515C174.447 242.391 175.408 241.315 176.393 240.263C177.514 239.064 178.739 237.971 179.988 236.908C181.318 235.772 182.733 234.746 184.18 233.766C185.681 232.762 187.261 231.884 188.865 231.055C190.627 230.129 192.472 229.391 194.362 228.771C196.403 228.119 198.519 227.806 200.65 227.66C202.973 227.492 205.237 227.888 207.443 228.578C209.94 229.428 211.953 231.013 213.707 232.934C215.562 235.109 216.427 237.733 216.834 240.513C217.144 243.183 216.587 245.777 215.731 248.29C214.859 250.649 213.456 252.729 211.905 254.688C210.472 256.457 208.767 257.964 206.99 259.374C205.429 260.583 203.771 261.658 202.085 262.683C200.692 263.514 199.263 264.284 197.835 265.054C196.67 265.679 195.512 266.314 194.371 266.982C193.281 267.64 192.203 268.316 191.11 268.969C189.658 269.855 188.115 270.565 186.533 271.184C184.913 271.803 183.224 272.197 181.524 272.52C179.986 272.801 178.427 272.937 176.868 273.043C174.977 273.207 173.1 273.035 171.244 272.677C168.758 272.161 166.683 270.868 164.833 269.183C162.671 266.917 161.844 264.537 161.569 261.476C161.48 258.976 162.265 256.673 163.414 254.494C164.389 252.758 165.735 251.295 167.173 249.936C168.519 248.696 170.06 247.708 171.62 246.764C172.903 246.02 174.183 245.271 175.44 244.485C176.679 243.712 177.86 242.853 179.023 241.972C180.194 241.084 181.312 240.129 182.41 239.152C182.586 238.987 182.767 238.826 182.946 238.663L193.55 250.29C193.32 250.503 193.086 250.713 192.853 250.924C191.445 252.168 190.015 253.39 188.512 254.52C186.997 255.662 185.459 256.773 183.856 257.788C182.532 258.632 181.192 259.448 179.843 260.25C179.21 260.64 178.568 261.025 177.99 261.495C177.901 261.579 177.322 262.175 177.342 262.089C177.43 261.624 177.516 261.15 177.444 260.67C177.267 259.589 176.841 258.613 176.003 257.876C175.599 257.557 175.126 257.182 174.584 257.178C174.802 257.342 175.497 257.256 175.847 257.255C176.774 257.2 177.701 257.124 178.618 256.969C179.372 256.832 180.128 256.681 180.852 256.422C181.606 256.147 182.324 255.789 183.016 255.382C184.166 254.702 185.295 253.988 186.448 253.314C187.738 252.573 189.042 251.857 190.356 251.162C191.566 250.514 192.775 249.866 193.965 249.184C195.095 248.517 196.203 247.809 197.249 247.017C198.096 246.362 198.915 245.666 199.614 244.851C200.081 244.289 200.528 243.704 200.851 243.045C200.916 242.891 200.967 242.495 201.136 242.48C201.312 242.763 201.436 243.085 201.717 243.293C201.917 243.445 202.116 243.574 202.378 243.572C202.433 243.398 201.645 243.419 201.566 243.418C200.76 243.44 199.959 243.548 199.183 243.774C198.117 244.1 197.094 244.531 196.108 245.051C195.048 245.599 194.005 246.179 193.008 246.838C192.054 247.477 191.122 248.152 190.251 248.902C189.455 249.586 188.67 250.284 187.953 251.052C187.274 251.781 186.615 252.529 185.999 253.313C185.498 253.962 185.014 254.625 184.561 255.309C184.306 255.696 184.06 256.088 183.83 256.492L170.368 247.797L170.369 247.798Z" fill="#2E3436"/>
<path d="M206.659 241.151C207.537 243.286 206.544 246.088 203.896 248.943C201.248 251.798 197.162 254.473 192.535 256.38C187.909 258.288 183.119 259.272 179.217 259.117C175.315 258.962 172.62 257.681 171.723 255.554C170.827 253.427 171.802 250.629 174.434 247.773C177.067 244.918 181.142 242.238 185.766 240.322C190.389 238.406 195.183 237.411 199.095 237.555C203.007 237.699 205.718 238.97 206.632 241.089L189.184 248.337L206.659 241.151Z" fill="#E16168"/>
<path d="M161.665 250.511C161.798 249.403 162.131 248.338 162.512 247.294C163.026 245.963 163.009 244.113 163.763 242.906C164.646 241.524 165.669 240.661 166.725 239.408C167.868 238.064 169.831 236.993 171.092 235.761C172.377 234.495 173.738 233.314 175.123 232.161C176.463 231.054 177.848 230.001 179.241 228.962C180.551 227.992 181.88 227.048 183.211 226.108C184.535 225.172 185.875 224.257 187.215 223.344C188.584 222.415 189.964 221.504 191.354 220.608C192.942 219.561 194.612 218.653 196.332 217.843C198.294 216.906 200.378 216.421 202.532 216.231C204.7 216.169 206.895 216.549 208.803 217.627C209.27 217.895 209.703 218.22 210.151 218.521C212.414 220.383 213.779 222.964 213.936 225.905C213.962 226.398 213.91 226.893 213.898 227.387C213.686 229.757 212.677 231.862 211.406 233.831C210.317 235.443 208.915 236.791 207.452 238.056C206.224 239.089 204.942 240.056 203.663 241.026C202.455 241.938 201.252 242.858 200.059 243.789C198.886 244.705 197.727 245.638 196.564 246.566C195.357 247.532 194.122 248.463 192.877 249.379C191.62 250.296 190.339 251.178 189.057 252.06C187.799 252.919 186.55 253.79 185.295 254.654C184.052 255.506 182.794 256.335 181.531 257.157C180.196 258.041 178.815 258.851 177.407 259.61C175.9 260.431 174.32 261.093 172.698 261.648C170.659 262.361 168.548 262.52 166.41 262.372C163.894 262.036 161.524 260.949 159.821 259.026C159.437 258.592 159.128 258.097 158.781 257.633C157.466 255.388 156.978 252.829 157.468 250.265C157.558 249.797 157.714 249.345 157.836 248.885C158.615 246.519 160.19 244.694 162.079 243.139C163.605 241.947 165.373 241.179 167.193 240.564C168.441 240.168 169.718 239.875 170.985 239.546C171.901 239.315 172.796 239.01 173.674 238.659C174.601 238.281 175.478 237.795 176.339 237.288C177.191 236.779 177.998 236.202 178.798 235.617L188.116 248.33C186.89 249.228 185.648 250.107 184.342 250.887C182.796 251.796 181.216 252.657 179.549 253.329C178.063 253.923 176.553 254.453 175.003 254.856C174.063 255.105 173.118 255.333 172.188 255.615C172.045 255.656 171.641 255.833 171.942 255.592C172.455 255.059 172.819 254.415 173.017 253.7C173.369 252.045 173.17 250.474 172.207 249.039C171.113 247.704 169.895 246.678 168.096 246.566C167.863 246.57 167.002 246.704 167.733 246.615C168.506 246.391 169.236 246.052 169.947 245.679C170.964 245.141 171.959 244.565 172.919 243.931C174.078 243.177 175.233 242.417 176.379 241.644C177.62 240.799 178.853 239.944 180.089 239.091C181.238 238.296 182.385 237.499 183.514 236.675C184.6 235.875 185.681 235.066 186.739 234.227C187.943 233.272 189.143 232.312 190.356 231.369C191.594 230.404 192.84 229.451 194.089 228.5C195.102 227.721 196.117 226.944 197.092 226.118C197.466 225.793 197.839 225.466 198.172 225.098C198.212 225.24 197.974 225.942 198.018 226.231C198.072 228.227 198.866 229.997 200.505 231.201C201.402 231.733 202.363 232.246 203.443 232.071C204.186 231.889 203.037 232.047 202.902 232.201C201.849 232.652 200.847 233.208 199.892 233.839C198.61 234.665 197.345 235.515 196.082 236.368C194.82 237.225 193.561 238.086 192.315 238.966C191.086 239.838 189.854 240.708 188.643 241.606C187.481 242.467 186.324 243.336 185.208 244.257C184.148 245.14 183.101 246.04 182.123 247.015C181.232 247.89 180.351 248.778 179.553 249.74C178.986 250.423 178.44 251.124 177.973 251.879C177.79 252.179 177.606 252.482 177.475 252.81C177.532 252.633 177.575 252.454 177.604 252.271L161.665 250.512L161.665 250.511L161.665 250.511Z" fill="#2E3436"/>
<path d="M135.97 162.236C136.898 162.236 137.649 161.699 137.649 161.037C137.649 160.375 136.898 159.839 135.97 159.839C135.043 159.839 134.291 160.375 134.291 161.037C134.291 161.699 135.043 162.236 135.97 162.236Z" fill="#888A85"/>
<path d="M141.676 167.624C142.604 167.624 143.356 167.087 143.356 166.425C143.356 165.763 142.604 165.227 141.676 165.227C140.749 165.227 139.997 165.763 139.997 166.425C139.997 167.087 140.749 167.624 141.676 167.624Z" fill="#888A85"/>
<path d="M147.749 161.556C148.677 161.556 149.428 161.019 149.428 160.357C149.428 159.695 148.677 159.158 147.749 159.158C146.822 159.158 146.07 159.695 146.07 160.357C146.07 161.019 146.822 161.556 147.749 161.556Z" fill="#888A85"/>
<path d="M214.08 117.284C215.007 117.284 215.759 116.747 215.759 116.085C215.759 115.423 215.007 114.886 214.08 114.886C213.152 114.886 212.401 115.423 212.401 116.085C212.401 116.747 213.152 117.284 214.08 117.284Z" fill="#888A85"/>
<path d="M219.786 122.619C220.714 122.619 221.465 122.083 221.465 121.421C221.465 120.759 220.714 120.222 219.786 120.222C218.859 120.222 218.107 120.759 218.107 121.421C218.107 122.083 218.859 122.619 219.786 122.619Z" fill="#888A85"/>
<path d="M225.807 116.604C226.734 116.604 227.486 116.067 227.486 115.405C227.486 114.743 226.734 114.206 225.807 114.206C224.879 114.206 224.127 114.743 224.127 115.405C224.127 116.067 224.879 116.604 225.807 116.604Z" fill="#888A85"/>
<path d="M174.377 127.583C175.008 127.612 175.637 127.631 176.267 127.67C177.413 127.719 178.558 127.81 179.701 127.923C181.135 128.07 182.561 128.292 183.98 128.548C185.596 128.838 187.179 129.273 188.75 129.744C190.427 130.243 192.057 130.874 193.666 131.556C195.324 132.272 196.919 133.122 198.486 134.017C200.221 134.993 201.842 136.142 203.389 137.391C205.045 138.75 206.456 140.357 207.736 142.066C209.137 143.924 210.033 146.039 210.651 148.266C211.292 150.823 211.052 153.373 210.389 155.888C209.568 158.626 207.833 160.777 205.718 162.628C203.642 164.338 201.159 165.278 198.583 165.924C196.127 166.472 193.618 166.425 191.13 166.186C188.866 165.944 186.674 165.33 184.524 164.605C182.661 163.951 180.858 163.143 179.082 162.285C177.627 161.566 176.205 160.785 174.782 160.005C173.625 159.366 172.462 158.739 171.282 158.143C170.138 157.587 168.985 157.048 167.842 156.486C166.31 155.747 164.875 154.838 163.497 153.847C162.097 152.823 160.85 151.619 159.656 150.367C158.585 149.229 157.625 147.994 156.69 146.744C155.525 145.246 154.652 143.577 153.945 141.824C153.029 139.457 152.99 137.014 153.402 134.546C154.133 131.502 155.684 129.515 158.108 127.623C160.16 126.19 162.522 125.599 164.976 125.381C166.965 125.256 168.925 125.592 170.847 126.061C172.619 126.518 174.286 127.275 175.926 128.072C177.247 128.744 178.571 129.412 179.915 130.04C181.237 130.66 182.599 131.185 183.971 131.684C185.353 132.184 186.762 132.604 188.178 132.996C188.413 133.054 188.646 133.118 188.881 133.179L184.864 148.393C184.561 148.315 184.257 148.232 183.954 148.152C182.143 147.645 180.34 147.108 178.575 146.46C176.793 145.809 175.025 145.122 173.302 144.327C171.875 143.674 170.461 142.992 169.055 142.295C168.384 141.976 167.712 141.646 167.003 141.416C166.884 141.386 166.069 141.224 166.152 141.194C166.591 141.016 167.035 140.83 167.401 140.51C168.213 139.774 168.801 138.887 168.967 137.783C169.015 137.271 169.074 136.67 168.783 136.213C168.763 136.485 169.213 137.022 169.403 137.315C169.953 138.063 170.52 138.8 171.148 139.486C171.672 140.044 172.209 140.596 172.819 141.063C173.46 141.547 174.15 141.955 174.868 142.316C176.063 142.912 177.277 143.471 178.469 144.073C179.792 144.754 181.101 145.459 182.398 146.185C183.599 146.849 184.8 147.512 186.019 148.14C187.193 148.727 188.389 149.272 189.623 149.72C190.633 150.075 191.662 150.385 192.726 150.529C193.452 150.616 194.186 150.674 194.915 150.587C195.08 150.558 195.44 150.386 195.544 150.519C195.402 150.821 195.199 151.1 195.176 151.448C195.157 151.699 195.157 151.936 195.301 152.155C195.477 152.106 195.032 151.456 194.99 151.39C194.534 150.725 194.008 150.112 193.397 149.582C192.545 148.865 191.627 148.241 190.656 147.695C189.62 147.103 188.565 146.542 187.471 146.063C186.416 145.609 185.343 145.194 184.241 144.87C183.234 144.573 182.221 144.293 181.186 144.109C180.205 143.935 179.218 143.787 178.225 143.696C177.408 143.628 176.588 143.581 175.768 143.572C175.304 143.569 174.841 143.575 174.378 143.601V127.581L174.377 127.583Z" fill="#2E3436"/>
<path d="M199.659 154.432C198.342 156.329 195.447 157.016 191.611 156.344C187.774 155.672 183.309 153.695 179.195 150.848C175.08 148 171.654 144.515 169.666 141.156C167.679 137.797 167.294 134.839 168.595 132.932C169.896 131.025 172.777 130.324 176.605 130.983C180.434 131.641 184.898 133.607 189.017 136.447C193.137 139.287 196.575 142.77 198.577 146.131C200.579 149.493 200.982 152.458 199.697 154.376L184.136 143.668L199.659 154.432Z" fill="#E16168"/>
<path d="M167.374 121.751C168.378 121.261 169.453 120.963 170.537 120.716C171.935 120.424 173.48 119.406 174.904 119.384C176.545 119.374 177.825 119.765 179.451 119.971C181.201 120.201 183.167 121.266 184.887 121.656C186.647 122.047 188.379 122.548 190.099 123.085C191.757 123.609 193.393 124.199 195.023 124.805C196.549 125.377 198.063 125.981 199.575 126.588C201.081 127.191 202.577 127.818 204.072 128.448C205.595 129.093 207.11 129.756 208.617 130.436C210.359 131.201 212.028 132.11 213.643 133.114C215.494 134.251 217.034 135.738 218.362 137.442C219.591 139.229 220.462 141.277 220.592 143.464C220.621 144.001 220.582 144.541 220.573 145.08C220.236 147.991 218.808 150.538 216.422 152.266C216.021 152.556 215.577 152.781 215.155 153.039C213.048 154.147 210.731 154.444 208.387 154.446C206.441 154.407 204.548 153.962 202.69 153.422C201.156 152.951 199.647 152.4 198.138 151.853C196.716 151.334 195.29 150.824 193.86 150.328C192.454 149.84 191.041 149.374 189.63 148.902C188.163 148.414 186.71 147.883 185.265 147.335C183.812 146.778 182.375 146.181 180.938 145.585C179.534 144.995 178.124 144.419 176.717 143.835C175.326 143.254 173.947 142.648 172.571 142.034C171.103 141.394 169.673 140.674 168.271 139.904C166.763 139.086 165.349 138.119 164.003 137.059C162.297 135.734 161.017 134.048 159.982 132.174C158.899 129.88 158.525 127.3 159.217 124.827C159.374 124.269 159.622 123.74 159.823 123.197C160.996 120.875 162.883 119.076 165.303 118.095C165.745 117.916 166.21 117.802 166.663 117.655C169.074 117.024 171.462 117.356 173.794 118.096C175.624 118.73 177.229 119.797 178.734 120.991C179.744 121.824 180.683 122.736 181.647 123.621C182.338 124.265 183.08 124.851 183.852 125.397C184.673 125.969 185.557 126.442 186.45 126.89C187.34 127.328 188.263 127.692 189.189 128.045L183.563 142.769C182.142 142.227 180.73 141.663 179.366 140.99C177.762 140.185 176.182 139.327 174.712 138.292C173.406 137.368 172.141 136.388 170.961 135.306C170.242 134.652 169.538 133.982 168.796 133.355C168.684 133.257 168.315 133.014 168.682 133.136C169.408 133.278 170.147 133.233 170.855 133.011C172.437 132.408 173.65 131.388 174.332 129.801C174.861 128.158 175.062 126.578 174.18 125.008C174.05 124.814 173.47 124.164 173.942 124.73C174.549 125.257 175.23 125.685 175.93 126.08C176.933 126.642 177.958 127.164 179.012 127.625C180.274 128.189 181.54 128.746 182.812 129.287C184.195 129.87 185.583 130.442 186.97 131.016C188.262 131.549 189.554 132.079 190.859 132.579C192.122 133.056 193.388 133.524 194.667 133.956C196.123 134.449 197.581 134.934 199.032 135.441C200.515 135.956 201.993 136.484 203.469 137.016C204.673 137.444 205.877 137.873 207.1 138.244C207.577 138.381 208.055 138.517 208.544 138.597C208.446 138.708 207.727 138.888 207.508 139.083C205.861 140.212 204.804 141.839 204.682 143.868C204.721 144.91 204.812 145.995 205.544 146.806C206.101 147.331 205.344 146.453 205.142 146.423C204.192 145.784 203.181 145.245 202.131 144.786C200.741 144.159 199.341 143.558 197.938 142.961C196.533 142.367 195.127 141.778 193.711 141.21C192.311 140.651 190.911 140.089 189.499 139.561C188.145 139.052 186.787 138.553 185.407 138.117C184.09 137.707 182.765 137.317 181.416 137.025C180.196 136.752 178.972 136.495 177.73 136.348C176.849 136.242 175.963 136.165 175.075 136.182C174.723 136.192 174.369 136.202 174.023 136.27C174.202 136.221 174.376 136.16 174.545 136.085L167.373 121.753L167.374 121.751V121.751Z" fill="#2E3436"/>
<path d="M302.615 257.809C302.013 257.621 301.41 257.443 300.81 257.246C299.714 256.908 298.63 256.53 297.553 256.131C296.203 255.625 294.881 255.049 293.574 254.443C292.084 253.752 290.663 252.931 289.263 252.077C287.769 251.169 286.353 250.146 284.97 249.078C283.547 247.966 282.221 246.739 280.933 245.476C279.503 244.092 278.227 242.57 277.048 240.97C275.792 239.235 274.835 237.323 274.031 235.345C273.148 233.192 272.819 230.919 272.788 228.608C272.817 225.971 273.697 223.565 274.977 221.299C276.467 218.857 278.692 217.216 281.208 215.961C283.65 214.833 286.29 214.552 288.945 214.579C291.46 214.671 293.875 215.352 296.221 216.214C298.349 217.021 300.313 218.17 302.208 219.417C303.844 220.521 305.383 221.76 306.882 223.04C308.107 224.104 309.284 225.22 310.461 226.335C311.418 227.246 312.384 228.148 313.373 229.023C314.339 229.852 315.318 230.665 316.279 231.498C317.574 232.601 318.73 233.844 319.812 235.152C320.905 236.497 321.806 237.979 322.642 239.492C323.389 240.865 324.004 242.302 324.591 243.749C325.336 245.494 325.757 247.33 325.996 249.205C326.28 251.726 325.697 254.101 324.671 256.385C323.191 259.145 321.186 260.674 318.361 261.891C316.013 262.757 313.578 262.731 311.149 262.321C309.194 261.937 307.383 261.117 305.643 260.175C304.045 259.284 302.625 258.13 301.242 256.943C300.135 255.958 299.024 254.976 297.884 254.028C296.763 253.093 295.579 252.241 294.379 251.411C293.169 250.576 291.913 249.813 290.643 249.075C290.431 248.96 290.221 248.838 290.01 248.72L297.76 235.017C298.034 235.169 298.306 235.326 298.579 235.481C300.202 236.429 301.809 237.406 303.352 238.48C304.91 239.561 306.445 240.674 307.91 241.88C309.124 242.873 310.318 243.891 311.501 244.921C312.069 245.401 312.635 245.89 313.262 246.292C313.37 246.351 314.117 246.714 314.029 246.722C313.56 246.783 313.082 246.85 312.648 247.068C311.675 247.574 310.881 248.283 310.44 249.31C310.263 249.793 310.054 250.359 310.219 250.875C310.307 250.617 310.009 249.984 309.899 249.652C309.558 248.789 309.197 247.932 308.763 247.11C308.398 246.436 308.019 245.766 307.547 245.16C307.05 244.529 306.487 243.96 305.884 243.429C304.879 242.55 303.848 241.701 302.848 240.816C301.742 239.823 300.655 238.809 299.584 237.777C298.592 236.831 297.598 235.885 296.579 234.968C295.593 234.104 294.574 233.274 293.495 232.527C292.608 231.928 291.692 231.368 290.699 230.959C290.019 230.69 289.324 230.449 288.597 230.348C288.429 230.334 288.038 230.409 287.971 230.254C288.185 229.998 288.453 229.779 288.563 229.448C288.645 229.211 288.705 228.981 288.622 228.733C288.439 228.735 288.705 229.477 288.728 229.552C289.001 230.311 289.353 231.037 289.809 231.705C290.451 232.614 291.181 233.451 291.981 234.225C292.833 235.06 293.71 235.87 294.646 236.611C295.552 237.317 296.484 237.991 297.468 238.584C298.367 239.126 299.275 239.653 300.229 240.094C301.134 240.511 302.05 240.904 302.988 241.243C303.76 241.516 304.542 241.769 305.333 241.985C305.781 242.106 306.23 242.218 306.685 242.309L302.615 257.81L302.615 257.809Z" fill="#2E3436"/>
<path d="M284.984 225.426C286.739 223.925 289.714 223.993 293.255 225.615C296.795 227.237 300.613 230.28 303.869 234.077C307.125 237.874 309.555 242.114 310.623 245.867C311.692 249.62 311.314 252.579 309.57 254.095C307.827 255.61 304.862 255.559 301.326 253.952C297.789 252.345 293.97 249.313 290.707 245.522C287.444 241.731 285.003 237.491 283.921 233.731C282.838 229.972 283.202 227.001 284.933 225.471L297.264 239.772L284.984 225.426Z" fill="#E16168"/>
<path d="M307.908 265.222C306.813 265.442 305.698 265.458 304.586 265.422C303.16 265.35 301.407 265.945 300.024 265.605C298.434 265.198 297.296 264.496 295.775 263.885C294.141 263.22 292.511 261.691 290.946 260.877C289.342 260.053 287.795 259.13 286.267 258.175C284.797 257.248 283.364 256.262 281.942 255.263C280.612 254.323 279.301 253.355 277.992 252.385C276.69 251.42 275.402 250.434 274.116 249.446C272.807 248.436 271.51 247.411 270.225 246.371C268.734 245.189 267.351 243.887 266.044 242.507C264.543 240.937 263.431 239.109 262.58 237.123C261.845 235.083 261.522 232.881 261.953 230.732C262.061 230.204 262.236 229.692 262.382 229.173C263.447 226.441 265.476 224.338 268.223 223.271C268.684 223.092 269.17 222.986 269.644 222.844C271.963 222.305 274.28 222.605 276.548 223.196C278.42 223.727 280.137 224.637 281.797 225.631C283.162 226.475 284.481 227.391 285.801 228.301C287.045 229.164 288.294 230.019 289.552 230.861C290.788 231.689 292.036 232.498 293.281 233.313C294.576 234.156 295.846 235.038 297.105 235.935C298.369 236.842 299.606 237.783 300.845 238.724C302.053 239.651 303.271 240.565 304.483 241.487C305.68 242.401 306.861 243.337 308.036 244.279C309.292 245.271 310.492 246.329 311.653 247.43C312.904 248.603 314.026 249.898 315.058 251.264C316.372 252.978 317.181 254.933 317.706 257.009C318.171 259.503 317.877 262.094 316.579 264.312C316.286 264.812 315.912 265.261 315.579 265.735C313.854 267.685 311.573 268.948 308.982 269.284C308.51 269.345 308.031 269.338 307.556 269.365C305.064 269.365 302.838 268.439 300.77 267.132C299.161 266.055 297.88 264.616 296.728 263.08C295.963 262.018 295.286 260.897 294.579 259.797C294.074 258.998 293.505 258.244 292.898 257.52C292.249 256.758 291.514 256.077 290.763 255.417C290.014 254.768 289.214 254.182 288.408 253.605L297.591 240.784C298.827 241.668 300.05 242.572 301.198 243.568C302.545 244.753 303.855 245.984 305.014 247.357C306.042 248.583 307.017 249.851 307.883 251.197C308.412 252.012 308.923 252.839 309.481 253.634C309.565 253.756 309.86 254.085 309.536 253.875C308.869 253.553 308.144 253.409 307.402 253.444C305.719 253.628 304.287 254.307 303.223 255.67C302.295 257.126 301.699 258.603 302.153 260.347C302.23 260.567 302.626 261.343 302.313 260.676C301.859 260.012 301.31 259.425 300.733 258.866C299.905 258.068 299.047 257.303 298.144 256.59C297.067 255.725 295.985 254.865 294.892 254.019C293.702 253.105 292.504 252.2 291.309 251.293C290.195 250.45 289.08 249.61 287.945 248.796C286.845 248.014 285.739 247.24 284.611 246.498C283.329 245.653 282.042 244.814 280.767 243.956C279.464 243.082 278.169 242.196 276.876 241.308C275.82 240.589 274.764 239.868 273.676 239.2C273.249 238.947 272.822 238.694 272.369 238.493C272.492 238.41 273.234 238.418 273.494 238.285C275.375 237.61 276.81 236.303 277.444 234.37C277.671 233.353 277.858 232.279 277.356 231.309C276.951 230.66 277.46 231.702 277.648 231.781C278.405 232.641 279.245 233.419 280.144 234.129C281.329 235.088 282.531 236.023 283.736 236.957C284.944 237.887 286.154 238.813 287.379 239.722C288.591 240.617 289.802 241.515 291.034 242.384C292.214 243.219 293.401 244.046 294.625 244.818C295.795 245.549 296.977 246.261 298.208 246.886C299.318 247.459 300.437 248.017 301.601 248.475C302.426 248.801 303.263 249.099 304.127 249.307C304.469 249.387 304.814 249.467 305.166 249.489C304.981 249.491 304.797 249.506 304.614 249.535L307.909 265.221L307.908 265.221L307.908 265.222Z" fill="#2E3436"/>
<path d="M152.078 172.478C148.815 172.957 145.494 173.412 142.556 175.026C138.829 176.96 135.094 178.967 131.719 181.471C128.517 184.229 125.616 187.696 124.414 191.805C123.493 195.802 125.398 200.078 128.727 202.364C130.628 203.398 132.965 204.331 134.456 205.338C142.8 205.405 150.508 209.024 158.593 210.583C160.594 211.353 163.772 214.591 165.445 212.432C166.905 209.614 166.973 206.008 165.266 203.279C162.725 203.798 159.86 205.239 157.42 204.039C150.648 201.543 144.06 198.476 138.14 194.311C136.452 191.633 141.871 190.919 143.466 189.557C146.572 188.15 149.22 184.956 152.954 185.929C159.719 186.267 165.241 190.822 171.782 192.007C172.477 189.011 176.615 192.119 178.765 191.089C181.527 190.403 183.363 187.253 186.521 188.777C189.604 190.229 194.159 186.11 189.929 184.209C186.98 183.002 183.764 182.651 181.16 180.632C178.384 180.035 175.749 178.99 173.192 177.733C168.682 175.733 163.701 175.245 159.082 173.56C156.804 172.925 154.456 172.428 152.079 172.478H152.078Z" fill="#E16168"/>
<path d="M164.636 202.657C166.565 205.711 166.798 212.821 163.787 213.774C165.064 210.264 164.843 206.51 163.968 202.989L164.636 202.657V202.657ZM156.743 204.343C157.574 206.897 153.785 209.698 155.37 205.578C155.249 204.807 155.876 203.763 156.743 204.343ZM146.703 200.908C147.42 203.395 143.551 206.17 145.259 202.152C145.183 201.39 145.813 200.199 146.703 200.908ZM173.594 191.197C182.995 193.502 190.322 201.717 200.445 201.558C203.794 202.019 210.28 201.024 211.646 201.308C207.912 202.448 203.894 201.862 200.045 202.029C192.459 201.667 185.958 197.485 179.552 193.875C177.914 192.609 174.526 192.447 173.594 191.197V191.197ZM180.941 190.382C187.363 192.454 193.184 196.408 200.059 196.981C202.119 197.069 207.934 197.918 202.899 197.848C196.579 197.14 190.486 195.225 184.832 192.31C183.956 191.394 180.967 191.582 180.941 190.383L180.941 190.382ZM182.717 189.346C189.042 188.649 195.138 191.168 201.424 191.474C203.796 192.06 209.821 191.826 209.907 192.236C205.129 193.04 200.307 191.425 195.529 191.119C191.392 190.228 186.474 189.747 182.717 189.346ZM127.174 197.105C129.87 198.759 137.395 194.918 136.704 198.254C133.894 198.479 128.214 200.247 126.885 197.597L127.174 197.105V197.105ZM132.228 183.356C132.229 185.339 138.098 189.698 134.414 189.488C133.393 188.675 129.035 183.332 132.228 183.356ZM141.575 177.647C140.955 179.775 144.124 186.122 141.04 184.981C140.595 183.519 138.725 177.159 141.575 177.647ZM153.07 174.731C151.986 176.406 153.055 184.015 150.562 181.349C150.71 179.823 150.487 173.201 153.07 174.731ZM165.063 176.801C162.894 179.075 162.84 185.303 160.453 185.319C160.489 183.557 162.227 174.791 165.063 176.801ZM176.451 179.924C179.467 180.336 174.501 185.065 176.451 179.924V179.924Z" fill="#2E3436"/>
<path d="M325.945 206.626C329.243 206.635 332.595 206.675 335.74 205.514C339.712 204.151 343.703 202.718 347.412 200.74C350.987 198.486 354.37 195.485 356.167 191.598C357.671 187.781 356.421 183.27 353.467 180.517C351.741 179.213 349.568 177.945 348.243 176.728C340.001 175.428 332.914 170.709 325.15 167.973C323.285 166.914 320.622 163.242 318.648 165.13C316.786 167.702 316.184 171.259 317.468 174.21C320.058 174.073 323.105 173.071 325.34 174.618C331.668 178.089 337.728 182.096 342.965 187.091C344.237 189.989 338.772 189.895 336.993 191.006C333.713 191.938 330.62 194.707 327.073 193.192C320.432 191.857 315.647 186.536 309.354 184.397C308.222 187.258 304.59 183.571 302.312 184.273C299.479 184.543 297.196 187.387 294.299 185.413C291.465 183.521 286.35 186.923 290.252 189.428C292.989 191.057 296.118 191.88 298.394 194.262C301.05 195.263 303.502 196.686 305.844 198.308C310.007 200.952 314.861 202.172 319.179 204.521C321.338 205.485 323.586 206.324 325.944 206.626L325.945 206.626Z" fill="#E16168"/>
<path d="M317.998 174.917C316.543 171.612 317.366 164.545 320.486 164.047C318.703 167.33 318.364 171.076 318.708 174.689L317.998 174.918L317.998 174.917ZM326.054 174.417C325.61 171.767 329.773 169.557 327.595 173.398C327.6 174.179 326.825 175.118 326.054 174.417ZM335.474 179.299C335.134 176.733 339.371 174.56 337.087 178.282C337.048 179.047 336.249 180.132 335.474 179.299ZM307.441 184.929C298.485 181.26 292.457 172.051 282.422 170.712C279.179 169.761 272.617 169.786 271.308 169.303C275.17 168.728 279.056 169.902 282.888 170.305C290.336 171.784 296.146 176.882 301.945 181.4C303.378 182.894 306.704 183.556 307.441 184.929L307.441 184.929ZM300.055 184.649C294.01 181.65 288.84 176.879 282.126 175.296C280.101 174.905 274.476 173.206 279.445 174.019C285.59 175.653 291.333 178.448 296.492 182.167C297.223 183.203 300.207 183.459 300.054 184.649L300.055 184.649ZM298.145 185.412C291.785 185.167 286.131 181.774 279.96 180.541C277.701 179.611 271.707 178.952 271.683 178.534C276.528 178.445 281.057 180.755 285.737 181.764C289.696 183.257 294.489 184.46 298.145 185.412ZM354.223 185.947C351.802 183.913 343.791 186.6 344.969 183.402C347.781 183.595 353.661 182.686 354.582 185.503L354.223 185.947L354.223 185.947ZM347.187 198.8C347.48 196.839 342.323 191.659 345.934 192.412C346.823 193.366 350.341 199.297 347.187 198.8ZM337.097 203.066C338.026 201.052 335.833 194.306 338.714 195.89C338.937 197.402 339.844 203.97 337.097 203.066ZM325.297 204.251C326.617 202.755 326.689 195.07 328.758 198.076C328.386 199.563 327.625 206.147 325.297 204.251ZM313.744 200.431C316.225 198.501 317.202 192.35 319.565 192.687C319.269 194.424 316.251 202.839 313.744 200.431ZM302.945 195.658C300.023 194.805 305.635 190.862 302.945 195.658V195.658Z" fill="#2E3436"/>
<path d="M256.131 101.788C254.488 98.9306 252.846 96.0099 250.266 93.8697C247.098 91.1144 243.859 88.3779 240.29 86.1577C236.548 84.1921 232.257 82.7663 227.991 83.156C223.932 83.7651 220.652 87.1033 219.745 91.0369C219.481 93.1829 219.47 95.698 219.079 97.4532C222.079 105.236 221.538 113.729 223.054 121.816C223.071 123.96 221.224 128.102 223.847 128.866C227.006 129.19 230.387 127.931 232.301 125.343C230.886 123.171 228.493 121.035 228.714 118.327C228.553 111.115 228.991 103.866 230.695 96.8358C232.568 94.2843 235.222 99.0603 237.074 100.044C239.524 102.416 243.469 103.707 243.932 107.535C246.1 113.948 243.887 120.752 245.184 127.267C248.228 126.815 246.853 131.803 248.601 133.423C250.253 135.74 253.858 136.292 253.599 139.786C253.378 143.185 258.884 145.909 259.101 141.28C259.142 138.096 258.289 134.977 259.213 131.815C258.75 129.016 258.755 126.183 258.988 123.345C259.194 118.419 257.821 113.608 257.694 108.697C257.449 106.346 257.051 103.981 256.131 101.789L256.131 101.788Z" fill="#E16168"/>
<path d="M232.648 124.529C230.513 127.441 223.981 130.265 221.989 127.815C225.724 127.715 229.138 126.134 232.094 124.029L232.648 124.529L232.648 124.529ZM228.183 117.809C226.11 119.518 222.113 117.022 226.529 116.984C227.203 116.59 228.404 116.79 228.183 117.809ZM227.695 107.215C225.644 108.793 221.642 106.214 226.008 106.328C226.69 105.979 228.03 106.128 227.695 107.215ZM246.601 128.655C247.905 138.239 242.947 148.063 246.81 157.416C247.61 160.699 250.915 166.364 251.152 167.738C248.721 164.684 247.793 160.734 246.225 157.217C243.778 150.032 245.285 142.454 246.295 135.176C246.872 133.188 245.78 129.98 246.601 128.655L246.601 128.655ZM250.055 135.186C250.483 141.917 248.939 148.777 250.928 155.379C251.603 157.327 252.946 163.044 251.164 158.338C249.503 152.203 249.05 145.835 249.688 139.51C250.22 138.36 248.948 135.65 250.055 135.186L250.055 135.186ZM251.671 136.457C254.642 142.082 254.533 148.672 256.555 154.629C256.879 157.049 259.308 162.565 258.958 162.796C256.457 158.648 256.19 153.573 254.722 149.019C254.033 144.846 252.677 140.097 251.671 136.457ZM224.07 87.665C223.52 90.7777 229.855 96.3652 226.497 96.9459C225.257 94.4162 221.527 89.7834 223.506 87.5768L224.069 87.6651L224.07 87.665ZM238.721 87.3225C236.876 88.0503 234.971 95.1047 233.816 91.603C234.198 90.3559 237.572 84.3448 238.721 87.3225ZM247.464 93.9193C245.256 94.1231 240.512 99.3955 240.442 96.1103C241.639 95.1611 246.873 91.0903 247.464 93.9193ZM254.396 103.536C252.44 103.143 245.749 106.926 247.317 103.631C248.791 103.209 254.873 100.574 254.396 103.536ZM256.87 115.445C253.957 114.263 248.142 116.496 247.251 114.282C248.903 113.67 257.701 112.071 256.87 115.445ZM258.141 127.177C258.865 130.132 252.642 127.249 258.141 127.177V127.177Z" fill="#2E3436"/>
<path d="M259.553 290.174C257.911 293.031 256.268 295.952 253.688 298.092C250.521 300.848 247.282 303.584 243.712 305.804C239.97 307.77 235.679 309.196 231.413 308.806C227.355 308.197 224.074 304.859 223.168 300.925C222.903 298.779 222.892 296.264 222.502 294.509C225.501 286.726 224.961 278.233 226.477 270.146C226.494 268.002 224.646 263.86 227.27 263.096C230.429 262.772 233.81 264.031 235.723 266.619C234.308 268.791 231.916 270.927 232.137 273.635C231.975 280.847 232.413 288.096 234.117 295.126C235.99 297.678 238.644 292.902 240.497 291.918C242.946 289.546 246.891 288.255 247.355 284.427C249.523 278.014 247.309 271.21 248.607 264.695C251.65 265.147 250.275 260.159 252.023 258.539C253.675 256.222 257.281 255.67 257.021 252.176C256.801 248.777 262.307 246.053 262.524 250.682C262.565 253.866 261.711 256.985 262.635 260.147C262.173 262.946 262.178 265.779 262.41 268.617C262.616 273.543 261.243 278.354 261.117 283.265C260.872 285.616 260.473 287.981 259.554 290.173L259.553 290.174Z" fill="#E16168"/>
<path d="M236.07 267.433C233.935 264.521 227.404 261.697 225.411 264.147C229.147 264.247 232.56 265.828 235.516 267.933L236.07 267.433L236.07 267.433ZM231.605 274.153C229.532 272.444 225.535 274.94 229.951 274.978C230.625 275.373 231.826 275.172 231.605 274.153ZM231.118 284.747C229.067 283.169 225.064 285.748 229.431 285.634C230.112 285.983 231.452 285.834 231.118 284.747ZM250.024 263.307C251.328 253.723 246.369 243.899 250.233 234.546C251.032 231.263 254.338 225.598 254.575 224.224C252.143 227.278 251.215 231.228 249.647 234.745C247.2 241.93 248.707 249.508 249.717 256.786C250.294 258.774 249.202 261.982 250.023 263.307L250.024 263.307ZM253.477 256.776C253.906 250.045 252.361 243.185 254.35 236.583C255.025 234.635 256.368 228.918 254.586 233.624C252.926 239.759 252.472 246.127 253.111 252.452C253.642 253.602 252.371 256.312 253.477 256.776L253.477 256.776ZM255.094 255.505C258.064 249.88 257.955 243.29 259.977 237.333C260.302 234.913 262.731 229.397 262.381 229.166C259.879 233.314 259.613 238.389 258.144 242.943C257.456 247.116 256.099 251.865 255.094 255.505ZM227.492 304.297C226.942 301.184 233.278 295.597 229.919 295.016C228.679 297.546 224.949 302.179 226.928 304.385L227.492 304.297L227.492 304.297ZM242.144 304.64C240.298 303.912 238.394 296.857 237.238 300.359C237.62 301.606 240.995 307.617 242.144 304.64ZM250.887 298.043C248.679 297.839 243.934 292.567 243.864 295.852C245.062 296.801 250.295 300.872 250.887 298.043ZM257.819 288.426C255.862 288.819 249.172 285.036 250.739 288.331C252.213 288.753 258.295 291.388 257.819 288.426ZM260.293 276.517C257.38 277.699 251.564 275.466 250.673 277.68C252.326 278.293 261.123 279.891 260.293 276.517ZM261.564 264.785C262.287 261.83 256.064 264.713 261.564 264.785V264.785Z" fill="#2E3436"/>
<path d="M188.008 95.2097C188.858 95.2761 189.688 95.4755 190.508 95.7008C191.411 95.9589 192.287 96.2987 193.154 96.6604C194.119 97.0594 195.062 97.5082 195.996 97.9761C196.959 98.4647 197.906 98.9812 198.856 99.4953C199.872 100.03 200.879 100.579 201.867 101.166C203.021 101.85 204.1 102.647 205.159 103.468C205.294 103.572 205.43 103.678 205.566 103.782L197.289 114.501C197.142 114.387 196.995 114.273 196.847 114.162C196.228 113.682 195.605 113.204 194.931 112.803C194.113 112.314 193.272 111.867 192.428 111.424C191.609 110.985 190.79 110.544 189.959 110.127C189.316 109.814 188.667 109.51 187.999 109.252C187.637 109.104 187.271 108.964 186.892 108.868C186.963 108.865 187.027 108.905 187.094 108.905L188.007 95.2165L188.008 95.2097Z" fill="#9BC542"/>
<path d="M310.785 129.559C310.608 130.164 310.441 130.771 310.255 131.374C309.937 132.476 309.578 133.567 309.199 134.65C308.718 136.008 308.166 137.341 307.583 138.659C306.919 140.16 306.123 141.596 305.295 143.011C304.414 144.522 303.416 145.957 302.373 147.359C301.286 148.801 300.084 150.15 298.844 151.461C297.486 152.917 295.987 154.221 294.407 155.429C292.695 156.718 290.8 157.71 288.837 158.551C286.699 159.474 284.431 159.846 282.121 159.922C279.483 159.943 277.06 159.109 274.771 157.874C272.302 156.432 270.621 154.24 269.319 151.749C268.146 149.33 267.817 146.697 267.796 144.044C267.842 141.529 268.48 139.103 269.3 136.743C270.069 134.6 271.182 132.616 272.394 130.698C273.47 129.043 274.68 127.482 275.934 125.959C276.976 124.715 278.071 123.518 279.165 122.32C280.058 121.346 280.942 120.364 281.8 119.358C282.611 118.378 283.406 117.384 284.222 116.407C285.302 115.092 286.525 113.913 287.814 112.807C289.139 111.689 290.604 110.761 292.103 109.897C293.462 109.124 294.889 108.482 296.325 107.868C298.057 107.09 299.885 106.634 301.756 106.36C304.273 106.028 306.659 106.565 308.961 107.546C311.749 108.974 313.315 110.947 314.583 113.747C315.492 116.078 315.51 118.511 315.144 120.946C314.796 122.907 314.007 124.732 313.097 126.489C312.235 128.102 311.107 129.543 309.945 130.948C308.98 132.074 308.018 133.202 307.09 134.359C306.175 135.497 305.344 136.697 304.536 137.912C303.723 139.136 302.983 140.406 302.268 141.69C302.156 141.904 302.038 142.115 301.924 142.329L288.078 134.846C288.225 134.57 288.377 134.294 288.527 134.019C289.446 132.379 290.394 130.754 291.44 129.192C292.493 127.615 293.579 126.059 294.758 124.572C295.73 123.34 296.726 122.127 297.735 120.926C298.204 120.349 298.683 119.774 299.074 119.14C299.13 119.031 299.48 118.278 299.49 118.365C299.56 118.833 299.635 119.309 299.861 119.739C300.385 120.701 301.109 121.482 302.143 121.902C302.63 122.07 303.2 122.268 303.713 122.093C303.453 122.01 302.825 122.32 302.496 122.436C301.638 122.794 300.788 123.171 299.973 123.62C299.306 123.998 298.643 124.39 298.045 124.872C297.423 125.381 296.864 125.955 296.344 126.567C295.483 127.588 294.653 128.635 293.786 129.651C292.813 130.775 291.818 131.881 290.806 132.97C289.878 133.98 288.95 134.991 288.051 136.027C287.204 137.029 286.392 138.062 285.665 139.155C285.082 140.053 284.538 140.979 284.147 141.979C283.891 142.663 283.662 143.363 283.574 144.091C283.564 144.259 283.646 144.649 283.492 144.719C283.232 144.51 283.008 144.246 282.675 144.143C282.436 144.065 282.205 144.009 281.959 144.097C281.965 144.28 282.702 144 282.776 143.975C283.53 143.688 284.25 143.323 284.909 142.854C285.808 142.195 286.631 141.451 287.391 140.636C288.211 139.768 289.005 138.876 289.729 137.927C290.419 137.008 291.075 136.064 291.651 135.069C292.176 134.161 292.687 133.244 293.111 132.282C293.512 131.37 293.888 130.446 294.211 129.503C294.47 128.726 294.709 127.94 294.91 127.146C295.023 126.696 295.126 126.245 295.21 125.788L310.787 129.56L310.785 129.559Z" fill="#2E3436"/>
<path d="M278.715 147.791C277.182 146.066 277.196 143.093 278.754 139.526C280.312 135.958 283.288 132.087 287.027 128.762C290.767 125.437 294.964 122.93 298.7 121.791C302.435 120.651 305.402 120.973 306.95 122.685C308.498 124.398 308.5 127.361 306.957 130.924C305.413 134.487 302.449 138.359 298.715 141.691C294.982 145.023 290.784 147.542 287.043 148.695C283.302 149.848 280.323 149.541 278.761 147.841L292.844 135.251L278.715 147.791Z" fill="#E16168"/>
<path d="M318.111 124.131C318.35 125.221 318.387 126.335 318.371 127.447C318.325 128.873 318.951 130.614 318.636 132.001C318.259 133.598 317.577 134.749 316.993 136.28C316.358 137.926 314.858 139.584 314.073 141.163C313.278 142.781 312.382 144.345 311.455 145.89C310.555 147.377 309.595 148.827 308.622 150.267C307.705 151.614 306.762 152.942 305.815 154.269C304.873 155.589 303.91 156.894 302.945 158.198C301.96 159.525 300.958 160.841 299.94 162.145C298.786 163.657 297.509 165.064 296.152 166.396C294.61 167.926 292.801 169.072 290.831 169.961C288.804 170.734 286.607 171.098 284.45 170.709C283.921 170.611 283.405 170.446 282.883 170.309C280.132 169.297 277.992 167.31 276.875 164.586C276.688 164.128 276.573 163.645 276.422 163.174C275.841 160.867 276.099 158.547 276.649 156.269C277.146 154.388 278.025 152.654 278.989 150.977C279.809 149.597 280.7 148.262 281.587 146.925C282.427 145.666 283.26 144.401 284.079 143.128C284.885 141.877 285.672 140.615 286.464 139.355C287.284 138.045 288.143 136.76 289.016 135.485C289.9 134.205 290.82 132.95 291.738 131.694C292.643 130.469 293.535 129.235 294.435 128.006C295.328 126.792 296.243 125.595 297.164 124.403C298.133 123.129 299.169 121.909 300.249 120.728C301.4 119.456 302.674 118.311 304.022 117.253C305.712 115.908 307.653 115.062 309.72 114.497C312.205 113.985 314.802 114.23 317.043 115.484C317.549 115.768 318.004 116.133 318.485 116.456C320.467 118.142 321.771 120.398 322.154 122.98C322.223 123.451 322.225 123.93 322.261 124.404C322.306 126.894 321.42 129.136 320.15 131.227C319.103 132.855 317.686 134.163 316.171 135.343C315.123 136.128 314.014 136.826 312.927 137.554C312.137 138.074 311.393 138.656 310.681 139.277C309.93 139.939 309.262 140.687 308.616 141.45C307.98 142.211 307.409 143.022 306.847 143.838L293.858 134.906C294.719 133.654 295.601 132.415 296.577 131.249C297.737 129.88 298.944 128.548 300.297 127.364C301.503 126.313 302.755 125.315 304.085 124.424C304.891 123.88 305.708 123.353 306.493 122.78C306.614 122.694 306.937 122.393 306.733 122.721C306.423 123.393 306.293 124.121 306.341 124.861C306.555 126.539 307.261 127.957 308.643 128.994C310.116 129.894 311.604 130.461 313.339 129.974C313.558 129.893 314.327 129.483 313.666 129.808C313.01 130.275 312.433 130.835 311.884 131.422C311.101 132.264 310.352 133.136 309.655 134.052C308.809 135.145 307.969 136.243 307.143 137.351C306.25 138.557 305.367 139.771 304.481 140.983C303.659 142.112 302.839 143.243 302.045 144.392C301.283 145.507 300.529 146.626 299.808 147.767C298.985 149.065 298.169 150.366 297.335 151.656C296.484 152.975 295.622 154.286 294.757 155.596C294.057 156.664 293.355 157.733 292.707 158.834C292.461 159.264 292.216 159.696 292.023 160.153C291.938 160.032 291.932 159.29 291.795 159.032C291.086 157.166 289.753 155.756 287.808 155.16C286.787 154.953 285.71 154.786 284.748 155.307C284.107 155.723 285.139 155.195 285.215 155.005C286.061 154.233 286.823 153.378 287.518 152.467C288.455 151.265 289.369 150.045 290.281 148.824C291.19 147.599 292.094 146.371 292.98 145.13C293.854 143.902 294.73 142.675 295.577 141.428C296.39 140.232 297.196 139.03 297.946 137.793C298.655 136.61 299.346 135.416 299.948 134.173C300.502 133.053 301.04 131.924 301.476 130.753C301.787 129.922 302.071 129.08 302.263 128.213C302.336 127.87 302.41 127.523 302.426 127.171C302.431 127.356 302.449 127.539 302.482 127.721L318.109 124.13L318.11 124.131L318.111 124.131Z" fill="#2E3436"/>
<path d="M187.809 277.594C188.407 277.712 188.994 277.874 189.579 278.041C190.44 278.292 191.297 278.553 192.159 278.802C193.166 279.093 194.183 279.354 195.205 279.591C196.292 279.841 197.389 280.038 198.489 280.216C199.691 280.404 200.899 280.548 202.107 280.683C203.442 280.827 204.78 280.952 206.117 281.066C207.472 281.181 208.827 281.295 210.183 281.402C210.998 281.476 211.815 281.516 212.633 281.542L212.16 295.009C211.146 294.973 210.133 294.925 209.123 294.836C207.724 294.726 206.327 294.608 204.929 294.49C203.5 294.361 202.072 294.224 200.645 294.08C199.204 293.926 197.764 293.759 196.332 293.539C194.945 293.314 193.562 293.068 192.191 292.758C190.965 292.482 189.743 292.185 188.531 291.855C187.728 291.641 186.926 291.421 186.116 291.235C186.034 291.198 185.381 291.073 185.551 291.132L187.809 277.592L187.809 277.594Z" fill="#9BC542"/>
<path d="M348.959 214.383C348.827 215.025 348.648 215.656 348.451 216.282C348.147 217.213 347.807 218.132 347.467 219.051C347.048 220.207 346.599 221.352 346.136 222.491C345.616 223.788 345.043 225.063 344.446 226.326C343.793 227.68 343.067 228.996 342.33 230.305C341.596 231.608 340.818 232.886 340.027 234.155L328.589 227.022C329.272 225.931 329.94 224.831 330.568 223.707C331.147 222.673 331.723 221.635 332.237 220.567C332.721 219.54 333.178 218.499 333.595 217.443C333.985 216.467 334.36 215.484 334.695 214.487C334.927 213.815 335.161 213.141 335.351 212.455C335.377 212.344 335.463 211.964 335.424 212.03L348.959 214.382L348.959 214.383Z" fill="#9BC542"/>
<path d="M284.383 85.3256C284.25 85.9679 284.072 86.5993 283.875 87.2246C283.571 88.1561 283.23 89.0749 282.891 89.9937C282.472 91.1497 282.023 92.2945 281.56 93.4335C281.04 94.7307 280.467 96.0061 279.869 97.2694C279.216 98.623 278.491 99.9389 277.753 101.248C277.019 102.551 276.242 103.829 275.45 105.098L264.013 97.9653C264.695 96.8738 265.364 95.7745 265.992 94.6502C266.571 93.6159 267.146 92.5783 267.66 91.5097C268.145 90.4828 268.601 89.4424 269.018 88.3864C269.408 87.41 269.783 86.4272 270.119 85.4305C270.35 84.7575 270.585 84.0843 270.774 83.3978C270.8 83.2871 270.887 82.9068 270.848 82.9728L284.383 85.3252L284.383 85.3256Z" fill="#9BC542"/>
<path d="M216.242 201.256C216.765 202.021 217.633 202.338 218.18 201.964C218.726 201.59 218.745 200.667 218.221 199.902C217.698 199.137 216.83 198.82 216.283 199.194C215.736 199.568 215.718 200.491 216.242 201.256Z" fill="#888A85"/>
<path d="M215.013 209.004C215.537 209.769 216.405 210.086 216.951 209.713C217.498 209.339 217.517 208.416 216.993 207.651C216.469 206.886 215.601 206.569 215.055 206.942C214.508 207.316 214.489 208.239 215.013 209.004Z" fill="#888A85"/>
<path d="M223.454 210.586C223.978 211.351 224.846 211.668 225.392 211.294C225.939 210.921 225.958 209.998 225.434 209.233C224.91 208.468 224.042 208.15 223.496 208.524C222.949 208.898 222.93 209.821 223.454 210.586Z" fill="#888A85"/>
<path d="M255.135 174.667C255.114 175.594 255.634 176.357 256.296 176.372C256.958 176.388 257.512 175.649 257.534 174.722C257.555 173.796 257.035 173.032 256.373 173.017C255.711 173.002 255.157 173.741 255.135 174.667Z" fill="#888A85"/>
<path d="M249.614 180.245C249.593 181.171 250.112 181.934 250.775 181.95C251.437 181.965 251.991 181.226 252.012 180.299C252.033 179.373 251.514 178.609 250.852 178.594C250.189 178.579 249.635 179.318 249.614 180.245Z" fill="#888A85"/>
<path d="M255.546 186.45C255.525 187.377 256.044 188.14 256.707 188.155C257.369 188.17 257.923 187.432 257.944 186.505C257.966 185.578 257.446 184.815 256.784 184.8C256.121 184.785 255.567 185.524 255.546 186.45Z" fill="#888A85"/>
<path d="M218.159 169.716C218.683 170.481 219.551 170.798 220.097 170.425C220.644 170.051 220.663 169.128 220.139 168.363C219.615 167.598 218.747 167.281 218.2 167.654C217.654 168.028 217.635 168.951 218.159 169.716Z" fill="#888A85"/>
<path d="M216.931 177.465C217.454 178.23 218.322 178.547 218.869 178.173C219.415 177.799 219.434 176.876 218.91 176.111C218.387 175.346 217.519 175.029 216.972 175.403C216.425 175.777 216.407 176.7 216.931 177.465Z" fill="#888A85"/>
<path d="M225.372 179.047C225.895 179.812 226.763 180.129 227.31 179.755C227.857 179.381 227.875 178.458 227.351 177.693C226.828 176.928 225.96 176.611 225.413 176.985C224.867 177.359 224.848 178.282 225.372 179.047Z" fill="#888A85"/>
<path d="M151.606 222.392C152.13 223.157 152.997 223.475 153.544 223.101C154.091 222.727 154.109 221.804 153.586 221.039C153.062 220.274 152.194 219.957 151.647 220.331C151.101 220.704 151.082 221.627 151.606 222.392Z" fill="#888A85"/>
<path d="M150.378 230.141C150.901 230.906 151.769 231.223 152.316 230.849C152.862 230.476 152.881 229.553 152.357 228.788C151.834 228.023 150.966 227.705 150.419 228.079C149.872 228.453 149.854 229.376 150.378 230.141Z" fill="#888A85"/>
<path d="M158.819 231.723C159.342 232.488 160.21 232.805 160.757 232.431C161.304 232.057 161.322 231.134 160.798 230.369C160.275 229.604 159.407 229.287 158.86 229.661C158.313 230.035 158.295 230.958 158.819 231.723Z" fill="#888A85"/>
<path d="M237.701 214.524C238.225 215.289 239.093 215.606 239.64 215.232C240.186 214.859 240.205 213.936 239.681 213.171C239.157 212.406 238.289 212.088 237.743 212.462C237.196 212.836 237.178 213.759 237.701 214.524Z" fill="#888A85"/>
<path d="M236.473 222.273C236.997 223.038 237.865 223.355 238.411 222.981C238.958 222.607 238.976 221.684 238.453 220.919C237.929 220.154 237.061 219.837 236.514 220.211C235.968 220.584 235.949 221.508 236.473 222.273Z" fill="#888A85"/>
<path d="M244.914 223.854C245.438 224.619 246.306 224.936 246.852 224.563C247.399 224.189 247.418 223.266 246.894 222.501C246.37 221.736 245.502 221.419 244.956 221.793C244.409 222.166 244.39 223.089 244.914 223.854Z" fill="#888A85"/>
<path d="M288.666 285.604C289.19 286.369 290.057 286.686 290.604 286.313C291.151 285.939 291.169 285.016 290.646 284.251C290.122 283.486 289.254 283.169 288.707 283.542C288.161 283.916 288.142 284.839 288.666 285.604Z" fill="#888A85"/>
<path d="M287.438 293.353C287.961 294.118 288.829 294.435 289.376 294.061C289.922 293.687 289.941 292.764 289.417 291.999C288.894 291.234 288.026 290.917 287.479 291.291C286.932 291.665 286.914 292.588 287.438 293.353Z" fill="#888A85"/>
<path d="M295.879 294.935C296.402 295.7 297.27 296.017 297.817 295.643C298.363 295.269 298.382 294.346 297.858 293.581C297.335 292.816 296.467 292.499 295.92 292.873C295.373 293.247 295.355 294.17 295.879 294.935Z" fill="#888A85"/>
<path d="M268.898 267.826C269.421 268.591 270.289 268.908 270.836 268.534C271.383 268.161 271.401 267.238 270.877 266.473C270.354 265.708 269.486 265.391 268.939 265.764C268.392 266.138 268.374 267.061 268.898 267.826Z" fill="#888A85"/>
<path d="M267.669 275.575C268.193 276.34 269.061 276.657 269.608 276.283C270.154 275.909 270.173 274.986 269.649 274.221C269.125 273.456 268.258 273.139 267.711 273.513C267.164 273.887 267.146 274.81 267.669 275.575Z" fill="#888A85"/>
<path d="M276.11 277.156C276.634 277.921 277.502 278.239 278.049 277.865C278.595 277.491 278.614 276.568 278.09 275.803C277.566 275.038 276.699 274.721 276.152 275.095C275.605 275.468 275.587 276.392 276.11 277.156Z" fill="#888A85"/>
<path d="M202.344 264.533C202.868 265.298 203.736 265.616 204.283 265.242C204.829 264.868 204.848 263.945 204.324 263.18C203.8 262.415 202.933 262.098 202.386 262.472C201.839 262.845 201.821 263.768 202.344 264.533Z" fill="#888A85"/>
<path d="M201.116 272.282C201.64 273.047 202.507 273.364 203.054 272.99C203.601 272.616 203.619 271.693 203.096 270.928C202.572 270.163 201.704 269.846 201.157 270.22C200.611 270.594 200.592 271.517 201.116 272.282Z" fill="#888A85"/>
<path d="M209.557 273.864C210.081 274.629 210.949 274.946 211.495 274.572C212.042 274.199 212.061 273.275 211.537 272.51C211.013 271.745 210.145 271.428 209.599 271.802C209.052 272.176 209.033 273.099 209.557 273.864Z" fill="#888A85"/>
<path d="M133.814 240.171C134.338 240.936 135.206 241.253 135.752 240.879C136.299 240.506 136.318 239.583 135.794 238.818C135.27 238.053 134.402 237.736 133.856 238.109C133.309 238.483 133.29 239.406 133.814 240.171Z" fill="#888A85"/>
<path d="M132.586 247.919C133.11 248.684 133.977 249.002 134.524 248.628C135.071 248.254 135.089 247.331 134.566 246.566C134.042 245.801 133.174 245.484 132.627 245.858C132.081 246.231 132.062 247.155 132.586 247.919Z" fill="#888A85"/>
<path d="M141.027 249.501C141.551 250.266 142.418 250.583 142.965 250.21C143.512 249.836 143.53 248.913 143.007 248.148C142.483 247.383 141.615 247.066 141.068 247.44C140.522 247.813 140.503 248.736 141.027 249.501Z" fill="#888A85"/>
<path d="M320.295 146.012C320.819 146.777 321.686 147.094 322.233 146.72C322.78 146.346 322.798 145.423 322.275 144.658C321.751 143.893 320.883 143.576 320.336 143.95C319.79 144.324 319.771 145.247 320.295 146.012Z" fill="#888A85"/>
<path d="M319.067 153.76C319.59 154.525 320.458 154.842 321.005 154.469C321.551 154.095 321.57 153.172 321.046 152.407C320.523 151.642 319.655 151.325 319.108 151.698C318.561 152.072 318.543 152.995 319.067 153.76Z" fill="#888A85"/>
<path d="M327.508 155.342C328.031 156.107 328.899 156.424 329.446 156.051C329.992 155.677 330.011 154.754 329.487 153.989C328.963 153.224 328.096 152.907 327.549 153.28C327.002 153.654 326.984 154.577 327.508 155.342Z" fill="#888A85"/>
<path d="M286.052 195.553C285.497 196.296 285.478 197.219 286.009 197.615C286.54 198.011 287.42 197.729 287.975 196.986C288.529 196.243 288.548 195.32 288.017 194.924C287.486 194.529 286.606 194.81 286.052 195.553Z" fill="#888A85"/>
<path d="M278.318 196.903C277.763 197.646 277.744 198.569 278.275 198.965C278.806 199.36 279.686 199.079 280.241 198.336C280.795 197.593 280.814 196.67 280.283 196.274C279.752 195.878 278.872 196.16 278.318 196.903Z" fill="#888A85"/>
<path d="M279.555 205.395C279.001 206.138 278.982 207.061 279.513 207.457C280.044 207.853 280.924 207.571 281.478 206.828C282.033 206.085 282.052 205.162 281.521 204.766C280.99 204.371 280.11 204.652 279.555 205.395Z" fill="#888A85"/>
<path d="M257.386 198.64C257.15 199.537 257.478 200.4 258.118 200.568C258.759 200.737 259.47 200.147 259.706 199.25C259.942 198.354 259.614 197.491 258.974 197.322C258.333 197.154 257.623 197.744 257.386 198.64Z" fill="#888A85"/>
<path d="M250.719 202.783C250.483 203.679 250.81 204.542 251.451 204.711C252.092 204.879 252.802 204.289 253.039 203.393C253.275 202.496 252.947 201.633 252.307 201.465C251.666 201.296 250.955 201.886 250.719 202.783Z" fill="#888A85"/>
<path d="M255.046 210.196C254.809 211.092 255.137 211.955 255.778 212.124C256.418 212.292 257.129 211.702 257.365 210.806C257.601 209.909 257.274 209.046 256.633 208.878C255.993 208.709 255.282 209.299 255.046 210.196Z" fill="#888A85"/>
<path d="M225.407 144.695C225.931 145.46 226.799 145.777 227.346 145.403C227.892 145.029 227.911 144.106 227.387 143.341C226.863 142.576 225.996 142.259 225.449 142.633C224.902 143.007 224.884 143.93 225.407 144.695Z" fill="#888A85"/>
<path d="M224.179 152.443C224.703 153.208 225.57 153.525 226.117 153.152C226.664 152.778 226.682 151.855 226.159 151.09C225.635 150.325 224.767 150.008 224.22 150.381C223.674 150.755 223.655 151.678 224.179 152.443Z" fill="#888A85"/>
<path d="M232.62 154.025C233.144 154.79 234.012 155.107 234.558 154.734C235.105 154.36 235.124 153.437 234.6 152.672C234.076 151.907 233.208 151.59 232.662 151.963C232.115 152.337 232.096 153.26 232.62 154.025Z" fill="#888A85"/>
<path d="M179.15 203.929C179.06 204.361 178.94 204.786 178.808 205.207C178.603 205.833 178.374 206.452 178.146 207.07C177.864 207.847 177.562 208.618 177.25 209.384C176.9 210.257 176.515 211.115 176.113 211.964C175.674 212.875 175.185 213.76 174.689 214.641C174.196 215.518 173.673 216.377 173.14 217.231L165.445 212.432C165.905 211.698 166.355 210.959 166.777 210.203C167.167 209.507 167.554 208.809 167.9 208.09C168.225 207.399 168.532 206.699 168.813 205.989C169.075 205.331 169.328 204.67 169.553 204C169.709 203.547 169.867 203.094 169.994 202.632C170.012 202.559 170.07 202.301 170.044 202.345L179.149 203.927L179.15 203.929Z" fill="#9BC542"/>
<path d="M164.195 106.045C165.123 106.045 165.875 105.509 165.875 104.847C165.875 104.185 165.123 103.648 164.195 103.648C163.268 103.648 162.516 104.185 162.516 104.847C162.516 105.509 163.268 106.045 164.195 106.045Z" fill="#888A85"/>
<path d="M169.902 111.433C170.829 111.433 171.581 110.897 171.581 110.235C171.581 109.573 170.829 109.036 169.902 109.036C168.974 109.036 168.222 109.573 168.222 110.235C168.222 110.897 168.974 111.433 169.902 111.433Z" fill="#888A85"/>
<path d="M175.974 105.365C176.902 105.365 177.654 104.829 177.654 104.167C177.654 103.505 176.902 102.968 175.974 102.968C175.047 102.968 174.295 103.505 174.295 104.167C174.295 104.829 175.047 105.365 175.974 105.365Z" fill="#888A85"/>
<path d="M201.096 88.9255C202.024 88.9255 202.775 88.3888 202.775 87.7268C202.775 87.0648 202.024 86.5282 201.096 86.5282C200.169 86.5282 199.417 87.0648 199.417 87.7268C199.417 88.3888 200.169 88.9255 201.096 88.9255Z" fill="#888A85"/>
<path d="M206.802 94.3137C207.73 94.3137 208.482 93.777 208.482 93.115C208.482 92.453 207.73 91.9164 206.802 91.9164C205.875 91.9164 205.123 92.453 205.123 93.115C205.123 93.777 205.875 94.3137 206.802 94.3137Z" fill="#888A85"/>
<path d="M212.875 88.2454C213.803 88.2454 214.554 87.7088 214.554 87.0468C214.554 86.3848 213.803 85.8481 212.875 85.8481C211.948 85.8481 211.196 86.3848 211.196 87.0468C211.196 87.7088 211.948 88.2454 212.875 88.2454Z" fill="#888A85"/>
</g>
</svg>
