<svg width="179" height="154" viewBox="0 0 179 154" fill="none" xmlns="http://www.w3.org/2000/svg">
<g clip-path="url(#clip0_219_3527)">
<g opacity="0.6">
<path d="M109.233 131.76C108.934 131.301 108.707 130.798 108.559 130.269C108.464 129.586 109.006 129.201 109.621 129.041C110.081 128.945 110.55 128.893 111.02 128.885C113.157 128.744 115.269 128.657 117.436 128.472C120.168 128.213 122.847 127.546 125.381 126.493C125.823 126.316 126.285 126.025 126.72 126.051C127.234 126.075 127.722 126.285 128.091 126.644C128.186 126.757 128.258 126.888 128.301 127.03C128.344 127.171 128.357 127.32 128.341 127.467C128.325 127.614 128.278 127.756 128.205 127.885C128.132 128.014 128.034 128.126 127.916 128.215C127.504 128.556 127.041 128.828 126.543 129.022C123.66 130.319 120.588 131.146 117.443 131.473C115.427 131.689 113.413 131.814 111.389 131.926C110.668 131.92 109.947 131.865 109.233 131.76V131.76Z" fill="#E16168"/>
<path d="M31.9766 78.3447C31.9096 78.5466 31.7979 78.7307 31.6497 78.8832C31.5016 79.0358 31.3208 79.1529 31.121 79.2257C30.9212 79.2986 30.7075 79.3253 30.4959 79.3039C30.2843 79.2825 30.0803 79.2135 29.8992 79.1021C29.6121 78.8914 29.3677 78.628 29.1792 78.3259C27.193 75.4143 25.6151 72.2444 24.4897 68.9044C24.2436 68.0474 24.1348 67.1569 24.1673 66.2659C24.1692 66.0987 24.2045 65.9335 24.2712 65.7801C24.3379 65.6267 24.4346 65.4882 24.5556 65.3727C24.6766 65.2573 24.8195 65.1672 24.9759 65.1078C25.1322 65.0484 25.2989 65.0209 25.4661 65.027C25.6319 65.0069 25.8001 65.0219 25.9598 65.071C26.1195 65.12 26.2671 65.202 26.3931 65.3117C26.5191 65.4214 26.6207 65.5563 26.6913 65.7076C26.7619 65.859 26.8 66.0236 26.803 66.1906C27.2273 69.5651 29.1161 72.2687 30.7237 75.127C31.1312 75.7844 31.4977 76.4664 31.821 77.169C31.9307 77.551 31.9831 77.9473 31.9766 78.3447V78.3447Z" fill="#E16168"/>
<path d="M79.8345 76.6607C79.8162 76.5609 79.8251 76.4906 79.7845 76.4546C79.0974 75.6444 78.6027 74.7611 79.2536 73.716C79.5567 73.2309 80.0052 72.8538 80.5353 72.6386C81.0653 72.4234 81.6497 72.381 82.2052 72.5174C83.6037 72.7255 84.8703 73.2427 85.3977 74.713C85.6329 75.3597 85.6751 76.0608 85.5192 76.7311C85.3634 77.4014 85.0162 78.012 84.5199 78.4887C83.3415 79.7573 81.8088 80.6423 80.121 81.0287C79.667 81.1893 79.1692 81.1732 78.7265 80.9836C78.2838 80.794 77.9286 80.4448 77.7315 80.0053C77.3302 79.1172 77.5906 78.2819 78.5399 77.5291C78.959 77.2254 79.3988 76.9647 79.8345 76.6607Z" fill="#E16168"/>
<path d="M94.8876 85.4298C94.191 83.6051 94.3298 82.6783 95.2788 82.1158C96.2278 81.5533 97.3537 81.8291 98.4924 82.9057C99.0216 83.3268 99.3921 83.9151 99.5433 84.5743C99.6944 85.2335 99.6173 85.9245 99.3245 86.5341C98.4696 88.6071 94.6917 90.7334 92.5098 90.3809C92.0907 90.3395 91.6961 90.1639 91.3849 89.8802C91.0737 89.5964 90.8624 89.2198 90.7824 88.8063C90.6882 88.3932 90.7411 87.9601 90.9319 87.5818C91.1226 87.2034 91.4394 86.9035 91.8275 86.7335C92.7841 86.2243 93.8369 85.8938 94.8876 85.4298Z" fill="#E16168"/>
<path d="M110.687 90.7324C111.057 90.9262 111.381 91.1976 111.636 91.528C111.892 91.8585 112.073 92.2402 112.168 92.6472C112.262 93.0542 112.268 93.4768 112.184 93.8861C112.101 94.2954 111.93 94.6819 111.683 95.019C110.705 96.4699 107.537 97.515 105.889 96.9304C105.541 96.8379 105.229 96.6426 104.993 96.3701C104.758 96.0976 104.61 95.7604 104.569 95.4026C104.506 95.0467 104.556 94.6797 104.712 94.3538C104.869 94.0278 105.124 93.7593 105.442 93.5863C105.855 93.3545 106.302 93.1865 106.765 93.0879C107.048 93.0492 107.311 92.9187 107.513 92.7166C107.714 92.5144 107.844 92.2517 107.882 91.9687C107.933 91.6692 108.058 91.3871 108.244 91.1475C108.431 90.908 108.674 90.7184 108.952 90.5959C109.23 90.4734 109.534 90.4217 109.836 90.4456C110.139 90.4694 110.431 90.5679 110.687 90.7324V90.7324Z" fill="#E16168"/>
<path d="M122.536 48.7877C118.308 46.5669 113.707 45.1432 108.964 44.5878C107.606 44.3991 106.266 44.12 104.914 43.8679C104.505 43.7971 104.107 43.6779 103.726 43.5129C103.403 43.4098 103.132 43.1876 102.966 42.8914C102.801 42.5953 102.755 42.2474 102.837 41.9183C102.87 41.7401 102.94 41.5709 103.044 41.4219C103.147 41.273 103.28 41.1475 103.436 41.0539C103.591 40.9603 103.764 40.9007 103.944 40.8789C104.124 40.8571 104.307 40.8737 104.48 40.9275C108.814 41.6929 113.296 42.0488 117.446 43.388C124.576 45.6944 131.242 49.053 136.36 54.8227C137.672 56.2805 139.004 57.7479 140.302 59.1993C140.755 59.6721 141.095 60.2404 141.3 60.8623C141.354 61.1088 141.348 61.3646 141.284 61.6088C141.22 61.8529 141.099 62.0784 140.931 62.2667C140.714 62.3905 140.472 62.4664 140.223 62.4894C139.973 62.5124 139.722 62.4818 139.485 62.3999C139.004 62.1638 138.582 61.8226 138.251 61.4015C137.276 60.3623 136.298 59.3131 135.373 58.223C131.886 54.122 127.491 50.8913 122.536 48.7877V48.7877Z" fill="#E16168"/>
<path d="M63.4041 105.061C62.9651 105.165 62.2627 105.283 61.5514 105.471C54.3926 107.621 47.6562 106.323 41.1221 103.052C38.3404 101.668 35.8622 99.7431 33.8322 97.3906C32.9346 96.4292 32.3617 95.21 32.1946 93.9053C31.9427 91.4994 33.3004 89.9824 35.7111 90.0308C36.6041 90.094 37.4924 90.2137 38.3703 90.389C41.2239 90.7909 44.0579 91.0095 46.8745 89.506L45.8606 88.5141C42.6483 85.4977 39.2816 82.6307 36.2534 79.4379C32.7392 75.881 30.1941 71.4838 28.8603 66.6649C27.9198 63.3153 27.9257 59.7706 28.8775 56.4241C29.3029 55.0535 30.0313 53.7962 31.0086 52.7453C32.9706 50.5594 35.4686 48.9228 38.2562 47.997C42.32 46.5686 46.5835 45.7888 50.8898 45.6863C59.9019 45.4694 68.9174 45.4694 77.8992 45.4532C85.8882 45.5382 93.8627 46.1516 101.771 47.2895C107.341 48.0345 112.76 49.643 117.835 52.0572C122.533 54.2867 126.61 57.6406 129.703 61.8217C131.854 64.6385 133.311 67.9222 133.958 71.407C134.448 74.1262 134.738 76.8319 135.085 79.5567C135.611 83.6338 135.996 87.7266 136.609 91.7957C137.707 98.4632 137.331 105.291 135.505 111.797C134.283 116.022 131.611 119.681 127.959 122.131C121.81 126.454 114.923 127.676 107.524 126.862C99.0291 125.867 90.8103 123.224 83.3272 119.083C79.1323 116.82 74.8164 114.722 71.0769 111.718C68.5106 109.649 66.0613 107.388 63.4041 105.061ZM50.7949 86.6865C51.1513 86.4271 51.372 86.2434 51.6233 86.0992C52.6254 85.5125 53.4034 85.5301 54.0906 86.1333C54.4502 86.4614 54.6794 86.9082 54.7362 87.3917C54.7929 87.8752 54.6734 88.3629 54.3995 88.7653C53.9996 89.4939 53.4758 90.1472 52.8514 90.6959C48.9823 93.8049 44.6673 95.5325 39.6156 95.0188C39.0572 94.9576 38.4964 94.9532 37.5772 94.8677C39.0744 96.456 40.3462 97.7208 41.9731 98.4359C44.4577 99.6071 47.0171 100.612 49.6347 101.445C51.4684 101.954 53.3769 102.139 55.2743 101.993C57.6434 101.739 59.9906 101.311 62.2968 100.713C63.2079 100.429 64.184 100.432 65.0934 100.721C66.0028 101.009 66.8019 101.57 67.3826 102.327C69.9264 105.261 72.8915 107.801 76.181 109.864C80.8785 112.814 85.7714 115.44 90.8258 117.725C96.6433 120.376 102.872 122.012 109.241 122.562C114.379 123.136 119.566 122.043 124.035 119.443C125.94 118.38 127.601 116.928 128.91 115.182C130.219 113.436 131.147 111.435 131.634 109.308C132.983 103.607 133.163 97.6921 132.161 91.9199C131.593 88.2773 131.234 84.5947 130.812 80.9398C130.509 78.3111 130.295 75.7244 129.859 73.1311C128.699 66.257 124.598 61.3322 118.91 57.7144C115.057 55.3838 110.848 53.7009 106.45 52.7325C99.8188 51.1124 93.026 50.6731 86.2598 50.2301C75.7183 49.5635 65.1756 49.6579 54.6382 49.879C50.2802 49.9535 45.9447 50.5208 41.7143 51.5701C39.5035 52.0788 37.4286 53.0591 35.6318 54.4441C34.7348 55.1387 34.0028 56.0234 33.4885 57.0347C32.9742 58.0459 32.6904 59.1586 32.6575 60.2926C32.4844 63.8318 33.3576 67.3436 35.168 70.3896C36.7501 73.2755 38.7516 75.9106 41.107 78.2091C43.1723 80.1834 45.2782 82.1192 47.4246 84.0165C48.4841 84.9476 49.6422 85.7769 50.7949 86.6865Z" fill="#E16168"/>
</g>
<path d="M117.306 135.637C117.006 135.178 116.779 134.675 116.631 134.146C116.537 133.463 117.078 133.078 117.693 132.918C118.154 132.822 118.622 132.769 119.092 132.762C121.23 132.621 123.341 132.534 125.508 132.349C128.241 132.09 130.919 131.423 133.454 130.37C133.895 130.193 134.358 129.902 134.792 129.928C135.306 129.951 135.794 130.162 136.163 130.521C136.259 130.634 136.33 130.765 136.373 130.907C136.416 131.048 136.43 131.197 136.413 131.344C136.397 131.491 136.351 131.633 136.278 131.762C136.205 131.891 136.106 132.003 135.988 132.092C135.576 132.432 135.113 132.705 134.616 132.898C131.732 134.196 128.66 135.023 125.516 135.35C123.5 135.565 121.486 135.691 119.461 135.803C118.74 135.797 118.02 135.742 117.306 135.637V135.637Z" fill="#E16168"/>
<path d="M40.0491 82.2217C39.9821 82.4235 39.8704 82.6076 39.7222 82.7602C39.5741 82.9128 39.3933 83.0298 39.1935 83.1027C38.9937 83.1755 38.78 83.2023 38.5684 83.1808C38.3569 83.1594 38.1528 83.0905 37.9717 82.9791C37.6846 82.7684 37.4403 82.5049 37.2517 82.2028C35.2655 79.2913 33.6877 76.1213 32.5622 72.7813C32.3161 71.9244 32.2073 71.0339 32.2399 70.1429C32.2417 69.9756 32.277 69.8104 32.3437 69.657C32.4104 69.5036 32.5071 69.3651 32.6281 69.2497C32.7491 69.1342 32.892 69.0442 33.0484 68.9848C33.2048 68.9254 33.3714 68.8979 33.5386 68.9039C33.7044 68.8839 33.8726 68.8989 34.0323 68.9479C34.192 68.997 34.3396 69.079 34.4656 69.1887C34.5916 69.2983 34.6932 69.4332 34.7638 69.5846C34.8344 69.736 34.8725 69.9005 34.8755 70.0675C35.2998 73.442 37.1886 76.1456 38.7963 79.0039C39.2037 79.6613 39.5702 80.3433 39.8935 81.0459C40.0032 81.428 40.0556 81.8242 40.0491 82.2217V82.2217Z" fill="#E16168"/>
<path d="M87.907 80.5377C87.8888 80.4378 87.8976 80.3676 87.857 80.3315C87.1699 79.5213 86.6752 78.638 87.3261 77.5929C87.6292 77.1078 88.0778 76.7308 88.6078 76.5156C89.1378 76.3004 89.7222 76.2579 90.2777 76.3944C91.6762 76.6024 92.9428 77.1197 93.4702 78.5899C93.7054 79.2367 93.7476 79.9378 93.5918 80.6081C93.4359 81.2784 93.0887 81.889 92.5924 82.3656C91.414 83.6342 89.8813 84.5192 88.1935 84.9057C87.7395 85.0662 87.2417 85.0501 86.799 84.8605C86.3563 84.6709 86.0011 84.3217 85.804 83.8823C85.4027 82.9941 85.6631 82.1589 86.6124 81.4061C87.0315 81.1023 87.4713 80.8417 87.907 80.5377Z" fill="#E16168"/>
<path d="M102.96 89.3067C102.263 87.482 102.402 86.5552 103.351 85.9927C104.3 85.4302 105.426 85.706 106.565 86.7827C107.094 87.2038 107.465 87.7921 107.616 88.4513C107.767 89.1104 107.69 89.8014 107.397 90.411C106.542 92.4841 102.764 94.6104 100.582 94.2579C100.163 94.2165 99.7686 94.0408 99.4574 93.7571C99.1462 93.4734 98.9349 93.0967 98.8549 92.6832C98.7608 92.2701 98.8136 91.8371 99.0044 91.4587C99.1952 91.0804 99.5119 90.7804 99.9 90.6105C100.857 90.1013 101.909 89.7707 102.96 89.3067Z" fill="#E16168"/>
<path d="M118.759 94.6094C119.129 94.8031 119.453 95.0745 119.709 95.405C119.965 95.7354 120.146 96.1172 120.24 96.5242C120.335 96.9311 120.341 97.3537 120.257 97.7631C120.173 98.1724 120.002 98.5588 119.755 98.896C118.777 100.347 115.609 101.392 113.961 100.807C113.613 100.715 113.301 100.52 113.066 100.247C112.83 99.9745 112.683 99.6374 112.642 99.2796C112.578 98.9236 112.628 98.5567 112.785 98.2307C112.941 97.9048 113.197 97.6363 113.514 97.4633C113.928 97.2314 114.374 97.0634 114.838 96.9649C115.121 96.9261 115.383 96.7957 115.585 96.5935C115.787 96.3914 115.917 96.1286 115.955 95.8456C116.006 95.5462 116.13 95.2641 116.317 95.0245C116.503 94.7849 116.746 94.5954 117.024 94.4729C117.302 94.3504 117.606 94.2987 117.909 94.3225C118.212 94.3463 118.504 94.4449 118.759 94.6094V94.6094Z" fill="#E16168"/>
<path d="M130.608 52.6646C126.38 50.4438 121.78 49.0201 117.036 48.4647C115.678 48.2761 114.339 47.997 112.986 47.7448C112.578 47.674 112.179 47.5549 111.799 47.3899C111.476 47.2867 111.204 47.0645 111.039 46.7684C110.874 46.4722 110.827 46.1243 110.909 45.7952C110.942 45.617 111.013 45.4479 111.116 45.2989C111.219 45.1499 111.353 45.0245 111.508 44.9309C111.663 44.8373 111.837 44.7776 112.017 44.7558C112.197 44.734 112.379 44.7506 112.552 44.8044C116.887 45.5699 121.369 45.9258 125.519 47.2649C132.648 49.5714 139.314 52.9299 144.433 58.6996C145.744 60.1574 147.076 61.6249 148.374 63.0762C148.827 63.549 149.168 64.1173 149.372 64.7392C149.426 64.9858 149.421 65.2416 149.357 65.4857C149.293 65.7298 149.172 65.9553 149.004 66.1437C148.786 66.2675 148.545 66.3434 148.295 66.3663C148.046 66.3893 147.794 66.3588 147.558 66.2768C147.076 66.0408 146.655 65.6996 146.323 65.2785C145.349 64.2392 144.371 63.19 143.446 62.0999C139.959 57.999 135.563 54.7682 130.608 52.6646V52.6646Z" fill="#E16168"/>
<path d="M71.4766 108.938C71.0376 109.042 70.3352 109.16 69.6239 109.348C62.4651 111.498 55.7287 110.2 49.1946 106.929C46.4129 105.545 43.9347 103.62 41.9047 101.268C41.0071 100.306 40.4342 99.0869 40.2671 97.7823C40.0152 95.3763 41.3729 93.8594 43.7836 93.9078C44.6767 93.971 45.5649 94.0906 46.4429 94.266C49.2964 94.6678 52.1304 94.8864 54.947 93.3829L53.9331 92.391C50.7209 89.3747 47.3541 86.5077 44.3259 83.3149C40.8117 79.758 38.2666 75.3607 36.9328 70.5418C35.9923 67.1922 35.9982 63.6475 36.95 60.3011C37.3755 58.9305 38.1038 57.6732 39.0811 56.6222C41.0431 54.4364 43.5411 52.7998 46.3287 51.8739C50.3926 50.4455 54.656 49.6658 58.9623 49.5633C67.9744 49.3464 76.9899 49.3463 85.9717 49.3302C93.9607 49.4151 101.935 50.0286 109.843 51.1665C115.413 51.9114 120.833 53.52 125.907 55.9341C130.606 58.1637 134.682 61.5175 137.775 65.6986C139.926 68.5154 141.384 71.7991 142.03 75.2839C142.521 78.0031 142.811 80.7088 143.158 83.4336C143.683 87.5108 144.069 91.6035 144.681 95.6726C145.78 102.34 145.403 109.168 143.578 115.674C142.356 119.899 139.684 123.558 136.032 126.008C129.882 130.331 122.996 131.552 115.596 130.739C107.102 129.744 98.8828 127.101 91.3998 122.96C87.2048 120.697 82.8889 118.599 79.1494 115.595C76.5831 113.526 74.1338 111.265 71.4766 108.938ZM58.8674 90.5634C59.2238 90.3041 59.4445 90.1203 59.6959 89.9761C60.6979 89.3894 61.4759 89.4071 62.1631 90.0103C62.5227 90.3384 62.7519 90.7852 62.8087 91.2686C62.8654 91.7521 62.7459 92.2398 62.472 92.6423C62.0721 93.3709 61.5483 94.0242 60.924 94.5728C57.0548 97.6819 52.7398 99.4095 47.6881 98.8958C47.1298 98.8346 46.5689 98.8302 45.6497 98.7447C47.1469 100.333 48.4188 101.598 50.0457 102.313C52.5302 103.484 55.0897 104.489 57.7072 105.322C59.5409 105.831 61.4494 106.016 63.3468 105.87C65.7159 105.616 68.0631 105.188 70.3693 104.59C71.2804 104.306 72.2565 104.309 73.1659 104.598C74.0753 104.886 74.8744 105.447 75.4552 106.204C77.9989 109.138 80.964 111.678 84.2535 113.741C88.951 116.691 93.8439 119.317 98.8983 121.602C104.716 124.253 110.944 125.889 117.313 126.439C122.452 127.013 127.638 125.92 132.107 123.32C134.012 122.256 135.673 120.805 136.982 119.059C138.291 117.313 139.219 115.312 139.706 113.185C141.056 107.484 141.235 101.569 140.234 95.7968C139.665 92.1543 139.306 88.4717 138.884 84.8168C138.582 82.1881 138.367 79.6013 137.932 77.0081C136.771 70.1339 132.671 65.2091 126.982 61.5914C123.129 59.2608 118.92 57.5778 114.523 56.6094C107.891 54.9893 101.098 54.5501 94.3323 54.107C83.7908 53.4404 73.2481 53.5348 62.7107 53.756C58.3528 53.8304 54.0172 54.3977 49.7868 55.4471C47.576 55.9557 45.5011 56.9361 43.7043 58.321C42.8073 59.0156 42.0753 59.9004 41.561 60.9116C41.0467 61.9229 40.7629 63.0355 40.73 64.1695C40.5569 67.7088 41.4301 71.2206 43.2406 74.2666C44.8227 77.1524 46.8241 79.7876 49.1796 82.086C51.2448 84.0603 53.3507 85.9961 55.4971 87.8934C56.5566 88.8245 57.7147 89.6539 58.8674 90.5634Z" fill="#E16168"/>
</g>
<defs>
<clipPath id="clip0_219_3527">
<rect width="150" height="97.7612" fill="white" transform="translate(43.2091 0.487793) rotate(25.6529)"/>
</clipPath>
</defs>
</svg>
