<svg width="150" height="88" viewBox="0 0 150 88" fill="none" xmlns="http://www.w3.org/2000/svg">
<g opacity="0.6">
<path d="M99.8859 9.17182C103.882 8.91571 107.894 9.15544 111.831 9.88553C112.448 10.0026 113.044 10.2062 113.604 10.4904C113.74 10.5447 113.863 10.6257 113.968 10.7285C114.072 10.8313 114.155 10.9539 114.211 11.0891C114.267 11.2243 114.296 11.3693 114.296 11.5158C114.295 11.6622 114.266 11.8071 114.208 11.942C114.109 12.2156 113.912 12.4426 113.655 12.5789C113.398 12.7153 113.099 12.7513 112.817 12.6799C111.819 12.5166 110.821 12.317 109.823 12.1416C106.525 11.647 103.19 11.4446 99.8557 11.5367C98.0714 11.5367 96.2811 11.4944 94.4968 11.4521C93.6742 11.4521 93.1903 11.0589 93.148 10.4359C93.1057 9.81295 93.5351 9.32908 94.3577 9.22626C95.271 9.13553 96.1722 9.17787 97.1097 9.17182C98.1561 9.16577 99.2206 9.17182 99.8859 9.17182Z" fill="#F7921E"/>
<path d="M6.06548 53.968C6.28927 46.1534 9.17436 39.4518 14.9143 34.1595C18.0352 31.2865 21.5252 28.8127 24.876 26.1938C25.5379 25.7118 26.2521 25.306 27.005 24.9841C27.1382 24.8969 27.2882 24.8386 27.4453 24.8131C27.6024 24.7875 27.7631 24.7952 27.917 24.8357C28.0709 24.8762 28.2147 24.9485 28.3389 25.0481C28.4631 25.1476 28.565 25.2721 28.6381 25.4135C28.7681 25.6774 28.7943 25.9806 28.7114 26.2629C28.6285 26.5452 28.4426 26.786 28.1905 26.9377C28.003 27.0889 27.7913 27.2159 27.5857 27.3671C24.2167 29.9559 20.7207 32.4054 17.503 35.1756C11.1764 40.6494 8.22476 47.7139 8.40621 56.0909C8.45188 56.6782 8.53471 57.2621 8.6542 57.8389C8.79331 58.7764 8.53323 59.3087 7.87396 59.4478C7.21468 59.5869 6.66427 59.1938 6.45258 58.3167C6.27104 57.418 6.1438 56.5091 6.07153 55.595C6.02315 55.0385 6.06548 54.5002 6.06548 53.968Z" fill="#F7921E"/>
<path d="M128.253 62.2983C129.251 62.2983 129.796 63.2116 129.275 63.9314C128.908 64.4334 128.433 64.8468 127.884 65.1411C124.739 66.8346 121.618 68.5766 118.086 69.375C116.58 69.7197 115.062 70.1008 113.616 70.5846C112.535 70.9884 111.475 71.4467 110.441 71.9576C110.132 72.0967 109.836 72.3568 109.527 72.3447C109.117 72.3534 108.718 72.204 108.415 71.9274C108.317 71.7407 108.266 71.5332 108.266 71.3225C108.266 71.1119 108.317 70.9044 108.415 70.7177C108.72 70.2271 109.134 69.8132 109.624 69.508C110.325 69.0816 111.071 68.7367 111.85 68.4798C113.167 68.0073 114.513 67.6174 115.878 67.3125C119.27 66.5445 122.549 65.3431 125.634 63.7379C126.281 63.4233 126.844 62.9879 127.497 62.625C127.763 62.5221 128.066 62.3891 128.253 62.2983Z" fill="#F7921E"/>
<path d="M71.511 50.1192C70.7089 50.1192 69.9397 49.8005 69.3726 49.2334C68.8054 48.6662 68.4868 47.897 68.4868 47.095C68.5072 46.2685 68.8478 45.4823 69.4369 44.9022C70.026 44.3222 70.8174 43.9937 71.6441 43.9861C72.4202 44.0396 73.1473 44.3849 73.6792 44.9527C74.2111 45.5205 74.5083 46.2686 74.511 47.0466C74.5249 47.4477 74.4574 47.8475 74.3125 48.2218C74.1676 48.596 73.9483 48.9371 73.6679 49.2243C73.3875 49.5114 73.0518 49.7388 72.6811 49.8926C72.3104 50.0464 71.9123 50.1235 71.511 50.1192Z" fill="#F7921E"/>
<path d="M53.2268 53.5908C52.4506 53.612 51.6974 53.3259 51.131 52.7947C50.5647 52.2635 50.231 51.5301 50.2026 50.7541C50.1826 50.0244 50.4484 49.3157 50.9432 48.7791C51.438 48.2425 52.1229 47.9202 52.8518 47.8811C54.5151 47.9295 56.2268 49.4355 56.257 50.9053C56.2873 52.3751 54.878 53.5847 53.2268 53.5908Z" fill="#F7921E"/>
<path d="M98.124 43.6898C98.134 43.9904 98.0825 44.2898 97.9726 44.5698C97.8626 44.8498 97.6967 45.1043 97.4849 45.3178C97.273 45.5314 97.0198 45.6994 96.7407 45.8115C96.4617 45.9236 96.1626 45.9776 95.8619 45.97C95.0931 45.8991 94.375 45.555 93.838 45.0002C93.3009 44.4454 92.9804 43.7166 92.9345 42.9458C92.9043 41.6152 93.8841 40.466 95.0273 40.5265C95.8384 40.5908 96.5989 40.9466 97.1681 41.5281C97.7374 42.1096 98.0769 42.8774 98.124 43.6898V43.6898Z" fill="#F7921E"/>
<path d="M92.9281 71.6416C93.0975 72.5488 93.2789 73.2928 93.3636 74.0609C93.5805 75.4887 93.7018 76.9295 93.7265 78.3734C93.666 80.3936 92.668 81.4339 90.7023 81.9057C88.5019 82.3887 86.1999 81.9891 84.291 80.7928C80.0995 78.4037 77.0329 75.0589 75.8233 70.2444C75.7809 70.063 75.7144 69.8876 75.6237 69.6396C74.535 69.9662 73.4765 70.2444 72.4422 70.5952C67.6035 72.2222 62.5531 72.8452 57.5088 73.3775C51.5983 74.0717 45.6336 74.1771 39.7023 73.692C33.5208 73.1174 27.4604 71.9924 21.7325 69.4581C15.6116 66.7424 12.2003 61.7283 10.2406 55.6436C9.03093 51.9601 9.87771 48.3311 11.7527 45.0166C14.9765 39.313 19.0108 34.3472 24.6781 30.7968C31.6821 26.3876 39.2366 23.2666 47.0571 20.6537C57.2789 17.2363 67.785 15.2101 78.4543 13.8976C86.5113 12.8431 94.6443 12.485 102.763 12.8271C109.198 13.1537 115.567 14.1275 121.646 16.3533C127.58 18.5626 132.738 22.4608 136.483 27.567C138.081 29.7789 139.001 32.4078 139.132 35.1335C139.495 39.7545 139.259 44.321 137.481 48.6698C136.124 52.0546 133.869 55.0052 130.96 57.2041C127.543 59.7541 123.771 61.7917 119.765 63.2525C114.291 65.2968 108.763 67.19 103.271 69.1799C100.344 70.1768 97.3369 70.9214 94.283 71.4057C93.8777 71.4238 93.5027 71.5146 92.9281 71.6416ZM94.7426 67.7162C96.8535 67.1718 98.8616 66.8029 100.791 66.1436C106.839 64.063 112.827 61.9097 118.797 59.7021C122.395 58.4022 125.775 56.567 128.825 54.2585C131.797 52.0357 133.929 48.872 134.874 45.2827C135.73 41.7999 135.935 38.1888 135.479 34.6315C135.298 32.6898 134.561 30.8415 133.356 29.3089C129.902 25.0085 125.729 21.5912 120.503 19.7222C113.704 17.3029 106.591 16.3775 99.4301 16.2505C92.8527 16.1718 86.2773 16.5355 79.7487 17.3392C68.7346 18.6275 57.9079 20.7263 47.3777 24.3069C40.035 26.8049 32.9342 29.7505 26.3777 33.9843C21.285 37.2444 17.7164 41.7747 14.8313 46.9218C14.5563 47.4317 14.3197 47.9614 14.1237 48.5065C13.1541 50.8644 13.1541 53.5095 14.1237 55.8674C16.3011 61.1355 19.7124 65.1698 25.3495 67.0267C30.8066 68.8532 36.4887 69.9216 42.2366 70.2021C49.3432 70.5077 56.4624 70.0903 63.4846 68.9561C67.8152 68.2666 72.17 67.5892 76.1862 65.5932C77.2507 65.0609 78.2063 65.5206 78.6055 66.6517C78.6973 66.9252 78.7502 67.2102 78.7628 67.4984C79.0471 71.0791 81.0128 73.698 83.6015 75.9662C84.7117 76.9822 86.0249 77.7512 87.4543 78.2222C88.3313 78.4884 89.2265 78.7363 90.2124 78.2222C90.2547 77.6625 90.2547 77.1005 90.2124 76.5408C90.0672 75.4884 89.8132 74.4541 89.6378 73.4077C89.3265 71.7872 89.3802 70.1177 89.795 68.5206C89.9309 67.9283 90.2019 67.3754 90.587 66.9054C90.9721 66.4353 91.4608 66.0607 92.0148 65.8109C92.2469 65.6764 92.5068 65.5972 92.7744 65.5792C93.0421 65.5613 93.3102 65.6052 93.5582 65.7075C93.8061 65.8099 94.0272 65.9679 94.2043 66.1694C94.3813 66.3708 94.5097 66.6104 94.5793 66.8694C94.5854 67.0448 94.6277 67.2807 94.7487 67.7162H94.7426Z" fill="#F7921E"/>
</g>
<path d="M103.515 9.7768C107.511 9.52069 111.523 9.76042 115.46 10.4905C116.077 10.6076 116.673 10.8112 117.233 11.0953C117.369 11.1497 117.492 11.2307 117.597 11.3335C117.701 11.4363 117.784 11.5589 117.84 11.6941C117.896 11.8293 117.925 11.9743 117.925 12.1208C117.924 12.2672 117.895 12.4121 117.838 12.547C117.738 12.8206 117.541 13.0476 117.284 13.1839C117.027 13.3203 116.728 13.3563 116.446 13.2849C115.448 13.1216 114.45 12.922 113.452 12.7466C110.154 12.252 106.819 12.0496 103.485 12.1417C101.7 12.1417 99.9101 12.0994 98.1258 12.057C97.3032 12.057 96.8194 11.6639 96.777 11.0409C96.7347 10.4179 97.1641 9.93406 97.9867 9.83124C98.9 9.74051 99.8012 9.78285 100.739 9.7768C101.785 9.77075 102.85 9.7768 103.515 9.7768Z" fill="#F7921E"/>
<path d="M9.69451 54.5729C9.9183 46.7584 12.8034 40.0568 18.5433 34.7645C21.6643 31.8915 25.1542 29.4177 28.505 26.7987C29.1669 26.3167 29.8811 25.9109 30.634 25.5891C30.7672 25.5019 30.9172 25.4436 31.0743 25.4181C31.2314 25.3925 31.3921 25.4002 31.546 25.4407C31.7 25.4812 31.8437 25.5535 31.9679 25.6531C32.0921 25.7526 32.194 25.8771 32.2671 26.0185C32.3972 26.2824 32.4234 26.5855 32.3405 26.8678C32.2576 27.1502 32.0716 27.391 31.8195 27.5427C31.632 27.6939 31.4203 27.8209 31.2147 27.9721C27.8457 30.5608 24.3498 33.0104 21.132 35.7806C14.8054 41.2544 11.8538 48.3189 12.0352 56.6959C12.0809 57.2832 12.1637 57.8671 12.2832 58.4439C12.4223 59.3814 12.1623 59.9137 11.503 60.0528C10.8437 60.1919 10.2933 59.7987 10.0816 58.9217C9.90007 58.0229 9.77283 57.114 9.70056 56.1999C9.65218 55.6435 9.69451 55.1052 9.69451 54.5729Z" fill="#F7921E"/>
<path d="M131.882 62.9033C132.88 62.9033 133.425 63.8166 132.904 64.5364C132.537 65.0384 132.062 65.4517 131.513 65.7461C128.368 67.4396 125.247 69.1815 121.715 69.9799C120.209 70.3247 118.691 70.7057 117.245 71.1896C116.164 71.5934 115.104 72.0517 114.07 72.5626C113.761 72.7017 113.465 72.9618 113.156 72.9497C112.746 72.9583 112.347 72.809 112.044 72.5324C111.946 72.3457 111.895 72.1381 111.895 71.9275C111.895 71.7169 111.946 71.5094 112.044 71.3227C112.349 70.832 112.763 70.4181 113.253 70.113C113.954 69.6866 114.7 69.3416 115.479 69.0848C116.796 68.6123 118.142 68.2224 119.507 67.9174C122.899 67.1495 126.178 65.9481 129.263 64.3428C129.911 64.0283 130.473 63.5928 131.126 63.2299C131.392 63.1271 131.695 62.994 131.882 62.9033Z" fill="#F7921E"/>
<path d="M75.14 50.7241C74.338 50.7241 73.5688 50.4055 73.0016 49.8384C72.4345 49.2712 72.1158 48.502 72.1158 47.6999C72.1362 46.8735 72.4769 46.0872 73.0659 45.5072C73.655 44.9271 74.4464 44.5987 75.2731 44.5911C76.0492 44.6446 76.7764 44.9899 77.3082 45.5577C77.8401 46.1255 78.1373 46.8736 78.14 47.6515C78.154 48.0527 78.0864 48.4524 77.9415 48.8267C77.7966 49.201 77.5773 49.5421 77.297 49.8292C77.0166 50.1164 76.6809 50.3438 76.3101 50.4976C75.9394 50.6514 75.5414 50.7285 75.14 50.7241Z" fill="#F7921E"/>
<path d="M56.8558 54.1958C56.0796 54.217 55.3264 53.9309 54.76 53.3997C54.1937 52.8684 53.86 52.1351 53.8316 51.3591C53.8116 50.6294 54.0774 49.9207 54.5722 49.3841C55.0671 48.8474 55.7519 48.5252 56.4808 48.4861C58.1441 48.5345 59.8558 50.0405 59.886 51.5103C59.9163 52.98 58.507 54.1897 56.8558 54.1958Z" fill="#F7921E"/>
<path d="M101.753 44.2947C101.763 44.5953 101.711 44.8948 101.602 45.1748C101.492 45.4547 101.326 45.7093 101.114 45.9228C100.902 46.1364 100.649 46.3043 100.37 46.4165C100.091 46.5286 99.7916 46.5826 99.491 46.575C98.7221 46.5041 98.004 46.16 97.467 45.6052C96.93 45.0504 96.6094 44.3216 96.5635 43.5508C96.5333 42.2201 97.5131 41.071 98.6563 41.1314C99.4675 41.1958 100.228 41.5516 100.797 42.1331C101.366 42.7145 101.706 43.4824 101.753 44.2947V44.2947Z" fill="#F7921E"/>
<path d="M96.5571 72.2466C96.7265 73.1538 96.9079 73.8978 96.9926 74.6659C97.2095 76.0937 97.3308 77.5344 97.3555 78.9784C97.295 80.9986 96.2971 82.0389 94.3313 82.5107C92.131 82.9937 89.8289 82.5941 87.92 81.3978C83.7285 79.0087 80.662 75.6639 79.4523 70.8494C79.41 70.6679 79.3434 70.4925 79.2527 70.2445C78.164 70.5712 77.1055 70.8494 76.0713 71.2002C71.2325 72.8272 66.1821 73.4502 61.1378 73.9824C55.2274 74.6767 49.2626 74.7821 43.3313 74.297C37.1499 73.7224 31.0894 72.5974 25.3616 70.0631C19.2406 67.3474 15.8293 62.3333 13.8696 56.2486C12.66 52.5651 13.5067 48.9361 15.3817 45.6216C18.6055 39.9179 22.6398 34.9522 28.3071 31.4018C35.3112 26.9925 42.8656 23.8716 50.6862 21.2587C60.9079 17.8413 71.414 15.8151 82.0834 14.5026C90.1404 13.4481 98.2733 13.0899 106.392 13.4321C112.827 13.7587 119.196 14.7325 125.275 16.9583C131.209 19.1676 136.367 23.0658 140.112 28.172C141.71 30.3838 142.63 33.0128 142.761 35.7385C143.124 40.3595 142.888 44.926 141.11 49.2748C139.753 52.6595 137.498 55.6102 134.589 57.8091C131.172 60.359 127.4 62.3966 123.394 63.8575C117.92 65.9018 112.392 67.795 106.9 69.7849C103.973 70.7818 100.966 71.5264 97.912 72.0107C97.5067 72.0288 97.1317 72.1195 96.5571 72.2466ZM98.3717 68.3212C100.483 67.7768 102.491 67.4079 104.42 66.7486C110.468 64.6679 116.456 62.5147 122.426 60.307C126.024 59.0072 129.404 57.172 132.454 54.8635C135.427 52.6407 137.558 49.477 138.503 45.8877C139.359 42.4049 139.564 38.7938 139.108 35.2365C138.928 33.2948 138.19 31.4465 136.985 29.9139C133.531 25.6135 129.358 22.1962 124.132 20.3272C117.333 17.9079 110.22 16.9825 103.059 16.8554C96.4817 16.7767 89.9064 17.1405 83.3777 17.9441C72.3636 19.2325 61.537 21.3312 51.0067 24.9119C43.664 27.4099 36.5632 30.3554 30.0067 34.5893C24.914 37.8494 21.3454 42.3796 18.4604 47.5268C18.1853 48.0366 17.9487 48.5663 17.7527 49.1115C16.7831 51.4693 16.7831 54.1145 17.7527 56.4724C19.9301 61.7405 23.3414 65.7748 28.9785 67.6316C34.4356 69.4582 40.1177 70.5266 45.8656 70.807C52.9722 71.1127 60.0914 70.6953 67.1136 69.5611C71.4442 68.8716 75.7991 68.1941 79.8152 66.1982C80.8797 65.6659 81.8354 66.1256 82.2346 67.2566C82.3263 67.5302 82.3793 67.8152 82.3918 68.1034C82.6761 71.6841 84.6418 74.303 87.2305 76.5712C88.3408 77.5872 89.654 78.3562 91.0834 78.8272C91.9604 79.0933 92.8555 79.3413 93.8414 78.8272C93.8837 78.2675 93.8837 77.7054 93.8414 77.1458C93.6963 76.0933 93.4422 75.0591 93.2668 74.0127C92.9555 72.3922 93.0092 70.7227 93.4241 69.1256C93.5599 68.5333 93.8309 67.9804 94.216 67.5103C94.6011 67.0402 95.0898 66.6657 95.6438 66.4159C95.8759 66.2814 96.1358 66.2021 96.4035 66.1842C96.6711 66.1663 96.9393 66.2102 97.1872 66.3125C97.4352 66.4148 97.6562 66.5729 97.8333 66.7743C98.0104 66.9758 98.1387 67.2154 98.2084 67.4744C98.2144 67.6498 98.2567 67.8857 98.3777 68.3212H98.3717Z" fill="#F7921E"/>
</svg>
