<svg width="150" height="150" viewBox="0 0 150 150" fill="none" xmlns="http://www.w3.org/2000/svg">
<g clip-path="url(#clip0_219_3552)">
<path d="M30.9738 86.3537C31.3463 85.6802 29.7898 84.0999 27.515 82.8419C23.2304 80.4725 21.2745 75.9791 23.8882 74.51C24.7116 74.0474 27.2812 74.7173 29.5987 75.9989L33.8124 78.3291L41.9557 63.2441C46.4345 54.9473 51.8875 44.1111 54.0732 39.1634L58.0472 30.1677L52.2751 26.1477C45.329 21.31 44.0696 19.2989 45.9065 15.9772C47.0343 13.938 47.739 13.9042 49.6023 15.8002C50.8687 17.0886 53.751 19.5726 56.0076 21.3201C59.6903 24.1721 60.317 24.2235 62.1263 21.8221C63.4575 20.0553 65.1511 19.5313 67.1136 20.2791C69.5338 21.2013 69.7624 21.9953 68.3452 24.558C66.6155 27.6858 66.6662 27.7384 76.8291 33.3585C82.4523 36.4682 91.4368 40.9744 96.7948 43.3724C105.412 47.2293 106.744 47.4581 108.332 45.3553C110.95 41.8899 116.676 45.2485 115.118 49.3358C114.342 51.3717 114.823 52.7782 116.646 53.8027C118.108 54.625 119.832 56.2978 120.475 57.5197C121.515 59.4944 121.367 59.7624 119.142 59.9313C117.765 60.0358 115.309 59.3973 113.685 58.5125L110.731 56.904L100.584 77.2595C89.0127 100.474 87.9602 103.476 90.8366 105.067C93.2995 106.429 94.5731 110.142 93.3414 112.369C92.8573 113.244 91.3096 113.324 89.9021 112.546C88.4947 111.767 85.7502 111.776 83.8033 112.565C80.4307 113.931 80.2182 113.842 79.3048 110.667C78.5335 107.988 76.3664 106.282 68.2281 101.948C51.0009 92.7733 38.4788 87.5626 35.9943 88.5346C33.2985 89.5893 29.9812 88.1481 30.9737 86.3535L30.9738 86.3537ZM75.1408 98.604L82.0785 101.55L85.548 93.6107C87.4562 89.2443 92.5657 78.4014 96.9025 69.5153L104.787 53.3588L85.1761 43.6413C74.3897 38.2967 65.1389 33.9289 64.6186 33.935C63.6253 33.9467 53.2915 53.6856 45.15 71.1216L40.3602 81.3798L54.2817 88.5189C61.9385 92.4456 71.3251 96.9837 75.1409 98.6038L75.1408 98.604Z" fill="#9BC542" fill-opacity="0.6"/>
</g>
<g clip-path="url(#clip1_219_3552)">
<path d="M41.5932 107.593C41.9657 106.919 40.4092 105.339 38.1344 104.081C33.8498 101.712 31.8939 97.2182 34.5076 95.749C35.3309 95.2864 37.9006 95.9563 40.2181 97.2379L44.4318 99.5682L52.5751 84.4831C57.0539 76.1863 62.5069 65.3501 64.6926 60.4024L68.6666 51.4067L62.8945 47.3867C55.9483 42.549 54.689 40.5379 56.5259 37.2162C57.6536 35.177 58.3583 35.1432 60.2217 37.0392C61.488 38.3276 64.3704 40.8116 66.627 42.5592C70.3097 45.4111 70.9364 45.4625 72.7456 43.0611C74.0768 41.2943 75.7705 40.7703 77.733 41.5181C80.1532 42.4403 80.3818 43.2344 78.9646 45.797C77.2349 48.9248 77.2856 48.9774 87.4485 54.5976C93.0717 57.7072 102.056 62.2134 107.414 64.6114C116.032 68.4683 117.363 68.6971 118.952 66.5943C121.569 63.1289 127.295 66.4875 125.738 70.5748C124.962 72.6107 125.443 74.0173 127.265 75.0418C128.728 75.8641 130.451 77.5368 131.095 78.7587C132.135 80.7334 131.987 81.0014 129.761 81.1703C128.384 81.2748 125.928 80.6364 124.304 79.7515L121.35 78.143L111.204 98.4986C99.6321 121.713 98.5796 124.715 101.456 126.306C103.919 127.668 105.192 131.381 103.961 133.608C103.477 134.483 101.929 134.563 100.521 133.785C99.114 133.006 96.3696 133.015 94.4227 133.804C91.0501 135.17 90.8376 135.081 89.9241 131.906C89.1529 129.227 86.9858 127.521 78.8475 123.187C61.6203 114.012 49.0982 108.802 46.6137 109.774C43.9179 110.828 40.6006 109.387 41.5931 107.592L41.5932 107.593ZM85.7602 119.843L92.6979 122.789L96.1674 114.85C98.0756 110.483 103.185 99.6404 107.522 90.7543L115.407 74.5978L95.7955 64.8803C85.0091 59.5357 75.7583 55.1679 75.238 55.174C74.2447 55.1858 63.9109 74.9246 55.7694 92.3606L50.9796 102.619L64.9011 109.758C72.5579 113.685 81.9445 118.223 85.7603 119.843L85.7602 119.843Z" fill="#9BC542"/>
</g>
<defs>
<clipPath id="clip0_219_3552">
<rect width="88.1579" height="77.8126" fill="white" transform="translate(49.6035 9.29199) rotate(28.9429)"/>
</clipPath>
<clipPath id="clip1_219_3552">
<rect width="88.1579" height="77.8126" fill="white" transform="translate(60.2229 30.531) rotate(28.9429)"/>
</clipPath>
</defs>
</svg>
