<svg width="219" height="186" viewBox="0 0 219 186" fill="none" xmlns="http://www.w3.org/2000/svg">
<g clip-path="url(#clip0_218_3498)">
<path fill-rule="evenodd" clip-rule="evenodd" d="M121.423 164.24C158.474 164.24 188.509 134.205 188.509 97.1544C188.509 60.1038 158.474 30.0684 121.423 30.0684C84.3726 30.0684 54.3372 60.1038 54.3372 97.1544C54.3372 134.205 84.3726 164.24 121.423 164.24Z" fill="#EBD23A" fill-opacity="0.4"/>
<g opacity="0.6">
<path d="M63.854 76.1043L48.0271 77.5192C47.7007 79.2286 47.3878 80.9656 47.035 82.698C46.587 84.9036 46.1294 87.1104 45.6294 89.2934C45.489 89.9734 45.2434 90.6273 44.9014 91.2316C44.6612 91.6849 44.264 92.0352 43.7841 92.2168C43.3043 92.3984 42.7747 92.399 42.2945 92.2184C41.7965 92.0827 41.3608 91.779 41.0612 91.3588C40.7616 90.9386 40.6166 90.4276 40.6508 89.9127C40.6631 89.6806 40.6954 89.45 40.7473 89.2236C42.627 77.0103 44.526 64.8206 46.4445 52.6546C46.7471 50.5831 47.2049 48.5373 47.814 46.5344C48.9232 43.0073 51.8823 42.4649 54.3244 45.2548C54.9191 45.971 55.4489 46.7387 55.9077 47.5488C60.2981 54.8747 64.0938 62.5411 67.258 70.4741C69.121 75.0651 71.1248 79.6084 73.0637 84.1797C73.2946 84.6731 73.4767 85.188 73.6071 85.7169C73.7271 86.2931 73.6485 86.893 73.3841 87.4188C73.1197 87.9447 72.685 88.3655 72.1509 88.6128C71.6523 88.8428 71.0916 88.9016 70.5561 88.7798C70.0207 88.6581 69.5405 88.3626 69.1904 87.9396C68.7511 87.3873 68.3967 86.7725 68.139 86.1156C66.6967 82.8718 65.3373 79.5878 63.854 76.1043ZM52.0163 51.7718C50.7737 58.8656 49.8933 65.579 48.9177 72.54C53.2755 71.9723 57.4421 71.9687 61.6633 70.8794C58.8118 64.2699 56.1619 57.9283 52.0138 51.7525L52.0163 51.7718Z" fill="#246683"/>
<path d="M78.1989 100.098C76.4345 100.328 74.9884 100.517 73.5422 100.705C62.0122 102.514 50.4983 104.322 39.0004 106.127C37.0026 106.446 34.9897 106.65 32.994 106.91C30.5749 107.156 28.1458 107.326 26.2086 105.401C20.7102 103.686 19.2354 99.0641 17.9643 94.1998C16.5567 88.8141 16.4749 83.2949 15.8289 77.8099C15.1637 71.8764 14.2839 65.9513 13.3101 60.058C12.5207 55.385 12.1662 50.6489 12.2513 45.9104C12.3313 40.4289 15.0447 36.7222 19.9987 34.8609C23.4059 33.5547 26.9393 32.6047 30.5422 32.0263C44.3634 29.8922 58.2194 27.9497 72.067 26.0181C74.7538 25.6298 77.4655 25.4403 80.1802 25.4513C81.8078 25.5438 83.4099 25.8979 84.925 26.4999C86.0559 26.9216 87.0839 27.5796 87.9403 28.43C88.7967 29.2805 89.4619 30.3038 89.8915 31.4317C91.8564 35.9016 92.5842 40.6602 93.4084 45.4062C93.9203 48.2809 94.3445 51.2357 94.8311 54.1432C94.919 54.818 95.1407 55.4657 95.3024 56.18C95.8423 56.1096 96.2803 56.1604 96.6081 56.1177C109.682 54.2705 122.763 52.4224 135.85 50.5736C139.167 50.1414 142.471 49.7697 145.788 50.6907C147.34 51.0623 148.777 51.8103 149.972 52.8688C151.166 53.9272 152.082 55.2635 152.638 56.7596C154.08 60.5349 155.079 64.465 155.615 68.4709C157.409 80.0616 159.098 91.6662 160.758 103.284C161.334 106.834 160.966 110.473 159.692 113.836C157.747 118.776 154.427 122.189 149.053 123.311C147.841 123.567 146.643 123.929 145.412 124.119C129.979 126.522 114.543 128.902 99.1035 131.26C96.7987 131.58 94.4723 131.716 92.146 131.666C91.1674 131.52 90.2243 131.194 89.3637 130.705C88.9395 130.535 88.6176 130.097 88.1901 129.976C84.406 128.851 82.6275 125.886 81.4593 122.489C79.7756 117.312 78.8261 111.924 78.6385 106.483C78.5591 104.444 78.3666 102.439 78.1989 100.098ZM58.491 97.7636C64.2572 96.8686 70.0231 95.9703 75.7885 95.0688C78.6708 94.6148 81.6021 94.0858 84.5121 93.6184C89.0548 92.8893 91.6402 90.0817 92.6971 85.7769C93.0695 84.3528 93.2085 82.8778 93.1086 81.4092C92.649 76.3019 92.1702 71.1972 91.4119 66.1289C90.205 58.0697 88.8149 50.0344 87.4055 42.0016C86.9654 39.6382 86.3572 37.3091 85.5857 35.0322C84.4842 31.695 83.109 30.6976 79.5733 30.7269C77.1666 30.7643 74.7646 30.9528 72.3815 31.2913C63.2942 32.5341 54.2164 33.8246 45.1482 35.163C39.3098 36.0315 33.4752 36.929 27.6804 38.0565C25.2651 38.6086 22.9186 39.4273 20.6841 40.4976C19.7714 40.8654 18.9966 41.5095 18.4683 42.3396C17.94 43.1698 17.6846 44.1444 17.7379 45.1269C17.7794 48.2297 17.6377 51.3563 17.9684 54.4213C18.4423 58.5854 19.4753 62.6767 19.9782 66.837C20.7029 72.851 21.0696 78.9018 21.7751 84.9183C22.1866 88.4532 22.8899 91.9697 23.6196 95.4632C23.8942 96.6742 24.41 97.8174 25.1361 98.8248C25.7168 99.6277 26.5236 100.239 27.4534 100.582C30.0835 101.537 32.9115 101.816 35.6774 101.393C43.2789 100.059 50.8887 98.9404 58.4897 97.754L58.491 97.7636ZM83.6289 99.332C83.612 100.03 83.5646 100.644 83.6039 101.247C83.862 104.734 84.0334 108.231 84.4554 111.696C84.8094 114.389 85.3178 117.06 85.9779 119.694C86.323 121.049 86.8717 122.343 87.6055 123.532C88.0884 124.308 88.8138 124.902 89.6692 125.224C92.2529 126.015 94.8726 126.781 97.6333 126.147C98.9198 125.862 100.249 125.757 101.557 125.558L133.78 120.477C138.152 119.79 142.516 119.045 146.886 118.348C151.691 117.594 154.244 114.614 155.245 110.111C155.56 108.83 155.676 107.509 155.588 106.193C155.1 101.021 154.631 95.8368 153.867 90.7299C152.621 82.4406 151.201 74.1739 149.724 65.9244C149.172 63.5086 148.498 61.1225 147.704 58.7751C147.515 57.9671 147.073 57.2406 146.442 56.7018C145.811 56.1631 145.024 55.8404 144.196 55.7809C142.049 55.4866 139.875 55.4408 137.717 55.6445C124.479 57.4379 111.256 59.347 98.03 61.2369C97.4419 61.3135 96.881 61.5238 96.1307 61.7098C96.25 62.6257 96.348 63.3777 96.4472 64.1394C97.0753 68.96 97.8078 73.6787 98.2078 78.4799C98.4896 81.1744 98.3717 83.8957 97.8579 86.5556C96.4611 92.7676 92.9084 97.1818 86.3239 98.5691C85.4708 98.7195 84.6031 99.058 83.6276 99.3224L83.6289 99.332Z" fill="#246683"/>
<path d="M120.295 79.3576L134.149 77.5526C135.306 77.4018 136.462 77.1727 137.62 77.1004C139.56 76.9456 140.649 77.7744 140.85 79.317C141.051 80.8596 140.113 81.9426 138.249 82.3032C137.034 82.5399 135.8 82.6223 134.325 82.8145C133.8 90.1482 132.411 97.1729 128.206 103.584C131.547 104.787 135.079 105.373 138.629 105.315C139.792 105.29 140.956 105.119 142.119 105.085C143.944 105.024 145.061 105.771 145.326 107.128C145.385 107.498 145.366 107.875 145.27 108.237C145.175 108.598 145.005 108.936 144.772 109.228C144.539 109.52 144.248 109.761 143.916 109.934C143.585 110.108 143.222 110.21 142.849 110.236C140.63 110.615 138.373 110.712 136.131 110.523C132.37 110.032 128.676 109.219 124.598 108.476C123.795 109.313 122.945 110.104 122.054 110.847C119.38 112.901 116.746 114.882 114.005 116.798C113.233 117.327 112.389 117.741 111.498 118.027C110.81 118.293 110.046 118.289 109.36 118.014C108.675 117.739 108.119 117.215 107.805 116.547C107.329 115.305 107.891 114.271 109.346 113.326C111.941 111.645 114.522 109.926 117.056 108.155C118.038 107.373 118.973 106.534 119.856 105.643C112.903 101.117 107.79 95.2822 105.383 87.2715C104.595 87.3154 103.916 87.3744 103.23 87.3756C101.673 87.3921 100.742 86.7192 100.575 85.3586C100.528 85.0485 100.547 84.7322 100.629 84.4297C100.711 84.1271 100.855 83.8449 101.051 83.6009C101.248 83.3568 101.493 83.1562 101.772 83.0119C102.05 82.8675 102.355 82.7824 102.668 82.7621C105.866 82.1003 109.076 81.5252 112.281 80.9116C113.113 80.7541 113.933 80.5786 114.86 80.3893C114.585 78.2778 114.404 76.2913 114.071 74.3346C113.605 71.7382 113.015 69.1677 112.473 66.5814C112.428 66.3521 112.398 66.1203 112.382 65.8872C112.289 65.3051 112.413 64.709 112.732 64.2132C113.051 63.7174 113.542 63.357 114.111 63.201C114.391 63.1116 114.687 63.0807 114.98 63.1105C115.273 63.1402 115.557 63.2298 115.814 63.3738C116.071 63.5178 116.295 63.713 116.474 63.9474C116.652 64.1818 116.78 64.4504 116.85 64.7364C117.542 66.8818 118.034 69.0825 118.555 71.2699C119.134 73.9103 119.684 76.5545 120.295 79.3576ZM110.19 86.3119C112.679 93.2236 117.299 97.7592 123.291 101.381C126.855 96.1899 128.917 90.1162 129.25 83.8285L110.19 86.3119Z" fill="#246683"/>
</g>
<path d="M69.3027 80.2969L53.4758 81.7119C53.1495 83.4212 52.8365 85.1582 52.4837 86.8906C52.0357 89.0962 51.5781 91.3031 51.0781 93.4861C50.9377 94.166 50.6921 94.8199 50.3502 95.4242C50.1099 95.8775 49.7127 96.2278 49.2329 96.4094C48.753 96.5911 48.2234 96.5916 47.7432 96.411C47.2452 96.2754 46.8095 95.9717 46.5099 95.5514C46.2104 95.1312 46.0654 94.6202 46.0995 94.1053C46.1118 93.8732 46.1441 93.6427 46.196 93.4162C48.0757 81.2029 49.9748 69.0132 51.8933 56.8472C52.1959 54.7758 52.6537 52.73 53.2628 50.7271C54.372 47.1999 57.331 46.6575 59.7731 49.4474C60.3678 50.1636 60.8977 50.9313 61.3564 51.7414C65.7469 59.0673 69.5425 66.7337 72.7068 74.6667C74.5697 79.2577 76.5736 83.801 78.5124 88.3724C78.7434 88.8658 78.9254 89.3806 79.0559 89.9095C79.1759 90.4857 79.0973 91.0856 78.8328 91.6114C78.5684 92.1373 78.1337 92.5581 77.5996 92.8054C77.101 93.0355 76.5403 93.0942 76.0049 92.9725C75.4694 92.8507 74.9892 92.5553 74.6391 92.1322C74.1998 91.5799 73.8454 90.9652 73.5877 90.3082C72.1454 87.0644 70.7861 83.7805 69.3027 80.2969ZM57.465 55.9644C56.2224 63.0583 55.342 69.7716 54.3664 76.7327C58.7242 76.1649 62.8908 76.1613 67.112 75.0721C64.2605 68.4626 61.6106 62.1209 57.4625 55.9451L57.465 55.9644Z" fill="#246683"/>
<path d="M83.6476 104.291C81.8833 104.521 80.4371 104.709 78.9909 104.898C67.4609 106.707 55.947 108.514 44.4491 110.32C42.4513 110.639 40.4384 110.842 38.4427 111.102C36.0236 111.349 33.5945 111.518 31.6574 109.594C26.1589 107.879 24.6841 103.257 23.413 98.3925C22.0054 93.0067 21.9236 87.4875 21.2776 82.0025C20.6124 76.0691 19.7326 70.1439 18.7589 64.2507C17.9694 59.5777 17.6149 54.8415 17.7 50.1031C17.78 44.6216 20.4934 40.9148 25.4475 39.0535C28.8547 37.7473 32.388 36.7974 35.9909 36.2189C49.8121 34.0848 63.6681 32.1423 77.5157 30.2107C80.2025 29.8224 82.9143 29.6329 85.6289 29.6439C87.2566 29.7365 88.8587 30.0905 90.3738 30.6925C91.5046 31.1142 92.5326 31.7722 93.389 32.6227C94.2454 33.4731 94.9106 34.4964 95.3402 35.6244C97.3051 40.0943 98.0329 44.8528 98.8572 49.5988C99.369 52.4735 99.7932 55.4283 100.28 58.3358C100.368 59.0107 100.589 59.6583 100.751 60.3726C101.291 60.3023 101.729 60.3531 102.057 60.3103C115.131 58.4631 128.212 56.6151 141.299 54.7662C144.615 54.3341 147.92 53.9623 151.237 54.8833C152.789 55.2549 154.226 56.003 155.42 57.0614C156.615 58.1198 157.531 59.4561 158.087 60.9522C159.529 64.7275 160.528 68.6576 161.064 72.6635C162.858 84.2543 164.546 95.8589 166.207 107.477C166.783 111.027 166.415 114.666 165.141 118.029C163.196 122.969 159.875 126.382 154.501 127.504C153.29 127.76 152.092 128.122 150.861 128.311C135.428 130.714 119.991 133.095 104.552 135.453C102.247 135.772 99.921 135.908 97.5947 135.859C96.6162 135.712 95.673 135.386 94.8124 134.898C94.3882 134.728 94.0664 134.289 93.6388 134.168C89.8547 133.044 88.0762 130.079 86.908 126.682C85.2243 121.504 84.2748 116.117 84.0872 110.675C84.0079 108.637 83.8153 106.632 83.6476 104.291ZM63.9397 101.956C69.706 101.061 75.4718 100.163 81.2372 99.2614C84.1195 98.8074 87.0509 98.2784 89.9608 97.8111C94.5035 97.0819 97.0889 94.2743 98.1459 89.9695C98.5183 88.5455 98.6572 87.0704 98.5573 85.6018C98.0978 80.4946 97.619 75.3898 96.8606 70.3215C95.6537 62.2623 94.2636 54.227 92.8543 46.1942C92.4141 43.8308 91.806 41.5017 91.0344 39.2248C89.9329 35.8876 88.5577 34.8902 85.022 34.9195C82.6153 34.9569 80.2133 35.1454 77.8302 35.4839C68.7429 36.7267 59.6652 38.0173 50.5969 39.3556C44.7586 40.2242 38.924 41.1216 33.1292 42.2492C30.7138 42.8012 28.3673 43.6199 26.1328 44.6902C25.2201 45.058 24.4453 45.7021 23.917 46.5322C23.3887 47.3624 23.1333 48.337 23.1866 49.3196C23.2281 52.4223 23.0864 55.5489 23.4171 58.6139C23.891 62.778 24.9241 66.8693 25.4269 71.0296C26.1516 77.0436 26.5184 83.0944 27.2238 89.1109C27.6353 92.6458 28.3386 96.1624 29.0683 99.6558C29.343 100.867 29.8587 102.01 30.5848 103.017C31.1656 103.82 31.9723 104.432 32.9021 104.774C35.5322 105.73 38.3602 106.009 41.1262 105.586C48.7276 104.252 56.3374 103.133 63.9385 101.947L63.9397 101.956ZM89.0776 103.525C89.0608 104.223 89.0133 104.837 89.0526 105.44C89.3107 108.926 89.4821 112.424 89.9041 115.889C90.2582 118.582 90.7665 121.252 91.4267 123.887C91.7717 125.241 92.3205 126.535 93.0542 127.724C93.5371 128.5 94.2625 129.095 95.1179 129.417C97.7016 130.207 100.321 130.974 103.082 130.34C104.369 130.055 105.698 129.95 107.006 129.75L139.229 124.669C143.601 123.982 147.965 123.237 152.335 122.54C157.139 121.787 159.692 118.807 160.694 114.304C161.009 113.023 161.124 111.702 161.037 110.386C160.549 105.214 160.08 100.029 159.316 94.9225C158.07 86.6332 156.649 78.3665 155.172 70.117C154.621 67.7013 153.947 65.3151 153.153 62.9677C152.964 62.1597 152.522 61.4332 151.89 60.8945C151.259 60.3557 150.472 60.033 149.645 59.9735C147.497 59.6792 145.323 59.6334 143.165 59.8372C129.927 61.6306 116.704 63.5397 103.479 65.4295C102.891 65.5061 102.33 65.7164 101.579 65.9024C101.699 66.8184 101.797 67.5704 101.896 68.332C102.524 73.1526 103.256 77.8713 103.657 82.6726C103.938 85.367 103.82 88.0883 103.307 90.7483C101.91 96.9602 98.3572 101.374 91.7726 102.762C90.9196 102.912 90.0518 103.251 89.0764 103.515L89.0776 103.525Z" fill="#246683"/>
<path d="M125.743 83.5502L139.598 81.7452C140.755 81.5945 141.911 81.3653 143.068 81.293C145.009 81.1382 146.098 81.967 146.299 83.5096C146.5 85.0522 145.562 86.1352 143.697 86.4958C142.483 86.7325 141.248 86.8149 139.773 87.0071C139.248 94.3408 137.859 101.366 133.655 107.777C136.996 108.979 140.527 109.566 144.077 109.507C145.241 109.483 146.405 109.312 147.568 109.278C149.393 109.217 150.51 109.963 150.775 111.321C150.834 111.69 150.814 112.068 150.719 112.429C150.623 112.791 150.454 113.128 150.221 113.42C149.988 113.713 149.696 113.953 149.365 114.127C149.034 114.3 148.67 114.403 148.297 114.428C146.079 114.808 143.822 114.905 141.579 114.715C137.819 114.225 134.125 113.412 130.047 112.669C129.243 113.506 128.394 114.297 127.503 115.04C124.829 117.094 122.194 119.075 119.454 120.991C118.682 121.519 117.838 121.933 116.947 122.219C116.258 122.486 115.494 122.481 114.809 122.207C114.123 121.932 113.568 121.408 113.254 120.739C112.778 119.497 113.34 118.463 114.795 117.519C117.39 115.837 119.97 114.119 122.504 112.347C123.486 111.566 124.421 110.727 125.305 109.835C118.352 105.309 113.238 99.4749 110.832 91.4641C110.043 91.508 109.365 91.567 108.679 91.5682C107.122 91.5847 106.191 90.9118 106.023 89.5512C105.977 89.2412 105.995 88.9249 106.077 88.6223C106.159 88.3198 106.303 88.0375 106.5 87.7935C106.697 87.5494 106.942 87.3489 107.22 87.2045C107.499 87.0601 107.804 86.9751 108.117 86.9547C111.315 86.2929 114.525 85.7178 117.729 85.1042C118.562 84.9467 119.382 84.7712 120.309 84.5819C120.034 82.4705 119.853 80.484 119.52 78.5272C119.054 75.9308 118.464 73.3604 117.921 70.774C117.877 70.5447 117.847 70.3129 117.831 70.0798C117.737 69.4978 117.862 68.9016 118.181 68.4058C118.5 67.9101 118.991 67.5496 119.56 67.3936C119.84 67.3042 120.136 67.2734 120.429 67.3031C120.722 67.3328 121.006 67.4225 121.263 67.5664C121.52 67.7104 121.744 67.9057 121.922 68.1401C122.101 68.3745 122.229 68.643 122.299 68.929C122.99 71.0744 123.483 73.2752 124.003 75.4625C124.583 78.1029 125.133 80.7472 125.743 83.5502ZM115.639 90.5045C118.127 97.4162 122.748 101.952 128.74 105.574C132.304 100.383 134.366 94.3088 134.699 88.0212L115.639 90.5045Z" fill="#246683"/>
</g>
<defs>
<clipPath id="clip0_218_3498">
<rect width="200" height="159.819" fill="white" transform="translate(0 26.5776) rotate(-7.42313)"/>
</clipPath>
</defs>
</svg>
